<svg xmlns="http://www.w3.org/2000/svg" width="2500" height="400" viewBox="0 0 272.812 43.678"><path d="M29.095 16.717H10.386v-7.54h20.131V1.209H0v41.26h32.225V34.43H10.386v-9.746h18.709v-7.967zM63.668 20.274L77.326 1.209H64.948L57.479 13.8l-7.47-12.591H37.347l13.658 19.065-15.863 22.195h12.449l9.746-15.366 9.604 15.366h12.591L63.668 20.274zM103.22 1.209H82.732v41.26h10.529V29.024h7.967c6.332 0 10.956-1.564 13.943-4.838 2.276-2.489 3.272-5.477 3.272-9.105 0-9.319-5.121-13.872-15.223-13.872zM93.047 21.413V8.821h8.466c4.339 0 6.544 2.063 6.544 6.402 0 4.126-2.063 6.189-6.26 6.189h-8.75zM156.858 14.725c0-9.105-4.98-13.516-15.01-13.516h-20.63v41.26h10.244V27.601h6.615l8.109 14.868h11.596l-9.461-16.575c5.62-1.708 8.537-5.549 8.537-11.169zm-10.386-.284c0 3.557-1.85 5.406-5.549 5.549h-9.461V8.821h9.461c3.699.142 5.549 2.063 5.549 5.62zM190.933 16.717h-18.709v-7.54h20.132V1.209h-30.519v41.26h32.226V34.43h-21.839v-9.746h18.709v-7.967zM214.977 0c-4.837 0-8.749 1.067-11.737 3.272-3.414 2.49-5.122 6.046-5.122 10.813 0 6.26 3.983 10.101 11.667 11.382l8.75 1.352c2.987.498 4.624 1.707 4.624 3.699 0 1.564-.925 2.774-2.917 3.628-1.423.711-3.13 1.066-4.908 1.066-4.197 0-8.11-1.707-11.81-5.121l-7.896 5.121c5.05 5.691 11.168 8.466 18.566 8.466 12.591 0 18.923-4.909 18.923-14.726 0-6.331-4.979-10.243-15.011-11.88l-3.912-.64c-3.841-.498-5.833-1.85-5.833-3.913 0-1.209.712-2.276 2.134-3.059 1.209-.64 2.348-1.067 3.842-1.067 4.481 0 8.109 1.707 11.025 5.122l7.755-5.478C228.493 2.632 222.446 0 214.977 0zM257.802 17.073l-3.912-.64c-3.842-.498-5.763-1.85-5.763-3.913 0-1.209.641-2.276 2.063-3.059 1.209-.64 2.418-1.067 3.841-1.067 4.481 0 8.109 1.707 11.026 5.122l7.754-5.478C268.188 2.632 262.141 0 254.672 0c-4.838 0-8.68 1.067-11.667 3.272-3.415 2.49-5.121 6.046-5.121 10.813 0 6.26 3.912 10.101 11.666 11.382l8.679 1.352c3.059.498 4.624 1.707 4.624 3.699 0 1.564-.925 2.774-2.917 3.628-1.423.711-3.13 1.066-4.838 1.066-4.196 0-8.181-1.707-11.879-5.121l-7.896 5.121c5.051 5.691 11.239 8.466 18.567 8.466 12.59 0 18.922-4.909 18.922-14.726 0-6.33-4.98-10.243-15.01-11.879z"/></svg>
