<svg width="708" height="709" viewBox="0 0 708 709" fill="none" xmlns="http://www.w3.org/2000/svg">
<path d="M707.423 537.488V356.001H707.999V353.998H707.423V172.511C707.413 128.004 690.092 85.245 659.125 53.2767V49.9837H707.423V47.9667H660.525L705.557 2.68768L704.185 1.31559L659.166 46.5946V2.28977H657.163V47.9667H653.76C622.252 17.8473 580.35 1.02654 536.762 1H170.647C127.078 1.04065 85.198 17.8604 53.7037 47.9667H50.2872V2.28977H48.2976V46.5534L3.2793 1.27441L1.90721 2.64651L46.9255 47.9255H2.85395V49.9288H48.2976V53.2767C17.3269 85.2425 0.00617912 128.003 0 172.511V537.488C0.00617912 581.996 17.3269 624.757 48.2976 656.723V660.071H2.85395V662.074H46.8844L1.86605 707.353L3.23814 708.725L48.2565 663.446V707.71H50.246V662.033H53.6625C85.1671 692.149 127.064 708.969 170.647 708.999H536.762C580.336 708.962 622.222 692.142 653.719 662.033H657.122V707.71H659.125V663.446L704.144 708.725L705.516 707.353L660.484 662.074H707.999V660.071H659.125V656.723C690.085 624.75 707.404 581.994 707.423 537.488ZM705.42 537.488C705.416 580.754 688.851 622.377 659.125 653.814V481.85H704.706V479.86H659.125V356.001H705.42V537.488ZM479.313 479.86L477.941 478.488C480.218 476.174 482.427 473.795 484.568 471.353V479.86H479.313ZM484.568 481.863V485.143L481.302 481.863H484.568ZM223.994 479.86V472.656C225.778 474.646 227.616 476.581 229.482 478.488L228.11 479.86H223.994ZM226.121 481.863L223.994 483.976V481.85L226.121 481.863ZM228.11 230.139L229.482 231.511C227.616 233.419 225.778 235.367 223.994 237.343V230.139H228.11ZM223.994 228.136V226.023L226.121 228.15L223.994 228.136ZM484.568 230.139V238.646C482.427 236.204 480.218 233.826 477.941 231.511L479.313 230.139H484.568ZM481.302 228.136L484.568 224.857V228.136H481.302ZM484.568 353.984H479.875C479.667 321.065 466.668 289.516 443.625 266.006L476.555 232.938C479.299 235.747 481.979 238.66 484.595 241.679L484.568 353.984ZM486.557 244.052C512.149 274.984 526.213 313.838 526.348 353.984H486.557V244.052ZM442.211 267.378C464.892 290.5 477.686 321.541 477.886 353.929H356.113L442.211 267.378ZM354.713 352.448V230.139C386.992 230.365 417.896 243.231 440.798 265.978L354.713 352.448ZM352.71 352.448L266.611 265.882C289.539 243.177 320.443 230.347 352.71 230.139V352.448ZM351.338 353.82H229.537C229.744 321.432 242.537 290.395 265.212 267.268L351.338 353.82ZM351.338 355.823L265.239 442.374C242.564 419.248 229.771 388.21 229.565 355.823H351.338ZM352.71 357.195V479.86C320.425 479.633 289.515 466.762 266.611 444.007L352.71 357.195ZM354.713 357.195L440.798 443.747C417.943 466.598 387.031 479.566 354.713 479.86V357.195ZM356.085 355.823H477.845C477.645 388.212 464.851 419.252 442.17 442.374L356.085 355.823ZM475.114 231.511L442.184 264.593C424.109 246.661 401.012 234.645 375.953 230.139H473.715L475.114 231.511ZM354.713 228.136V181.389C398.198 181.601 439.98 198.314 471.615 228.15L354.713 228.136ZM352.71 228.136H235.808C267.438 198.292 309.223 181.578 352.71 181.375V228.136ZM331.456 230.139C306.39 234.646 283.284 246.661 265.198 264.593L232.268 231.511L233.64 230.139H331.456ZM230.896 232.883L263.826 265.951C240.772 289.454 227.771 321.008 227.575 353.929H224.021V240.375C226.23 237.837 228.522 235.353 230.896 232.952V232.883ZM222.004 353.929H181.02C181.173 313.168 195.684 273.764 222.004 242.639V353.929ZM222.004 355.933V467.223C195.684 436.098 181.173 396.694 181.02 355.933H222.004ZM223.994 355.933H227.548C227.741 388.851 240.743 420.401 263.798 443.897L230.868 476.979C228.494 474.577 226.203 472.094 224.008 469.556L223.994 355.933ZM232.309 478.488L265.239 445.407C283.314 463.331 306.404 475.345 331.456 479.86H233.708L232.309 478.488ZM352.71 481.863V528.624C309.223 528.421 267.438 511.707 235.808 481.863H352.71ZM354.713 481.863H471.615C439.98 511.699 398.198 528.412 354.713 528.624V481.863ZM375.953 479.86C401.022 475.359 424.129 463.343 442.211 445.407L475.142 478.488L473.77 479.86H375.953ZM476.527 477.116L443.597 444.035C466.643 420.532 479.643 388.986 479.848 356.07H484.54V468.376C481.979 471.339 479.308 474.253 476.527 477.116ZM486.557 356.07H526.348C526.213 396.216 512.149 435.07 486.557 466.002V356.07ZM528.392 354.067C528.24 312.63 513.419 272.585 486.557 241.034V230.139H592.071C611.933 268.406 622.345 310.871 622.436 353.984L528.392 354.067ZM486.557 228.218V222.922L544.432 164.759C562.966 183.532 578.66 204.91 591.015 228.218H486.557ZM486.557 220.096V120.125C507.198 131.952 526.183 146.457 543.019 163.264L486.557 220.096ZM484.568 222.099L478.49 228.218H474.524C442.373 197.107 399.452 179.608 354.713 179.372V84.8622C400.203 84.9621 444.91 96.715 484.568 119V222.099ZM352.71 179.372C307.982 179.583 265.062 197.052 232.899 228.136H228.933L223.994 223.169V118.341C263.376 96.4702 307.662 84.9466 352.71 84.8485V179.372ZM222.004 221.18L164.377 163.264C181.534 146.149 200.918 131.423 222.004 119.48V221.18ZM222.004 224.02V228.136H116.353C128.704 204.825 144.398 183.446 162.936 164.677L222.004 224.02ZM222.004 230.153V239.62C194.433 271.364 179.178 311.953 179.017 353.998H84.9874C85.0763 310.88 95.488 268.41 115.352 230.139L222.004 230.153ZM179.017 356.001C179.178 398.046 194.433 438.635 222.004 470.379V479.86H115.352C95.4901 441.594 85.0784 399.129 84.9874 356.015L179.017 356.001ZM222.004 481.85V485.966L163.004 545.281C144.466 526.512 128.773 505.133 116.422 481.822L222.004 481.85ZM222.004 488.82V590.519C200.918 578.577 181.534 563.85 164.377 546.736L222.004 488.82ZM223.994 486.816L228.933 481.85H232.899C265.059 512.939 307.98 530.412 352.71 530.627V625.165C307.662 625.055 263.377 613.527 223.994 591.658V486.816ZM354.713 530.627C399.441 530.413 442.36 512.945 474.524 481.863H478.49L484.568 487.983V590.999C444.908 613.282 400.204 625.039 354.713 625.151V530.627ZM486.557 489.986L543.019 546.749C526.177 563.548 507.192 578.053 486.557 589.888V489.986ZM486.557 487.16V481.863H591.015C578.66 505.171 562.966 526.55 544.432 545.322L486.557 487.16ZM486.557 479.86V469.048C513.419 437.496 528.24 397.452 528.392 356.015H622.436C622.345 399.129 611.933 441.594 592.071 479.86H486.557ZM624.425 356.015H657.122V479.86H594.322C614.022 441.54 624.339 399.089 624.425 356.001V356.015ZM624.425 354.012C624.342 310.92 614.024 268.464 594.322 230.139H657.122V353.984L624.425 354.012ZM593.265 228.163C580.742 204.316 564.763 182.451 545.846 163.277L655.86 52.7278L655.956 52.8102C656.368 53.2355 656.779 53.6883 657.191 54.1823V228.15L593.265 228.163ZM654.351 51.342L544.432 161.85C527.199 144.649 507.733 129.84 486.557 117.82V49.97H652.924L654.351 51.342ZM484.568 116.708C444.848 94.6093 400.167 82.9575 354.713 82.8453V49.9151H484.568V116.708ZM354.713 47.9667V3.00325H484.568V47.9667H354.713ZM352.71 47.9667H223.994V3.00325H352.71V47.9667ZM352.71 49.97V82.9001C307.698 83.0055 263.435 94.4286 223.994 116.118V49.97H352.71ZM222.004 117.202C200.391 129.327 180.54 144.354 163.004 161.864L53.0862 51.3558L54.4583 49.9837H222.004V117.202ZM51.5358 52.8102L51.6181 52.7278L161.578 163.264C142.652 182.434 126.668 204.3 114.144 228.15H50.2872V54.1274C50.7674 53.6883 51.1104 53.2355 51.5358 52.8102ZM113.102 230.139C93.4035 268.455 83.0859 310.901 82.9978 353.984H50.2872V230.139H113.102ZM82.9978 355.988C83.0815 399.08 93.3992 441.536 113.102 479.86H50.2872V356.001L82.9978 355.988ZM114.144 481.836C126.668 505.686 142.652 527.552 161.578 546.722L51.6181 657.271L51.5358 657.189C51.1104 656.764 50.7125 656.311 50.2872 655.817V481.85L114.144 481.836ZM53.0725 658.657L162.991 548.149C180.53 565.659 200.38 580.69 221.991 592.824V660.057H54.4995L53.0725 658.657ZM223.994 593.936C263.435 615.626 307.698 627.049 352.71 627.154V660.084H223.994V593.936ZM352.71 662.033V706.996H223.994V662.033H352.71ZM354.713 662.033H484.568V706.996H354.713V662.033ZM354.713 660.029V627.099C400.167 626.987 444.848 615.335 484.568 593.236V659.974L354.713 660.029ZM486.557 592.179C507.733 580.159 527.199 565.35 544.432 548.149L654.351 658.657L652.978 660.029H486.557V592.179ZM655.86 657.189L655.764 657.271L545.818 546.736C564.735 527.562 580.714 505.697 593.237 481.85H657.095V655.872L655.86 657.189ZM705.42 172.511V353.998H659.125V230.139H704.706V228.136H659.125V56.2267C688.842 87.6533 705.406 129.26 705.42 172.511ZM650.838 47.9255H486.557V3.00325H536.762C579.104 3.03452 619.862 19.0997 650.838 47.9667V47.9255ZM170.606 2.96209H222.004V47.9255H56.5851C87.5628 19.0756 128.316 3.02544 170.647 3.00325L170.606 2.96209ZM1.98953 537.488V172.511C1.99809 129.244 18.5677 87.6211 48.2976 56.1855V228.109H2.74418V230.139H48.2976V353.984H2.57953V355.988H48.2976V479.86H2.74418V481.863H48.2976V653.786C18.5743 622.358 2.0051 580.746 1.98953 537.488ZM56.5851 662.074H222.004V707.037H170.647C128.305 706.993 87.5502 690.913 56.5851 662.033V662.074ZM536.817 707.037H486.557V662.033H650.838C619.861 690.897 579.103 706.962 536.762 706.996L536.817 707.037Z" fill="url(#paint0_radial_318_12001)"/>
<mask id="mask0_318_12001" style="mask-type:alpha" maskUnits="userSpaceOnUse" x="32" y="0" width="631" height="709">
<rect x="32" width="631" height="709" fill="url(#paint1_linear_318_12001)"/>
</mask>
<g mask="url(#mask0_318_12001)">
<g filter="url(#filter0_b_318_12001)">
<path d="M134 623.456C134 617.989 134 615.255 135.081 613.175C135.992 611.421 137.421 609.992 139.175 609.081C141.255 608 143.989 608 149.456 608H202.544C208.011 608 210.745 608 212.825 609.081C214.579 609.992 216.008 611.421 216.919 613.175C218 615.255 218 617.989 218 623.456V676.544C218 682.011 218 684.745 216.919 686.825C216.008 688.579 214.579 690.008 212.825 690.919C210.745 692 208.011 692 202.544 692H149.456C143.989 692 141.255 692 139.175 690.919C137.421 690.008 135.992 688.579 135.081 686.825C134 684.745 134 682.011 134 676.544V623.456Z" fill="#0F172A" fill-opacity="0.1"/>
<path d="M202.544 607.5H149.456H149.432C146.719 607.5 144.652 607.5 143.004 607.637C141.346 607.775 140.068 608.053 138.944 608.637C137.099 609.595 135.595 611.099 134.637 612.944C134.053 614.068 133.775 615.346 133.637 617.004C133.5 618.652 133.5 620.719 133.5 623.432V623.456V676.544V676.568C133.5 679.281 133.5 681.348 133.637 682.996C133.775 684.654 134.053 685.932 134.637 687.056C135.595 688.901 137.099 690.405 138.944 691.363C140.068 691.947 141.346 692.225 143.004 692.363C144.652 692.5 146.719 692.5 149.432 692.5H149.456H202.544H202.568C205.281 692.5 207.348 692.5 208.996 692.363C210.654 692.225 211.932 691.947 213.056 691.363C214.901 690.405 216.405 688.901 217.363 687.056C217.947 685.932 218.225 684.654 218.363 682.996C218.5 681.348 218.5 679.281 218.5 676.568V676.544V623.456V623.432C218.5 620.719 218.5 618.652 218.363 617.004C218.225 615.346 217.947 614.068 217.363 612.944C216.405 611.099 214.901 609.595 213.056 608.637C211.932 608.053 210.654 607.775 208.996 607.637C207.348 607.5 205.281 607.5 202.568 607.5H202.544Z" stroke="#0F172A" stroke-opacity="0.2"/>
</g>
<path d="M150.625 621H201.375L196.759 673.111L175.944 679L155.246 673.108L150.625 621ZM191.926 631.665L160.074 631.657L160.589 637.994L185.058 637.999L184.441 644.562H168.395L168.975 650.781H183.915L183.03 659.294L175.998 661.237L168.854 659.28L168.4 654.181H162.092L162.793 663.497L176 667.613L188.985 663.915L191.926 631.667V631.665Z" fill="#0F172A"/>
<g filter="url(#filter1_b_318_12001)">
<path d="M428.633 70.6328H375.633C367.349 70.6328 360.633 77.3485 360.633 85.6328V138.633C360.633 146.917 367.349 153.633 375.633 153.633H428.633C436.917 153.633 443.633 146.917 443.633 138.633V85.6328C443.633 77.3485 436.917 70.6328 428.633 70.6328Z" fill="#0F172A" fill-opacity="0.1"/>
<path d="M428.633 70.1328H375.633C367.072 70.1328 360.133 77.0724 360.133 85.6328V138.633C360.133 147.193 367.072 154.133 375.633 154.133H428.633C437.193 154.133 444.133 147.193 444.133 138.633V85.6328C444.133 77.0724 437.193 70.1328 428.633 70.1328Z" stroke="#0F172A" stroke-opacity="0.2"/>
</g>
<path d="M416.387 135.477C418.059 138.206 420.234 140.213 424.081 140.213C427.313 140.213 429.377 138.598 429.377 136.366C429.377 133.691 427.256 132.744 423.699 131.188L421.749 130.352C416.121 127.954 412.382 124.95 412.382 118.6C412.382 112.75 416.839 108.297 423.805 108.297C428.763 108.297 432.328 110.023 434.898 114.542L428.824 118.442C427.487 116.044 426.044 115.099 423.805 115.099C421.52 115.099 420.072 116.549 420.072 118.442C420.072 120.782 421.521 121.729 424.868 123.178L426.818 124.013C433.444 126.855 437.186 129.752 437.186 136.266C437.186 143.288 431.67 147.135 424.262 147.135C417.018 147.135 412.339 143.683 410.049 139.159L416.387 135.477ZM388.835 136.152C390.06 138.326 391.175 140.164 393.855 140.164C396.417 140.164 398.034 139.162 398.034 135.263V108.743H405.833V135.369C405.833 143.445 401.098 147.12 394.187 147.12C387.942 147.12 384.326 143.889 382.486 139.996L388.835 136.152Z" fill="#0F172A"/>
<g filter="url(#filter2_b_318_12001)">
<rect x="185.367" y="27.3677" width="84" height="84" rx="16" fill="#0F172A" fill-opacity="0.1"/>
<rect x="184.867" y="26.8677" width="85" height="85" rx="16.5" stroke="#0F172A" stroke-opacity="0.2"/>
</g>
<path d="M227.179 80.9304C244.849 81.2181 259.259 76.2765 259.363 69.893C259.466 63.5095 245.226 58.1013 227.555 57.8135C209.884 57.5258 195.475 62.4674 195.371 68.8509C195.267 75.2344 209.508 80.6426 227.179 80.9304Z" stroke="#0F172A" stroke-width="2.92055"/>
<path d="M216.693 74.9749C225.292 89.5977 237.042 98.9414 242.938 95.8448C248.833 92.7482 246.64 78.3838 238.041 63.7611C229.441 49.1383 217.691 39.7945 211.796 42.8911C205.901 45.9877 208.093 60.3521 216.693 74.9749Z" stroke="#0F172A" stroke-width="2.92055"/>
<path d="M216.881 63.4161C207.81 77.7511 205.151 92.0365 210.942 95.3234C216.733 98.6104 228.781 89.6541 237.853 75.3191C246.924 60.9841 249.583 46.6987 243.792 43.4118C238.001 40.1249 225.952 49.0811 216.881 63.4161Z" stroke="#0F172A" stroke-width="2.92055"/>
<g filter="url(#filter3_b_318_12001)">
<path fill-rule="evenodd" clip-rule="evenodd" d="M239.461 69.6435C238.633 67.9501 237.711 66.2312 236.696 64.5055C235.682 62.7814 234.625 61.1349 233.542 59.5777C231.579 59.4065 229.545 59.3 227.459 59.266C225.373 59.2321 223.337 59.2723 221.369 59.3796C220.235 60.9006 219.125 62.5118 218.056 64.2019C216.985 65.8936 216.008 67.5816 215.125 69.2472C215.953 70.9404 216.875 72.659 217.89 74.3844C218.905 76.1112 219.964 77.7602 221.049 79.3195C223.011 79.4906 225.043 79.5969 227.127 79.6308C229.212 79.6648 231.246 79.6247 233.212 79.5176C234.348 77.9944 235.459 76.3808 236.531 74.6879C237.601 72.9965 238.579 71.3088 239.461 69.6435Z" fill="#0F172A" fill-opacity="0.2"/>
</g>
<path d="M227.301 75.0102C230.594 75.0638 233.304 72.5815 233.355 69.4657C233.406 66.3499 230.777 63.7806 227.484 63.727C224.191 63.6734 221.48 66.1557 221.43 69.2715C221.379 72.3873 224.007 74.9566 227.301 75.0102Z" fill="#0F172A"/>
<g filter="url(#filter4_b_318_12001)">
<rect x="488.962" y="355" width="84" height="84" rx="15" transform="rotate(0.656233 488.962 355)" fill="#0F172A" fill-opacity="0.1"/>
<rect x="488.468" y="354.494" width="85" height="85" rx="15.5" transform="rotate(0.656233 488.468 354.494)" stroke="#0F172A" stroke-opacity="0.2"/>
</g>
<path d="M516.573 392.218C516.564 393.006 516.642 393.645 516.786 394.115C516.95 394.585 517.157 395.098 517.449 395.655C517.554 395.827 517.594 395.998 517.592 396.146C517.59 396.359 517.46 396.571 517.181 396.78L515.83 397.659C515.637 397.784 515.444 397.846 515.274 397.844C515.061 397.842 514.85 397.733 514.639 397.539C514.345 397.216 514.093 396.873 513.884 396.53C513.675 396.165 513.467 395.759 513.239 395.266C511.556 397.206 509.459 398.161 506.947 398.132C505.16 398.112 503.739 397.584 502.708 396.551C501.677 395.517 501.16 394.149 501.18 392.446C501.201 390.637 501.856 389.176 503.167 388.084C504.478 386.992 506.208 386.458 508.401 386.483C509.124 386.492 509.869 386.564 510.655 386.679C511.441 386.795 512.248 386.974 513.097 387.176L513.115 385.622C513.134 384.004 512.806 382.872 512.154 382.205C511.48 381.537 510.334 381.205 508.696 381.186C507.951 381.178 507.183 381.254 506.394 381.437C505.604 381.619 504.835 381.844 504.087 382.134C503.744 382.279 503.488 382.361 503.339 382.402C503.189 382.443 503.082 382.463 502.997 382.462C502.699 382.459 502.553 382.244 502.558 381.797L502.57 380.754C502.574 380.414 502.619 380.159 502.727 380.011C502.835 379.863 503.029 379.716 503.328 379.571C504.078 379.196 504.975 378.887 506.021 378.644C507.067 378.379 508.176 378.264 509.346 378.277C511.879 378.306 513.724 378.902 514.903 380.065C516.06 381.228 516.636 382.98 516.61 385.321L516.531 392.218L516.573 392.218ZM507.895 395.354C508.597 395.362 509.322 395.243 510.091 394.996C510.86 394.75 511.547 394.289 512.129 393.657C512.474 393.257 512.735 392.813 512.868 392.303C513.002 391.794 513.094 391.178 513.102 390.454L513.112 389.56C512.497 389.404 511.839 389.269 511.158 389.176C510.478 389.083 509.819 389.033 509.159 389.025C507.733 389.009 506.687 389.274 505.978 389.84C505.269 390.407 504.919 391.212 504.907 392.276C504.896 393.276 505.143 394.024 505.669 394.541C506.174 395.079 506.916 395.343 507.895 395.354ZM524.96 397.849C524.577 397.844 524.322 397.778 524.153 397.627C523.984 397.497 523.839 397.197 523.716 396.791L518.902 380.281C518.78 379.854 518.719 379.577 518.721 379.428C518.725 379.087 518.897 378.898 519.238 378.901L521.323 378.925C521.728 378.93 522.004 378.997 522.151 379.148C522.32 379.277 522.444 379.577 522.567 379.983L525.982 394.114L529.463 380.062C529.575 379.637 529.706 379.362 529.877 379.236C530.049 379.11 530.348 379.029 530.731 379.033L532.434 379.053C532.838 379.057 533.114 379.124 533.283 379.275C533.452 379.405 533.597 379.705 533.678 380.11L536.877 394.409L540.723 380.191C540.855 379.766 541.008 379.491 541.158 379.365C541.33 379.24 541.607 379.158 541.99 379.162L543.97 379.185C544.31 379.189 544.5 379.361 544.496 379.723C544.495 379.829 544.472 379.936 544.449 380.063C544.427 380.19 544.382 380.36 544.294 380.593L538.976 396.987C538.844 397.412 538.692 397.687 538.52 397.812C538.348 397.938 538.071 398.02 537.709 398.016L535.878 397.995C535.474 397.99 535.198 397.923 535.029 397.772C534.861 397.622 534.715 397.343 534.635 396.916L531.493 383.15L528.058 396.82C527.947 397.244 527.816 397.52 527.644 397.667C527.472 397.814 527.173 397.874 526.79 397.87L524.96 397.849ZM552.303 398.737C551.197 398.724 550.091 398.584 549.03 398.316C547.969 398.048 547.142 397.762 546.592 397.437C546.254 397.241 546.022 397.026 545.939 396.833C545.856 396.641 545.816 396.427 545.818 396.236L545.831 395.15C545.836 394.703 546.008 394.492 546.328 394.496C546.455 394.497 546.583 394.52 546.71 394.564C546.837 394.608 547.028 394.696 547.24 394.783C547.96 395.111 548.744 395.375 549.573 395.555C550.422 395.735 551.251 395.83 552.102 395.839C553.443 395.855 554.489 395.632 555.218 395.173C555.947 394.713 556.338 394.036 556.348 393.163C556.355 392.567 556.169 392.075 555.79 391.667C555.412 391.258 554.692 390.888 553.653 390.535L550.578 389.542C549.03 389.035 547.889 388.298 547.197 387.332C546.506 386.388 546.156 385.34 546.169 384.234C546.179 383.34 546.379 382.554 546.77 381.878C547.161 381.201 547.679 380.611 548.323 380.15C548.967 379.668 549.695 379.314 550.549 379.069C551.403 378.823 552.298 378.727 553.235 378.737C553.703 378.743 554.193 378.77 554.66 378.839C555.149 378.908 555.595 378.999 556.041 379.089C556.465 379.2 556.868 379.311 557.25 379.443C557.632 379.575 557.928 379.707 558.14 379.837C558.436 380.01 558.647 380.183 558.772 380.376C558.898 380.548 558.959 380.783 558.956 381.081L558.944 382.081C558.939 382.528 558.766 382.76 558.447 382.757C558.277 382.755 558.001 382.666 557.641 382.492C556.434 381.925 555.075 381.632 553.564 381.615C552.351 381.601 551.391 381.782 550.726 382.178C550.062 382.575 549.714 383.189 549.704 384.061C549.697 384.657 549.904 385.171 550.325 385.58C550.746 385.989 551.529 386.403 552.653 386.777L555.665 387.77C557.192 388.277 558.291 388.971 558.94 389.851C559.59 390.731 559.898 391.735 559.885 392.842C559.875 393.757 559.674 394.585 559.304 395.304C558.912 396.024 558.394 396.656 557.728 397.16C557.062 397.684 556.271 398.058 555.352 398.325C554.391 398.612 553.389 398.749 552.303 398.737Z" fill="#0F172A"/>
<path d="M556.208 409.127C549.146 414.219 538.941 416.848 530.193 416.748C517.933 416.607 506.939 411.947 498.681 404.317C498.028 403.713 498.634 402.911 499.416 403.389C508.38 408.728 519.476 412.027 530.991 412.159C538.759 412.248 547.313 410.728 555.205 407.497C556.382 406.979 557.367 408.289 556.208 409.127ZM559.162 405.84C558.281 404.68 553.251 405.219 550.971 405.469C550.289 405.547 550.189 404.949 550.811 404.51C554.845 401.746 561.413 402.63 562.168 403.575C562.923 404.542 561.869 411.107 558.087 414.215C557.507 414.698 556.956 414.436 557.219 413.8C558.094 411.703 560.043 406.978 559.162 405.84Z" fill="#0F172A"/>
<g filter="url(#filter5_b_318_12001)">
<rect x="270" y="177" width="84" height="84" rx="15" fill="#0F172A" fill-opacity="0.1"/>
<rect x="269.5" y="176.5" width="85" height="85" rx="15.5" stroke="#0F172A" stroke-opacity="0.2"/>
</g>
<path d="M290.533 228.795L296.84 188.228C296.886 187.928 297.025 187.649 297.238 187.432C297.452 187.215 297.728 187.071 298.028 187.02C298.328 186.97 298.636 187.015 298.909 187.149C299.181 187.284 299.405 187.501 299.547 187.77L306.329 200.493L290.533 228.795ZM335.321 238.638L329.316 201.306C329.272 201.044 329.156 200.8 328.983 200.599C328.809 200.399 328.584 200.25 328.331 200.168C328.078 200.087 327.808 200.077 327.55 200.139C327.292 200.201 327.056 200.332 326.868 200.519L289 238.638L309.953 250.446C310.599 250.809 311.328 251 312.069 251C312.81 251 313.539 250.809 314.185 250.446L335.321 238.638ZM318.294 206.061L313.441 196.775C313.318 196.542 313.134 196.346 312.909 196.21C312.683 196.073 312.424 196.001 312.161 196.001C311.897 196.001 311.638 196.073 311.413 196.21C311.187 196.346 311.003 196.542 310.881 196.775L289.573 234.958L318.294 206.061Z" fill="#0F172A"/>
<g filter="url(#filter6_b_318_12001)">
<rect x="430.161" y="231.161" width="84" height="84" rx="15" fill="#0F172A" fill-opacity="0.1"/>
<rect x="429.661" y="230.661" width="85" height="85" rx="15.5" stroke="#0F172A" stroke-opacity="0.2"/>
</g>
<g clip-path="url(#clip0_318_12001)">
<path d="M440.119 294.657C440.231 296.071 440.727 297.493 442.025 299.402C443.567 301.669 446.221 302.917 448.163 300.926C449.472 299.582 463.664 274.886 470.498 265.529C470.685 265.261 470.935 265.043 471.225 264.892C471.515 264.742 471.837 264.663 472.163 264.664C472.49 264.665 472.812 264.744 473.101 264.896C473.391 265.047 473.639 265.267 473.826 265.535C480.624 274.919 494.72 299.668 496.024 301.018C497.959 303.016 500.618 301.778 502.169 299.517C503.693 297.294 504.117 295.734 504.12 294.065C504.123 292.929 482.175 251.895 479.963 248.477C477.835 245.193 477.186 244.477 473.578 244.353L470.826 244.348C467.218 244.458 466.566 245.169 464.424 248.448C462.247 251.785 441.006 291.123 440.121 293.82L440.119 294.657Z" fill="#0F172A"/>
</g>
<g filter="url(#filter7_b_318_12001)">
<path d="M389.895 324H323.105C318.629 324 315 327.629 315 332.105V398.895C315 403.371 318.629 407 323.105 407H389.895C394.371 407 398 403.371 398 398.895V332.105C398 327.629 394.371 324 389.895 324Z" fill="#0F172A" fill-opacity="0.1"/>
<path d="M389.895 323.5H323.105C318.353 323.5 314.5 327.353 314.5 332.105V398.895C314.5 403.647 318.353 407.5 323.105 407.5H389.895C394.647 407.5 398.5 403.647 398.5 398.895V332.105C398.5 327.353 394.647 323.5 389.895 323.5Z" stroke="#0F172A" stroke-opacity="0.2"/>
</g>
<path fill-rule="evenodd" clip-rule="evenodd" d="M366.075 390.096V398.201C367.388 398.882 368.993 399.385 370.776 399.725C372.56 400.065 374.505 400.227 376.45 400.227C378.396 400.227 380.179 400.049 381.962 399.676C383.745 399.303 385.204 398.687 386.501 397.893C387.814 397.034 388.933 395.948 389.581 394.489C390.229 393.03 390.732 391.409 390.732 389.301C390.732 387.826 390.505 386.545 390.067 385.411C389.63 384.276 388.997 383.303 388.122 382.493C387.295 381.634 386.339 380.872 385.204 380.223C384.069 379.575 382.772 378.894 381.313 378.278C380.244 377.84 379.368 377.419 378.396 376.997C377.553 376.576 376.823 376.154 376.288 375.733C375.688 375.295 375.234 374.841 374.91 374.371C374.586 373.885 374.424 373.35 374.424 372.75C374.424 372.199 374.568 371.696 374.862 371.242C375.155 370.788 375.559 370.416 376.077 370.091C376.596 369.767 377.245 369.524 378.023 369.346C378.785 369.167 379.628 369.086 380.616 369.086C381.297 369.086 382.011 369.137 382.724 369.239C383.47 369.341 384.231 369.498 384.993 369.709C385.755 369.92 386.501 370.179 387.263 370.503C387.976 370.827 388.641 371.2 389.208 371.622V364.003C387.976 363.532 386.614 363.176 385.155 362.949C383.696 362.722 382.075 362.608 380.13 362.608C378.185 362.608 376.402 362.819 374.618 363.224C372.835 363.63 371.376 364.278 370.079 365.17C368.766 366.045 367.81 367.115 366.999 368.574C366.237 369.936 365.864 371.492 365.864 373.437C365.864 375.869 366.562 377.976 367.972 379.597C369.366 381.381 371.538 382.678 374.294 383.974C375.413 384.428 376.402 384.882 377.374 385.32C378.347 385.758 379.157 386.212 379.806 386.682C380.503 387.152 381.054 387.671 381.427 388.222C381.832 388.773 382.043 389.421 382.043 390.167C382.043 390.686 381.917 391.172 381.67 391.626C381.424 392.08 381.038 392.469 380.519 392.793C380 393.117 379.368 393.377 378.574 393.571C377.812 393.75 376.953 393.847 375.818 393.847C374.035 393.847 372.252 393.539 370.63 392.923C368.847 392.307 367.226 391.383 365.767 390.167L366.075 390.096ZM352.458 370.156H362.833V363.51H333.815V370.156H344.19V399.822H352.458V370.156Z" fill="#0F172A"/>
<g filter="url(#filter8_b_318_12001)">
<rect x="347" y="470" width="84" height="84" rx="15" fill="#0F172A" fill-opacity="0.1"/>
<rect x="346.5" y="469.5" width="85" height="85" rx="15.5" stroke="#0F172A" stroke-opacity="0.2"/>
</g>
<g clip-path="url(#clip1_318_12001)">
<path d="M389.082 483.719C373.016 483.719 360 496.746 360 512.801C360 525.657 368.332 536.554 379.879 540.398C381.339 540.673 381.866 539.773 381.866 538.995C381.866 538.304 381.85 536.478 381.839 534.053C373.745 535.805 372.04 530.143 372.04 530.143C370.715 526.791 368.803 525.892 368.803 525.892C366.171 524.094 369.012 524.132 369.012 524.132C371.927 524.33 373.461 527.122 373.461 527.122C376.055 531.572 380.267 530.285 381.933 529.536C382.188 527.662 382.946 526.373 383.771 525.655C377.315 524.927 370.526 522.427 370.526 511.283C370.526 508.101 371.653 505.509 373.516 503.473C373.194 502.744 372.209 499.781 373.772 495.775C373.772 495.775 376.206 494.999 381.77 498.758C384.098 498.113 386.57 497.791 389.04 497.775C391.512 497.791 393.982 498.115 396.311 498.758C401.842 494.999 404.274 495.775 404.274 495.775C405.835 499.781 404.85 502.742 404.566 503.473C406.411 505.509 407.538 508.103 407.538 511.283C407.538 522.453 400.74 524.916 394.277 525.626C395.287 526.497 396.234 528.287 396.234 531.005C396.234 534.894 396.198 538.028 396.198 538.975C396.198 539.731 396.707 540.64 398.205 540.347C409.838 536.543 418.16 525.637 418.16 512.799C418.16 496.744 405.144 483.717 389.078 483.717L389.082 483.719Z" fill="#0F172A"/>
</g>
<g filter="url(#filter9_b_318_12001)">
<rect x="184" y="444" width="84" height="84" rx="15" fill="#0F172A" fill-opacity="0.1"/>
<rect x="183.5" y="443.5" width="85" height="85" rx="15.5" stroke="#0F172A" stroke-opacity="0.2"/>
</g>
<path d="M252.692 467.995L227.947 512.243C227.436 513.157 226.123 513.162 225.605 512.253L200.369 467.999C199.804 467.009 200.652 465.809 201.774 466.01L226.546 470.437C226.704 470.465 226.865 470.465 227.023 470.436L251.277 466.016C252.395 465.812 253.247 467.003 252.692 467.995V467.995Z" fill="url(#paint2_linear_318_12001)"/>
<path d="M238.345 460.202L220.034 463.79C219.887 463.819 219.755 463.895 219.657 464.008C219.559 464.12 219.501 464.261 219.492 464.41L218.365 483.435C218.359 483.539 218.377 483.643 218.419 483.739C218.46 483.836 218.523 483.921 218.603 483.988C218.682 484.056 218.777 484.104 218.879 484.128C218.98 484.153 219.086 484.153 219.188 484.13L224.286 482.953C224.763 482.843 225.194 483.263 225.096 483.743L223.581 491.16C223.48 491.659 223.948 492.086 224.436 491.938L227.585 490.981C228.073 490.833 228.542 491.261 228.439 491.761L226.032 503.412C225.881 504.14 226.85 504.538 227.254 503.913L227.525 503.496L242.446 473.717C242.696 473.219 242.265 472.65 241.718 472.756L236.469 473.769C235.976 473.864 235.557 473.404 235.696 472.922L239.121 461.048C239.261 460.565 238.839 460.105 238.346 460.202H238.345Z" fill="url(#paint3_linear_318_12001)"/>
<g filter="url(#filter10_b_318_12001)">
<rect x="157" y="271" width="84" height="84" rx="15" fill="#0F172A" fill-opacity="0.1"/>
<rect x="156.5" y="270.5" width="85" height="85" rx="15.5" stroke="#0F172A" stroke-opacity="0.2"/>
</g>
<path d="M212.786 313.263V313.319V313.394V313.45V313.506L212.804 313.581V313.637V313.693L212.823 313.768V313.824L212.842 313.88L212.861 313.955V314.011L212.879 314.086L212.898 314.142L212.917 314.217V314.292L212.935 314.348L212.954 314.423L212.973 314.497L212.991 314.554L213.029 314.628L213.048 314.703L213.066 314.778L213.085 314.853L213.104 314.928L213.141 315.002L213.16 315.096L213.178 315.171L213.216 315.246L213.235 315.32L213.272 315.414L213.291 315.489L213.328 315.582L213.347 315.676L213.384 315.769L213.422 315.844L213.44 315.938L213.478 316.031L213.515 316.125L213.534 316.237L213.571 316.33L213.59 316.424L213.627 316.536L213.665 316.63L213.683 316.742L213.721 316.854L213.758 316.948L213.777 317.06L213.814 317.172L213.852 317.284L213.87 317.415L213.908 317.527L213.927 317.64L213.964 317.77L213.983 317.883L214.02 318.014L214.039 318.145L214.057 318.275L214.095 318.406L214.114 318.537L214.132 318.668L214.151 318.818L214.188 318.949L214.207 319.098L214.226 319.229L214.245 319.379V319.529L214.263 319.678L214.282 319.828L214.301 319.977V320.127L214.319 320.277V320.445V320.595L214.338 320.763V320.931V321.081V321.249L214.319 321.418V321.586V321.754L214.301 321.941V322.11L214.282 322.278L214.263 322.465L214.245 322.652L214.226 322.82L214.207 323.007L214.188 323.194L214.151 323.381L214.114 323.55L214.095 323.737L214.057 323.942L214.02 324.129L213.983 324.316L213.927 324.503L213.889 324.691L213.833 324.896L213.777 325.083L213.721 325.289L213.665 325.476L213.609 325.682L213.534 325.869L213.478 326.075L213.403 326.28L213.328 326.467L213.253 326.673L213.178 326.879L213.085 327.066L213.01 327.271L212.917 327.477L212.823 327.683L212.73 327.87L212.617 328.076L212.524 328.281L212.412 328.487L212.299 328.693L212.187 328.88L212.075 329.086L211.944 329.291L211.832 329.497L211.701 329.684L211.57 329.89L211.439 330.096L211.289 330.283L211.159 330.488L211.009 330.675L210.859 330.881L210.71 331.068L210.541 331.274L210.392 331.461L210.223 331.648L210.055 331.835L209.887 332.022L209.718 332.228L209.531 332.396L209.363 332.583L209.176 332.77L208.989 332.957L208.783 333.125L208.596 333.312L208.391 333.481L208.185 333.668L207.979 333.836L207.773 334.004L207.568 334.173L207.343 334.341L207.119 334.491L206.913 334.659L206.67 334.809L206.445 334.977L206.221 335.127L205.978 335.276L205.735 335.426L205.492 335.576L205.248 335.706L205.005 335.856L204.744 335.987L204.5 336.118L204.239 336.249L203.977 336.38L203.715 336.492L203.453 336.623L203.191 336.735L202.911 336.847L202.63 336.96L202.368 337.053L202.088 337.165L201.807 337.259L201.508 337.352L201.227 337.446L200.947 337.521L200.648 337.614L200.348 337.689L200.068 337.764L199.769 337.839L199.469 337.895L199.17 337.969L198.871 338.026L198.553 338.082L198.254 338.119L197.936 338.175L197.636 338.213L197.318 338.25L197.019 338.287L196.701 338.306L196.383 338.325L196.065 338.344L195.747 338.362H195.43L195.112 338.381H194.794L194.476 338.362H194.158L193.821 338.344L193.503 338.325L193.185 338.306L192.849 338.269L192.531 338.231L192.213 338.194L191.876 338.157L191.558 338.1L191.24 338.044L190.903 337.988L190.585 337.932L190.268 337.857L189.95 337.782L189.613 337.708L189.295 337.633L188.977 337.539L188.659 337.446L188.341 337.352L188.023 337.24L187.705 337.147L187.387 337.034L187.069 336.903L186.751 336.791L186.433 336.66L186.134 336.529L185.816 336.398L185.517 336.249L185.199 336.099L184.9 335.95L184.601 335.8L184.301 335.632L184.002 335.463L183.703 335.295L183.404 335.127L183.104 334.94L182.824 334.753L182.525 334.566L182.244 334.379L181.963 334.173L181.683 333.986L181.402 333.78L181.141 333.556L180.86 333.35L180.598 333.125L180.336 332.901L180.075 332.677L179.813 332.452L179.551 332.209L179.308 331.966L179.046 331.723L178.803 331.48L178.56 331.236L178.335 330.975L178.092 330.713L177.868 330.451L177.643 330.189L177.419 329.927L177.194 329.647L176.989 329.385L176.764 329.104L176.558 328.824L176.353 328.525L176.166 328.244L175.979 327.945L175.773 327.664L175.586 327.365L175.418 327.066L175.23 326.767L175.062 326.449L174.894 326.149L174.744 325.831L174.576 325.532L174.426 325.214L174.277 324.896L174.127 324.578L173.996 324.26L173.865 323.942L173.734 323.606L173.603 323.288L173.491 322.951L173.379 322.633L173.267 322.297L173.154 321.96L173.061 321.623L172.967 321.287L172.874 320.95L172.799 320.613L172.706 320.277L172.65 319.94L172.575 319.603L172.5 319.267L172.444 318.93L172.388 318.575L172.35 318.238L172.313 317.901L172.275 317.546L172.238 317.209L172.201 316.873L172.182 316.517L172.163 316.181V315.844L172.145 315.489V315.152V314.815L172.163 314.46V314.123L172.182 313.787L172.219 313.45L172.238 313.113L172.275 312.777L172.313 312.44L172.35 312.104L172.406 311.767L172.462 311.43L172.519 311.094L172.575 310.776L172.65 310.439L172.724 310.121L172.799 309.784L172.874 309.466L172.967 309.148L173.061 308.831L173.154 308.513L173.248 308.195L173.36 307.877L173.454 307.559L173.566 307.259L173.697 306.96L173.809 306.642L173.94 306.343L174.071 306.044L174.202 305.745L174.333 305.464L174.482 305.165L174.632 304.884L174.782 304.585L174.931 304.304L175.1 304.024L175.249 303.762L175.418 303.482L175.586 303.22L175.754 302.939L175.922 302.677L176.11 302.415L176.297 302.172L176.484 301.91L176.671 301.667L176.858 301.424L177.045 301.181L177.25 300.938L177.456 300.695L177.643 300.47L177.849 300.246L178.073 300.022L178.279 299.797L178.485 299.573L178.709 299.367L178.915 299.161L179.139 298.955L179.364 298.75L179.588 298.544L179.813 298.357L180.037 298.17L180.28 297.983L180.505 297.796L180.748 297.628L180.972 297.459L181.215 297.291L181.459 297.123L181.702 296.954L181.926 296.805L182.169 296.655L182.412 296.505L182.674 296.356L182.917 296.225L183.16 296.075L183.404 295.944L183.647 295.832L183.909 295.701L184.152 295.589L184.395 295.458L184.657 295.346L184.9 295.252L185.162 295.14L185.405 295.047L185.667 294.953L185.91 294.86L186.172 294.766L186.415 294.691L186.658 294.616L186.92 294.542L187.163 294.467L187.425 294.392L187.668 294.336L187.911 294.28L188.173 294.224L188.416 294.168L188.659 294.111L188.921 294.074L189.164 294.037L189.407 293.999L189.65 293.962L189.893 293.924L190.137 293.906L190.38 293.887L190.623 293.868L190.866 293.85L191.09 293.831H191.334L191.577 293.812H191.801H192.044L192.269 293.831H192.493H192.718L192.942 293.85L193.166 293.868L193.391 293.887L193.615 293.906L193.84 293.924L194.046 293.962L194.27 293.981L194.476 294.018L194.7 294.055L194.906 294.093L195.112 294.13L195.317 294.168L195.523 294.224L195.71 294.261L195.916 294.317L196.103 294.355L196.309 294.411L196.496 294.467L196.683 294.523L196.87 294.579L197.057 294.654L197.244 294.71L197.412 294.766L197.599 294.841L197.767 294.897L197.936 294.972L198.104 295.047L198.272 295.121L198.441 295.196L198.609 295.271L198.777 295.346L198.927 295.421L199.077 295.495L199.245 295.57L199.395 295.645L199.544 295.739L199.675 295.813L199.825 295.888L199.974 295.982L200.105 296.057L200.236 296.15L200.386 296.225L200.517 296.318L200.629 296.412L200.76 296.487L200.891 296.58L201.003 296.655L201.134 296.749L201.246 296.842L201.358 296.917L201.471 297.01L201.583 297.104L201.695 297.179L201.807 297.272L201.901 297.366L202.013 297.441L202.106 297.534L202.219 297.628L202.312 297.702L202.406 297.796L202.499 297.889L202.593 297.964L202.667 298.058L202.761 298.133L202.855 298.226L202.929 298.301L203.004 298.376L203.098 298.469L203.172 298.544L203.247 298.619L203.322 298.712L203.397 298.787L203.472 298.862L203.547 298.937L203.603 299.012L203.677 299.086L203.734 299.161L203.808 299.236L203.864 299.311L203.939 299.367L203.995 299.442L204.051 299.517L204.108 299.573L204.182 299.647L204.239 299.722L204.295 299.778L204.351 299.834L204.407 299.909L204.463 299.965L204.519 300.022L204.556 300.078L204.613 300.134L204.669 300.19L204.725 300.246L204.781 300.302L204.818 300.358L204.874 300.414L204.931 300.452L204.987 300.508L205.024 300.545L205.08 300.601L205.136 300.639L205.174 300.695L205.23 300.732L205.286 300.77L205.323 300.807L205.379 300.844L205.436 300.882L205.473 300.919L205.529 300.957L205.585 300.994L205.641 301.031L205.679 301.069L205.735 301.088L205.791 301.125L205.847 301.162L205.903 301.181L205.959 301.218L206.015 301.237L206.071 301.275L206.128 301.293L206.184 301.312L206.24 301.349L206.296 301.368L206.371 301.387L206.427 301.406L206.483 301.424L206.558 301.462L206.614 301.48L206.689 301.499L206.745 301.518L206.82 301.536L206.894 301.555L206.969 301.574L207.025 301.593L207.1 301.611L207.175 301.63L207.25 301.649H207.324L207.418 301.667L207.493 301.686L207.568 301.705L207.661 301.723L207.736 301.742L207.829 301.761L207.904 301.78L207.998 301.798L208.091 301.817L208.185 301.836L208.278 301.854L208.372 301.873L208.465 301.892L208.559 301.91L208.652 301.929L208.765 301.948L208.858 301.985L208.97 302.004L209.064 302.023L209.176 302.06L209.27 302.079L209.382 302.098L209.494 302.135L209.606 302.172L209.718 302.191L209.831 302.228L209.962 302.266L210.074 302.285L210.186 302.322L210.317 302.359L210.429 302.397L210.56 302.453L210.672 302.49L210.803 302.528L210.934 302.584L211.065 302.621L211.177 302.677L211.308 302.715L211.439 302.771L211.57 302.827L211.72 302.883L211.851 302.939L211.981 302.995L212.112 303.07L212.262 303.126L212.393 303.201L212.524 303.257L212.673 303.332L212.804 303.407L212.954 303.482L213.104 303.556L213.235 303.631L213.384 303.725L213.515 303.799L213.665 303.893L213.814 303.987L213.964 304.08L214.095 304.174L214.245 304.267L214.394 304.379L214.544 304.473L214.693 304.585L214.824 304.697L214.974 304.809L215.124 304.922L215.273 305.034L215.423 305.146L215.554 305.277L215.703 305.408L215.853 305.539L216.003 305.67L216.134 305.801L216.283 305.932L216.433 306.081L216.564 306.231L216.713 306.362L216.844 306.511L216.994 306.68L217.125 306.829L217.274 306.979L217.405 307.147L217.536 307.316L217.667 307.484L217.798 307.652L217.929 307.821L218.06 308.008L218.191 308.176L218.322 308.363L218.453 308.55L218.584 308.737L218.696 308.924L218.827 309.13L218.939 309.317L219.051 309.523L219.163 309.728L219.276 309.934L219.388 310.14L219.5 310.345L219.612 310.57L219.706 310.794L219.818 311L219.911 311.224L220.005 311.449L220.098 311.692L220.192 311.916L220.286 312.141L220.36 312.384L220.454 312.627L220.529 312.87L220.603 313.113L220.678 313.357L220.753 313.6L220.828 313.843L220.884 314.105L220.94 314.367L220.996 314.61L221.052 314.872L221.108 315.133L221.165 315.395L221.202 315.657L221.239 315.938L221.277 316.199L221.314 316.461L221.352 316.742L221.37 317.022L221.389 317.284L221.408 317.565L221.426 317.845L221.445 318.126V318.406V318.687V318.967V319.267L221.426 319.547L221.408 319.828L221.389 320.127L221.37 320.408L221.352 320.707L221.314 320.987L221.277 321.287L221.239 321.567L221.202 321.866L221.146 322.166L221.09 322.446L221.034 322.745L220.978 323.045L220.903 323.325L220.828 323.624L220.753 323.924L220.678 324.204L220.603 324.503L220.51 324.803L220.416 325.083L220.323 325.383L220.211 325.663L220.098 325.962L219.986 326.243L219.874 326.542L219.762 326.823L219.631 327.122L219.5 327.402L219.369 327.683L219.219 327.963L219.07 328.244L218.939 328.525L218.771 328.805L218.621 329.086L218.453 329.366L218.284 329.647L218.116 329.909L217.948 330.189L217.761 330.451L217.574 330.713L217.387 330.993L217.2 331.255L216.994 331.498L216.807 331.76L216.601 332.022L216.377 332.265L216.171 332.527L215.946 332.77L215.722 333.013L215.498 333.256L215.273 333.5L215.03 333.743L214.787 333.967L214.562 334.192L214.301 334.416L214.057 334.64L213.796 334.865L213.553 335.089L213.291 335.295L213.029 335.501L212.748 335.706L212.486 335.912L212.206 336.118L211.925 336.305L211.645 336.492L211.364 336.679L211.065 336.866L210.785 337.053L210.485 337.221L210.186 337.39L209.887 337.558L209.588 337.726L209.288 337.876L208.97 338.026L208.671 338.175L208.353 338.325L208.035 338.456L207.717 338.605L207.399 338.718L207.081 338.849L206.745 338.979L206.427 339.092L206.09 339.204L205.772 339.316L205.436 339.41L205.099 339.503L204.762 339.597L204.426 339.69L204.089 339.765L203.752 339.84L203.416 339.915L203.06 339.989L202.724 340.045L202.387 340.102L202.032 340.158L201.695 340.195L201.34 340.233L200.984 340.27L200.648 340.307L200.292 340.326L199.956 340.345L199.6 340.363L199.245 340.382H198.89H198.553H198.198L197.842 340.363L197.506 340.345L197.15 340.326L196.795 340.307L196.458 340.27L196.103 340.233L195.766 340.195L195.411 340.139L195.074 340.083L194.719 340.027L194.382 339.971L194.046 339.896L193.69 339.821L193.353 339.746L193.017 339.671L192.68 339.578L192.344 339.484L192.007 339.391L191.689 339.279L191.352 339.185L191.034 339.073L190.698 338.942L190.38 338.83L190.062 338.699L189.725 338.568L189.426 338.437L189.108 338.287L188.79 338.157L188.472 338.007L188.173 337.839L187.874 337.689L187.556 337.521L187.256 337.352L186.976 337.184L186.677 337.016L186.377 336.829L186.097 336.642L185.816 336.455L185.536 336.268L185.255 336.081L184.975 335.875L184.713 335.669L184.451 335.463L184.17 335.258L183.927 335.033L183.665 334.827L183.404 334.603L183.16 334.379L182.917 334.154L182.674 333.911L182.431 333.687L182.207 333.443L181.963 333.2L181.739 332.976L181.515 332.714L181.309 332.471L181.084 332.228L180.879 331.966L180.673 331.704L180.486 331.461L180.28 331.199L180.093 330.937L179.906 330.657L179.719 330.395L179.532 330.133L179.364 329.852L179.195 329.591L179.027 329.31L178.859 329.03L178.709 328.749L178.56 328.468L178.41 328.188L178.26 327.907L178.129 327.627L177.999 327.346L177.868 327.047L177.737 326.767L177.624 326.486L177.494 326.187L177.4 325.906L177.288 325.607L177.176 325.326L177.082 325.027L176.989 324.728L176.895 324.447L176.82 324.148L176.745 323.849L176.671 323.568L176.596 323.269L176.54 322.97L176.465 322.689L176.409 322.39L176.353 322.091L176.315 321.81L176.278 321.511L176.222 321.23L176.203 320.931L176.166 320.651L176.147 320.351L176.11 320.071V319.772L176.091 319.491L176.072 319.211V318.911V318.631V318.35L176.091 318.07V317.789L176.11 317.509L176.128 317.228L176.147 316.966L176.184 316.686L176.203 316.424L176.24 316.143L176.278 315.881L176.315 315.601L176.371 315.339L176.409 315.077L176.465 314.815L176.521 314.554L176.577 314.31L176.652 314.049L176.708 313.805L176.783 313.544L176.858 313.3L176.932 313.057L177.007 312.814L177.082 312.571L177.176 312.328L177.25 312.104L177.344 311.86L177.437 311.636L177.531 311.412L177.624 311.187L177.718 310.963L177.83 310.738L177.924 310.532L178.036 310.308L178.148 310.102L178.26 309.897L178.373 309.691L178.485 309.485L178.597 309.279L178.728 309.092L178.84 308.887L178.971 308.7L179.102 308.513L179.214 308.326L179.345 308.139L179.476 307.97L179.607 307.783L179.738 307.615L179.869 307.447L180 307.278L180.149 307.11L180.28 306.96L180.411 306.792L180.561 306.642L180.692 306.493L180.841 306.343L180.972 306.193L181.122 306.044L181.271 305.913L181.402 305.763L181.552 305.632L181.702 305.501L181.833 305.371L181.982 305.258L182.132 305.127L182.281 305.015L182.431 304.903L182.562 304.772L182.712 304.66L182.861 304.566L183.011 304.454L183.16 304.361L183.291 304.248L183.441 304.155L183.591 304.061L183.74 303.968L183.871 303.874L184.021 303.781L184.17 303.706L184.301 303.631L184.451 303.538L184.601 303.463L184.732 303.388L184.881 303.313L185.012 303.238L185.162 303.182L185.293 303.107L185.424 303.051L185.573 302.995L185.704 302.92L185.835 302.864L185.966 302.808L186.097 302.771L186.228 302.715L186.359 302.659L186.49 302.621L186.62 302.565L186.733 302.528L186.864 302.472L186.995 302.434L187.107 302.397L187.238 302.359L187.35 302.322L187.462 302.285L187.593 302.247L187.705 302.228L187.817 302.191L187.93 302.154L188.042 302.135L188.154 302.098L188.266 302.079L188.36 302.041L188.472 302.023L188.584 302.004L188.678 301.967L188.79 301.948L188.884 301.929L188.977 301.91L189.071 301.892L189.164 301.873L189.258 301.854L189.351 301.836L189.445 301.817L189.538 301.798L189.632 301.78L189.706 301.761L189.8 301.742L189.875 301.723L189.968 301.705L190.043 301.686L190.118 301.667L190.193 301.649L190.268 301.63L190.361 301.611L190.417 301.593H190.492L190.567 301.574L190.642 301.555L190.716 301.536L190.773 301.518L190.847 301.499L190.903 301.462L190.978 301.443L191.034 301.424L191.109 301.406L191.165 301.387L191.221 301.368L191.277 301.331L191.352 301.312L191.408 301.293L191.465 301.256L191.521 301.237L191.577 301.218L191.633 301.181L191.689 301.144L191.726 301.125L191.782 301.088L191.839 301.05L191.895 301.031L191.951 300.994L191.988 300.957L192.044 300.919L192.1 300.882L192.157 300.844L192.194 300.807L192.25 300.77L192.306 300.714L192.344 300.676L192.4 300.639L192.456 300.583L192.493 300.545L192.549 300.489L192.605 300.452L192.643 300.396L192.699 300.339L192.755 300.283L192.811 300.246L192.849 300.19L192.905 300.134L192.961 300.078L193.017 300.003L193.073 299.947L193.129 299.891L193.185 299.834L193.241 299.76L193.297 299.704L193.353 299.629L193.41 299.573L193.466 299.498L193.541 299.423L193.597 299.367L193.653 299.292L193.728 299.217L193.784 299.142L193.858 299.068L193.933 298.993L193.989 298.918L194.064 298.843L194.139 298.768L194.214 298.694L194.289 298.6L194.363 298.525L194.438 298.45L194.532 298.357L194.607 298.282L194.681 298.207L194.775 298.114L194.868 298.039L194.943 297.946L195.037 297.871L195.13 297.777L195.224 297.684L195.317 297.609L195.43 297.515L195.523 297.441L195.635 297.347L195.729 297.254L195.841 297.179L195.953 297.085L196.065 296.992L196.178 296.917L196.29 296.823L196.402 296.73L196.533 296.655L196.645 296.561L196.776 296.468L196.907 296.393L197.038 296.3L197.169 296.206L197.3 296.131L197.431 296.038L197.58 295.963L197.711 295.888L197.861 295.795L198.01 295.72L198.16 295.626L198.31 295.552L198.459 295.477L198.628 295.402L198.777 295.327L198.946 295.252L199.114 295.177L199.264 295.103L199.432 295.028L199.619 294.953L199.787 294.897L199.956 294.822L200.143 294.766L200.311 294.691L200.498 294.635L200.685 294.579L200.872 294.523L201.059 294.467L201.246 294.411L201.452 294.355L201.639 294.298L201.845 294.261L202.05 294.205L202.256 294.168L202.443 294.13L202.667 294.074L202.873 294.037L203.079 294.018L203.285 293.981L203.509 293.943L203.734 293.924L203.939 293.906L204.164 293.887L204.388 293.868L204.613 293.85L204.837 293.831H205.061L205.305 293.812H205.529H205.753L205.997 293.831H206.24H206.464L206.707 293.85L206.95 293.868L207.194 293.887L207.437 293.906L207.68 293.943L207.923 293.962L208.166 293.999L208.409 294.037L208.652 294.074L208.896 294.13L209.157 294.168L209.4 294.224L209.644 294.28L209.905 294.355L210.149 294.411L210.392 294.485L210.654 294.542L210.897 294.616L211.159 294.71L211.402 294.785L211.664 294.878L211.907 294.972L212.169 295.065L212.412 295.159L212.673 295.271L212.917 295.383L213.16 295.495L213.422 295.608L213.665 295.72L213.908 295.851L214.17 295.982L214.413 296.113L214.656 296.244L214.899 296.393L215.142 296.524L215.385 296.674L215.629 296.842L215.872 296.992L216.115 297.16L216.358 297.328L216.582 297.497L216.826 297.665L217.05 297.833L217.293 298.02L217.518 298.207L217.742 298.394L217.966 298.6L218.191 298.787L218.415 298.993L218.64 299.199L218.864 299.404L219.07 299.629L219.276 299.834L219.5 300.059L219.706 300.283L219.911 300.508L220.117 300.751L220.304 300.975L220.51 301.218L220.697 301.462L220.884 301.705L221.071 301.967L221.258 302.21L221.445 302.472L221.613 302.733L221.8 302.995L221.969 303.276L222.137 303.538L222.305 303.818L222.455 304.08L222.623 304.361L222.773 304.66L222.923 304.94L223.054 305.221L223.203 305.52L223.334 305.819L223.484 306.1L223.596 306.399L223.727 306.717L223.858 307.016L223.97 307.316L224.082 307.634L224.194 307.951L224.288 308.251L224.381 308.569L224.475 308.887L224.568 309.205L224.662 309.541L224.737 309.859L224.812 310.177L224.886 310.514L224.961 310.832L225.017 311.168L225.073 311.505L225.13 311.842L225.167 312.16L225.204 312.496L225.242 312.833L225.279 313.17L225.317 313.525L225.335 313.862L225.354 314.198V314.535L225.373 314.872V315.227V315.564L225.354 315.9V316.256L225.335 316.592L225.298 316.929L225.279 317.284L225.242 317.621L225.204 317.957L225.167 318.313L225.111 318.649L225.055 318.986L224.999 319.342L224.924 319.678L224.868 320.015L224.793 320.351L224.699 320.688L224.625 321.025L224.531 321.361L224.438 321.698L224.344 322.035L224.232 322.371L224.12 322.689L224.007 323.026L223.876 323.344L223.764 323.681L223.633 323.998L223.502 324.316L223.353 324.653L223.203 324.971L223.054 325.27L222.904 325.588L222.754 325.906L222.586 326.205L222.418 326.523L222.249 326.823L222.062 327.122L221.894 327.421L221.707 327.72L221.501 328.02L221.314 328.3L221.108 328.599L220.903 328.88L220.697 329.16L220.491 329.441L220.286 329.703L220.061 329.983L219.837 330.245L219.612 330.507L219.369 330.769L219.145 331.031L218.902 331.293L218.658 331.536L218.415 331.779L218.172 332.022L217.91 332.265L217.648 332.49L217.387 332.733L217.125 332.957L216.863 333.182L216.601 333.387L216.321 333.612L216.059 333.817L215.778 334.023L215.498 334.229L215.217 334.416L214.918 334.603L214.637 334.79L214.338 334.977L214.057 335.164L213.758 335.332L213.459 335.501L213.16 335.669L212.861 335.819L212.561 335.987L212.243 336.137L211.944 336.268L211.645 336.417L211.327 336.548L211.009 336.679L210.71 336.81L210.392 336.941L210.074 337.053L209.756 337.165L209.438 337.259L209.12 337.371L208.802 337.465L208.484 337.558L208.147 337.652L207.829 337.726L207.512 337.801L207.194 337.876L206.857 337.951L206.539 338.007L206.221 338.063L205.884 338.119L205.566 338.157L205.248 338.213L204.912 338.25L204.594 338.287L204.276 338.306L203.939 338.325L203.621 338.344L203.303 338.362H202.985L202.667 338.381H202.35L202.013 338.362H201.695L201.396 338.344L201.078 338.325L200.76 338.306L200.442 338.269L200.124 338.25L199.825 338.213L199.507 338.157L199.207 338.119L198.89 338.063L198.59 338.007L198.291 337.951L197.992 337.895L197.693 337.82L197.393 337.745L197.094 337.67L196.814 337.595L196.514 337.521L196.234 337.427L195.934 337.334L195.654 337.24L195.373 337.147L195.093 337.034L194.831 336.922L194.55 336.829L194.289 336.716L194.008 336.585L193.746 336.473L193.484 336.342L193.223 336.211L192.961 336.081L192.718 335.95L192.456 335.819L192.213 335.688L191.969 335.538L191.726 335.388L191.483 335.239L191.259 335.089L191.016 334.94L190.791 334.79L190.567 334.622L190.342 334.472L190.118 334.304L189.912 334.135L189.706 333.967L189.482 333.799L189.276 333.63L189.089 333.443L188.884 333.275L188.697 333.107L188.491 332.92L188.304 332.733L188.117 332.546L187.948 332.359L187.761 332.172L187.593 331.985L187.425 331.798L187.256 331.611L187.088 331.424L186.938 331.236L186.77 331.031L186.62 330.844L186.471 330.638L186.34 330.451L186.19 330.245L186.059 330.058L185.928 329.852L185.798 329.647L185.667 329.441L185.536 329.254L185.424 329.048L185.311 328.843L185.18 328.637L185.087 328.45L184.975 328.244L184.862 328.038L184.769 327.833L184.675 327.627L184.582 327.44L184.488 327.234L184.414 327.028L184.32 326.823L184.245 326.636L184.17 326.43L184.096 326.224L184.021 326.037L183.965 325.831L183.89 325.644L183.834 325.439L183.778 325.252L183.722 325.046L183.665 324.859L183.628 324.653L183.572 324.466L183.535 324.279L183.497 324.092L183.46 323.905L183.422 323.699L183.385 323.512L183.366 323.344L183.329 323.157L183.31 322.97L183.291 322.783L183.273 322.614L183.254 322.427L183.235 322.259L183.217 322.072V321.904L183.198 321.735V321.548L183.179 321.38V321.212V321.062V320.894V320.726L183.198 320.576V320.408V320.258L183.217 320.09L183.235 319.94V319.79L183.254 319.641L183.273 319.491L183.291 319.342L183.31 319.211L183.329 319.061L183.348 318.911L183.366 318.78L183.385 318.649L183.404 318.519L183.441 318.388L183.46 318.257L183.478 318.126L183.516 317.995L183.535 317.864L183.572 317.752L183.591 317.621L183.628 317.509L183.647 317.378L183.684 317.265L183.703 317.153L183.74 317.041L183.778 316.929L183.796 316.817L183.834 316.723L183.871 316.611L183.89 316.517L183.927 316.405L183.965 316.312L183.983 316.218L184.021 316.106L184.04 316.012L184.077 315.919L184.114 315.825L184.133 315.751L184.17 315.657L184.189 315.564L184.227 315.489L184.245 315.395L184.283 315.32L184.301 315.227L184.339 315.152L184.357 315.077L184.395 314.984L184.414 314.909L184.432 314.834L184.451 314.759L184.488 314.685L184.507 314.628L184.526 314.554L184.544 314.479L184.563 314.404L184.582 314.329L184.601 314.273L184.619 314.198V314.142L184.638 314.067L184.657 314.011L184.675 313.936V313.88L184.694 313.805V313.749L184.713 313.693V313.618V313.562L184.732 313.506V313.431V313.375V313.319V313.244V313.188V313.132V313.057L184.713 313.001V312.945V312.87L184.694 312.814V312.758V312.683L184.675 312.627L184.657 312.552V312.496L184.638 312.421L184.619 312.365L184.601 312.291L184.582 312.234L184.563 312.16L184.544 312.085L184.526 312.029L184.507 311.954L184.488 311.879L184.47 311.804L184.451 311.729L184.432 311.655L184.395 311.58L184.376 311.505L184.357 311.43L184.32 311.337L184.301 311.262L184.264 311.187L184.245 311.094L184.208 311.019L184.189 310.925L184.152 310.832L184.133 310.738L184.096 310.663L184.058 310.57L184.04 310.476L184.002 310.383L183.965 310.271L183.946 310.177L183.909 310.084L183.89 309.971L183.852 309.878L183.815 309.766L183.796 309.653L183.759 309.541L183.722 309.429L183.703 309.317L183.665 309.205L183.647 309.092L183.609 308.98L183.572 308.849L183.553 308.737L183.516 308.606L183.497 308.475L183.478 308.363L183.441 308.232L183.422 308.101L183.404 307.951L183.385 307.821L183.348 307.69L183.329 307.54L183.31 307.409L183.291 307.259L183.273 307.129L183.254 306.979V306.829L183.235 306.68L183.217 306.53V306.362L183.198 306.212V306.044V305.894L183.179 305.726V305.576V305.408V305.24L183.198 305.071V304.903V304.735L183.217 304.548V304.379L183.235 304.211L183.254 304.024L183.273 303.856L183.291 303.669L183.31 303.482L183.348 303.295L183.366 303.107L183.404 302.92L183.441 302.733L183.478 302.546L183.516 302.359L183.553 302.172L183.591 301.985L183.647 301.78L183.703 301.593L183.74 301.406L183.796 301.2L183.852 301.013L183.927 300.807L183.983 300.62L184.058 300.414L184.133 300.209L184.208 300.022L184.283 299.816L184.357 299.61L184.451 299.404L184.526 299.217L184.619 299.012L184.713 298.806L184.806 298.6L184.919 298.413L185.012 298.207L185.124 298.002L185.236 297.796L185.349 297.59L185.461 297.403L185.592 297.197L185.723 296.992L185.835 296.786L185.966 296.599L186.116 296.393L186.246 296.206L186.396 296L186.546 295.795L186.695 295.608L186.845 295.421L186.995 295.215L187.163 295.028L187.331 294.841L187.5 294.654L187.668 294.448L187.836 294.261L188.023 294.074L188.192 293.906L188.379 293.719L188.584 293.532L188.771 293.363L188.958 293.176L189.164 293.008L189.37 292.821L189.576 292.653L189.781 292.484L190.006 292.316L190.211 292.166L190.436 291.998L190.66 291.83L190.885 291.68L191.109 291.53L191.352 291.362L191.595 291.212L191.82 291.082L192.063 290.932L192.306 290.782L192.568 290.651L192.811 290.52L193.073 290.39L193.335 290.259L193.597 290.128L193.858 290.016L194.12 289.885L194.382 289.772L194.663 289.66L194.943 289.548L195.205 289.454L195.486 289.342L195.766 289.249L196.065 289.155L196.346 289.062L196.626 288.987L196.926 288.893L197.225 288.819L197.524 288.744L197.805 288.669L198.104 288.613L198.422 288.557L198.721 288.501L199.02 288.444L199.32 288.388L199.638 288.351L199.956 288.314L200.255 288.276L200.573 288.239L200.891 288.22L201.209 288.183H201.508L201.826 288.164L202.144 288.145H202.48H202.798L203.116 288.164H203.434L203.752 288.183L204.07 288.201L204.407 288.239L204.725 288.257L205.043 288.295L205.379 288.332L205.697 288.388L206.015 288.426L206.352 288.482L206.67 288.538L206.988 288.613L207.324 288.669L207.642 288.744L207.96 288.837L208.278 288.912L208.615 289.006L208.933 289.099L209.251 289.193L209.569 289.305L209.887 289.417L210.205 289.529L210.523 289.641L210.822 289.772L211.14 289.903L211.458 290.034L211.757 290.165L212.075 290.315L212.374 290.464L212.673 290.614L212.991 290.764L213.291 290.932L213.59 291.1L213.87 291.269L214.17 291.437L214.469 291.624L214.749 291.811L215.049 291.998L215.329 292.185L215.61 292.391L215.89 292.597L216.171 292.802L216.433 293.008L216.713 293.214L216.975 293.438L217.237 293.663L217.499 293.887L217.761 294.13L218.022 294.355L218.266 294.598L218.509 294.841L218.752 295.084L218.995 295.346L219.238 295.608L219.463 295.851L219.706 296.113L219.93 296.393L220.155 296.655L220.36 296.936L220.585 297.197L220.79 297.478L220.996 297.758L221.202 298.058L221.389 298.338L221.595 298.638L221.782 298.918L221.969 299.217L222.137 299.517L222.305 299.834L222.492 300.134L222.661 300.433L222.81 300.751L222.979 301.069L223.128 301.368L223.278 301.686L223.409 302.004L223.559 302.341L223.689 302.659L223.82 302.977L223.933 303.313L224.045 303.631L224.157 303.968L224.269 304.304L224.381 304.622L224.475 304.959L224.568 305.296L224.662 305.632L224.737 305.969L224.812 306.306L224.886 306.642L224.961 306.998L225.017 307.334L225.073 307.671L225.13 308.008L225.186 308.363L225.223 308.7L225.26 309.036L225.279 309.392L225.317 309.728L225.335 310.065L225.354 310.42L225.373 310.757V311.094V311.449V311.786L225.354 312.122L225.335 312.478L225.317 312.814L225.298 313.151L225.26 313.488L225.242 313.824L225.204 314.161L225.148 314.497L225.111 314.834L225.055 315.152L224.999 315.489L224.924 315.825L224.849 316.143L224.793 316.48L224.699 316.798L224.625 317.116L224.531 317.453L224.438 317.77L224.344 318.088L224.251 318.406L224.138 318.706L224.026 319.024L223.914 319.323L223.802 319.641L223.671 319.94L223.559 320.239L223.428 320.538L223.278 320.838L223.147 321.137L222.997 321.418L222.867 321.698L222.698 321.997L222.549 322.278L222.399 322.558L222.231 322.82L222.062 323.101L221.894 323.363L221.726 323.643L221.557 323.905L221.37 324.148L221.183 324.41L220.996 324.672L220.809 324.915L220.622 325.158L220.435 325.401L220.229 325.644L220.024 325.869L219.818 326.112L219.612 326.336L219.406 326.561L219.201 326.785L218.976 326.991L218.771 327.197L218.546 327.421L218.322 327.608L218.097 327.814L217.873 328.02L217.648 328.207L217.424 328.394L217.2 328.581L216.956 328.749L216.732 328.936L216.489 329.104L216.246 329.273L216.021 329.441L215.778 329.591L215.535 329.759L215.292 329.909L215.049 330.058L214.806 330.189L214.562 330.339L214.301 330.47L214.057 330.601L213.814 330.732L213.571 330.844L213.309 330.975L213.066 331.087L212.804 331.199L212.561 331.293L212.318 331.405L212.056 331.498L211.813 331.592L211.551 331.685L211.308 331.779L211.046 331.854L210.803 331.928L210.541 332.003L210.298 332.078L210.055 332.134L209.793 332.209L209.55 332.265L209.288 332.321L209.045 332.377L208.802 332.415L208.559 332.452L208.297 332.508L208.054 332.546L207.811 332.564L207.568 332.602L207.324 332.62L207.081 332.639L206.857 332.658L206.614 332.677L206.371 332.695H206.128L205.903 332.714H205.66H205.436L205.211 332.695H204.968L204.744 332.677H204.519L204.295 332.658L204.07 332.639L203.864 332.62L203.64 332.583L203.416 332.564L203.21 332.527L202.985 332.508L202.78 332.471L202.574 332.433L202.368 332.396L202.163 332.34L201.957 332.303L201.77 332.246L201.564 332.209L201.377 332.153L201.171 332.097L200.984 332.041L200.797 331.985L200.61 331.928L200.423 331.872L200.236 331.798L200.068 331.741L199.881 331.667L199.712 331.611L199.544 331.536L199.376 331.461L199.207 331.405L199.039 331.33L198.871 331.255L198.721 331.18L198.553 331.087L198.403 331.012L198.254 330.937L198.104 330.862L197.954 330.769L197.805 330.694L197.655 330.619L197.524 330.526L197.375 330.451L197.244 330.357L197.113 330.283L196.982 330.189L196.851 330.114L196.72 330.021L196.608 329.927L196.477 329.852L196.365 329.759L196.252 329.665L196.122 329.591L196.009 329.497L195.897 329.404L195.804 329.329L195.691 329.235L195.579 329.142L195.486 329.067L195.392 328.973L195.28 328.88L195.186 328.805L195.093 328.712L194.999 328.637L194.906 328.543L194.831 328.45L194.738 328.375L194.663 328.3L194.569 328.207L194.494 328.132L194.42 328.038L194.326 327.963L194.251 327.889L194.176 327.814L194.102 327.72L194.046 327.646L193.971 327.571L193.896 327.496L193.821 327.421L193.765 327.346L193.69 327.271L193.634 327.215L193.578 327.141L193.503 327.066L193.447 326.991L193.391 326.935L193.335 326.86L193.279 326.804L193.223 326.729L193.166 326.673L193.11 326.617L193.054 326.542L192.998 326.486L192.942 326.43L192.886 326.374L192.83 326.318L192.792 326.262L192.736 326.205L192.68 326.168L192.624 326.112L192.587 326.056L192.531 326.018L192.474 325.962L192.437 325.925L192.381 325.869L192.325 325.831L192.287 325.794L192.231 325.738L192.175 325.7L192.119 325.663L192.082 325.626L192.026 325.588L191.969 325.551L191.932 325.513L191.876 325.495L191.82 325.457L191.764 325.42L191.708 325.401L191.652 325.364L191.595 325.326L191.539 325.308L191.483 325.27L191.427 325.252L191.371 325.233L191.315 325.195L191.259 325.177L191.203 325.158L191.147 325.139L191.072 325.102L191.016 325.083L190.941 325.065L190.885 325.046L190.81 325.027L190.754 325.008L190.679 324.99L190.604 324.971L190.548 324.952L190.473 324.934L190.398 324.915L190.324 324.896L190.249 324.878L190.174 324.859L190.081 324.84H190.006L189.931 324.821L189.837 324.803L189.763 324.784L189.669 324.765L189.594 324.747L189.501 324.728L189.407 324.709L189.314 324.691L189.22 324.672L189.127 324.653L189.033 324.634L188.94 324.616L188.846 324.578L188.734 324.56L188.64 324.541L188.528 324.522L188.435 324.485L188.322 324.466L188.21 324.447L188.117 324.41L188.005 324.391L187.892 324.354L187.78 324.316L187.649 324.298L187.537 324.26L187.425 324.223L187.312 324.186L187.182 324.148L187.069 324.111L186.938 324.073L186.808 324.036L186.695 323.98L186.564 323.942L186.433 323.886L186.303 323.849L186.172 323.793L186.041 323.737L185.91 323.681L185.779 323.624L185.648 323.568L185.517 323.512L185.367 323.456L185.236 323.381L185.106 323.325L184.956 323.25L184.825 323.176L184.675 323.101L184.544 323.026L184.395 322.951L184.245 322.876L184.114 322.783L183.965 322.708L183.815 322.614L183.684 322.521L183.535 322.427L183.385 322.334L183.235 322.24L183.086 322.128L182.955 322.035L182.805 321.922L182.656 321.81L182.506 321.698L182.356 321.586L182.225 321.474L182.076 321.343L181.926 321.23L181.776 321.1L181.646 320.969L181.496 320.838L181.346 320.707L181.215 320.557L181.066 320.426L180.916 320.277L180.785 320.127L180.636 319.977L180.505 319.828L180.355 319.659L180.224 319.51L180.093 319.342L179.944 319.173L179.813 319.005L179.682 318.837L179.551 318.668L179.42 318.481L179.289 318.313L179.158 318.126L179.046 317.939L178.915 317.752L178.803 317.565L178.672 317.359L178.56 317.153L178.447 316.966L178.335 316.761L178.204 316.555L178.111 316.349L177.999 316.125L177.886 315.919L177.793 315.694L177.681 315.47L177.587 315.246L177.494 315.021L177.4 314.797L177.307 314.572L177.213 314.329L177.138 314.086L177.045 313.862L176.97 313.618L176.895 313.375L176.82 313.132L176.745 312.87L176.689 312.627L176.614 312.365L176.558 312.122L176.502 311.86L176.446 311.599L176.39 311.337L176.353 311.075L176.297 310.813L176.259 310.532L176.222 310.271L176.203 310.009L176.166 309.728L176.147 309.448L176.128 309.186L176.11 308.905L176.091 308.625L176.072 308.344V308.064V307.783V307.484V307.203L176.091 306.923L176.11 306.642L176.128 306.343L176.147 306.063L176.184 305.763L176.203 305.483L176.24 305.183L176.278 304.884L176.334 304.604L176.39 304.304L176.427 304.024L176.502 303.725L176.558 303.425L176.633 303.145L176.689 302.846L176.764 302.546L176.858 302.266L176.932 301.967L177.026 301.667L177.119 301.387L177.232 301.088L177.325 300.788L177.437 300.508L177.55 300.209L177.662 299.928L177.793 299.647L177.924 299.348L178.055 299.068L178.186 298.787L178.316 298.507L178.466 298.226L178.616 297.946L178.765 297.665L178.934 297.384L179.102 297.104L179.27 296.823L179.439 296.561L179.607 296.281L179.794 296.019L179.981 295.757L180.168 295.495L180.355 295.234L180.561 294.972L180.767 294.71L180.972 294.448L181.178 294.205L181.402 293.943L181.608 293.7L181.833 293.457L182.057 293.214L182.3 292.989L182.525 292.746L182.768 292.522L183.011 292.279L183.254 292.054L183.516 291.83L183.759 291.624L184.021 291.4L184.283 291.194L184.544 290.969L184.825 290.782L185.087 290.577L185.367 290.371L185.648 290.184L185.928 289.997L186.209 289.81L186.508 289.623L186.789 289.436L187.088 289.267L187.387 289.099L187.687 288.931L187.986 288.781L188.304 288.613L188.603 288.463L188.921 288.314L189.239 288.183L189.538 288.033L189.856 287.902L190.193 287.771L190.511 287.64L190.829 287.528L191.165 287.416L191.483 287.304L191.82 287.191L192.157 287.098L192.493 287.004L192.83 286.911L193.166 286.817L193.503 286.743L193.84 286.668L194.176 286.593L194.513 286.537L194.868 286.462L195.205 286.406L195.56 286.368L195.897 286.312L196.252 286.275L196.589 286.238L196.944 286.219L197.3 286.181L197.636 286.163H197.992L198.347 286.144H198.684H199.039H199.395L199.731 286.163L200.087 286.181L200.442 286.2L200.779 286.238L201.134 286.256L201.489 286.294L201.826 286.35L202.181 286.387L202.518 286.443L202.855 286.499L203.21 286.574L203.547 286.63L203.883 286.705L204.22 286.799L204.556 286.873L204.893 286.967L205.23 287.06L205.566 287.154L205.903 287.266L206.24 287.378L206.558 287.491L206.876 287.603L207.212 287.734L207.53 287.846L207.848 287.977L208.166 288.127L208.484 288.257L208.783 288.407L209.101 288.557L209.4 288.706L209.718 288.875L210.018 289.043L210.317 289.211L210.616 289.38L210.897 289.548L211.196 289.735L211.477 289.922L211.757 290.109L212.038 290.296L212.318 290.502L212.599 290.689L212.861 290.895L213.122 291.1L213.384 291.325L213.646 291.53L213.908 291.755L214.151 291.979L214.413 292.204L214.656 292.428L214.899 292.653L215.124 292.896L215.367 293.12L215.591 293.363L215.816 293.606L216.04 293.85L216.246 294.111L216.47 294.355L216.676 294.616L216.882 294.86L217.087 295.121L217.274 295.383L217.461 295.645L217.648 295.907L217.835 296.187L218.022 296.449L218.191 296.73L218.359 296.992L218.527 297.272L218.677 297.553L218.845 297.833L218.995 298.114L219.145 298.394L219.276 298.675L219.425 298.955L219.556 299.236L219.687 299.535L219.799 299.816L219.93 300.096L220.042 300.396L220.155 300.676L220.248 300.975L220.36 301.275L220.454 301.555L220.547 301.854L220.622 302.135L220.716 302.434L220.79 302.733L220.865 303.014L220.94 303.313L220.996 303.612L221.052 303.893L221.108 304.192L221.165 304.491L221.221 304.772L221.258 305.071L221.295 305.371L221.333 305.651L221.352 305.95L221.389 306.231L221.408 306.53L221.426 306.811V307.091L221.445 307.39V307.671V307.951V308.232L221.426 308.513V308.793L221.408 309.074L221.389 309.354L221.352 309.616L221.333 309.897L221.295 310.158L221.258 310.439L221.221 310.701L221.183 310.963L221.146 311.243L221.09 311.505L221.034 311.748L220.978 312.01L220.921 312.272L220.865 312.534L220.79 312.777L220.716 313.02L220.66 313.282L220.585 313.525L220.491 313.768L220.416 313.993L220.342 314.236L220.248 314.479L220.155 314.703L220.061 314.928L219.968 315.171L219.874 315.395L219.762 315.601L219.668 315.825L219.556 316.05L219.463 316.256L219.35 316.461L219.238 316.686L219.126 316.891L219.014 317.078L218.883 317.284L218.771 317.471L218.64 317.677L218.527 317.864L218.397 318.051L218.266 318.238L218.153 318.425L218.022 318.593L217.892 318.78L217.742 318.949L217.611 319.117L217.48 319.285L217.349 319.454L217.218 319.603L217.069 319.772L216.938 319.921L216.788 320.071L216.657 320.221L216.508 320.37L216.358 320.501L216.227 320.651L216.077 320.782L215.928 320.913L215.797 321.043L215.647 321.174L215.498 321.305L215.348 321.418L215.217 321.548L215.067 321.661L214.918 321.773L214.768 321.885L214.619 321.979L214.488 322.091L214.338 322.203L214.188 322.297L214.039 322.39L213.889 322.484L213.758 322.577L213.609 322.671L213.459 322.745L213.328 322.839L213.178 322.914L213.029 323.007L212.898 323.082L212.748 323.157L212.617 323.232L212.468 323.288L212.337 323.363L212.206 323.419L212.056 323.494L211.925 323.55L211.794 323.606L211.664 323.662L211.533 323.718L211.402 323.774L211.271 323.83L211.14 323.868L211.009 323.924L210.878 323.961L210.747 324.017L210.635 324.055L210.504 324.092L210.373 324.129L210.261 324.167L210.149 324.204L210.018 324.242L209.905 324.279L209.793 324.316L209.681 324.335L209.569 324.373L209.457 324.41L209.344 324.429L209.232 324.466L209.12 324.485L209.026 324.503L208.914 324.541L208.821 324.56L208.708 324.578L208.615 324.597L208.521 324.616L208.428 324.634L208.334 324.653L208.241 324.691L208.147 324.709L208.054 324.728H207.96L207.867 324.747L207.792 324.765L207.699 324.784L207.624 324.803L207.53 324.821L207.455 324.84L207.381 324.859L207.306 324.878L207.231 324.896L207.156 324.915L207.081 324.934L207.007 324.952L206.932 324.971L206.857 324.99L206.801 325.008L206.726 325.027L206.651 325.046L206.595 325.065L206.52 325.083L206.464 325.102L206.408 325.121L206.333 325.139L206.277 325.177L206.221 325.195L206.165 325.214L206.109 325.252L206.053 325.27L205.997 325.289L205.94 325.326L205.884 325.345L205.828 325.383L205.772 325.42L205.716 325.439L205.66 325.476L205.623 325.513L205.566 325.551L205.51 325.57L205.454 325.607L205.417 325.644L205.361 325.682L205.305 325.738L205.248 325.775L205.211 325.813L205.155 325.85L205.099 325.906L205.061 325.944L205.005 326L204.949 326.037L204.912 326.093L204.856 326.149L204.8 326.187L204.762 326.243L204.706 326.299L204.65 326.355L204.594 326.411L204.538 326.467L204.482 326.523L204.444 326.579L204.388 326.654L204.332 326.71L204.276 326.767L204.201 326.841L204.145 326.897L204.089 326.972L204.033 327.047L203.977 327.103L203.902 327.178L203.846 327.253L203.771 327.328L203.715 327.402L203.64 327.477L203.584 327.552L203.509 327.627L203.434 327.702L203.359 327.776L203.285 327.851L203.21 327.926L203.135 328.02L203.06 328.094L202.985 328.169L202.892 328.263L202.817 328.338L202.724 328.431L202.63 328.506L202.555 328.599L202.462 328.674L202.368 328.768L202.275 328.861L202.163 328.936L202.069 329.03L201.975 329.104L201.863 329.198L201.77 329.291L201.658 329.366L201.545 329.46L201.433 329.553L201.321 329.628L201.209 329.722L201.078 329.815L200.966 329.89L200.835 329.983L200.704 330.077L200.591 330.152L200.461 330.245L200.33 330.32L200.18 330.414L200.049 330.488L199.918 330.582L199.769 330.657L199.619 330.75L199.469 330.825L199.32 330.9L199.17 330.993L199.02 331.068L198.871 331.143L198.702 331.218L198.534 331.293L198.385 331.367L198.216 331.442L198.048 331.517L197.88 331.573L197.693 331.648L197.524 331.723L197.337 331.779L197.169 331.835L196.982 331.91L196.795 331.966L196.608 332.022L196.421 332.078L196.215 332.134L196.028 332.19L195.841 332.228L195.635 332.284L195.43 332.321L195.224 332.377L195.018 332.415L194.812 332.452L194.607 332.49L194.401 332.527L194.176 332.546L193.971 332.583L193.746 332.602L193.522 332.62L193.297 332.658H193.092L192.867 332.677L192.624 332.695H192.4L192.175 332.714H191.951H191.708L191.483 332.695H191.24L190.997 332.677H190.754L190.529 332.658L190.286 332.639L190.043 332.602L189.8 332.583L189.557 332.546L189.314 332.508L189.052 332.471L188.809 332.433L188.566 332.396L188.322 332.34L188.061 332.284L187.817 332.228L187.574 332.172L187.312 332.097L187.069 332.041L186.808 331.966L186.564 331.891L186.303 331.798L186.059 331.723L185.816 331.629L185.554 331.536L185.311 331.442L185.049 331.349L184.806 331.236L184.544 331.124L184.301 331.012L184.058 330.9L183.796 330.769L183.553 330.657L183.31 330.526L183.048 330.395L182.805 330.245L182.562 330.114L182.319 329.965L182.076 329.815L181.833 329.665L181.589 329.497L181.346 329.347L181.122 329.179L180.879 329.011L180.654 328.824L180.411 328.655L180.187 328.468L179.944 328.281L179.719 328.094L179.495 327.889L179.27 327.702L179.046 327.496L178.84 327.29L178.616 327.066L178.41 326.86L178.186 326.636L177.98 326.411L177.774 326.187L177.568 325.962L177.363 325.738L177.176 325.495L176.97 325.252L176.783 325.008L176.596 324.765L176.409 324.503L176.222 324.26L176.035 323.998L175.866 323.737L175.679 323.475L175.511 323.213L175.343 322.932L175.193 322.652L175.025 322.39L174.875 322.11L174.726 321.81L174.576 321.53L174.426 321.249L174.277 320.95L174.146 320.651L174.015 320.351L173.884 320.052L173.772 319.753L173.641 319.454L173.529 319.136L173.416 318.837L173.304 318.519L173.211 318.201L173.117 317.883L173.024 317.565L172.93 317.247L172.837 316.929L172.762 316.611L172.687 316.274L172.612 315.956L172.556 315.62L172.5 315.283L172.444 314.965L172.388 314.628L172.332 314.292L172.294 313.955L172.257 313.618L172.238 313.282L172.201 312.945L172.182 312.608L172.163 312.253V311.916L172.145 311.58V311.243V310.888L172.163 310.551L172.182 310.215L172.201 309.859L172.219 309.523L172.257 309.186L172.275 308.831L172.332 308.494L172.369 308.157L172.425 307.802L172.481 307.465L172.537 307.129L172.593 306.792L172.668 306.437L172.743 306.1L172.837 305.763L172.911 305.427L173.005 305.09L173.098 304.753L173.211 304.435L173.304 304.099L173.416 303.762L173.529 303.444L173.659 303.107L173.79 302.79L173.921 302.453L174.052 302.135L174.183 301.817L174.333 301.499L174.482 301.181L174.651 300.863L174.8 300.564L174.969 300.246L175.137 299.947L175.305 299.647L175.492 299.348L175.661 299.049L175.848 298.75L176.053 298.45L176.24 298.17L176.446 297.871L176.652 297.59L176.858 297.31L177.063 297.029L177.288 296.767L177.512 296.487L177.737 296.225L177.961 295.963L178.186 295.701L178.429 295.439L178.672 295.196L178.915 294.934L179.158 294.691L179.401 294.448L179.663 294.224L179.906 293.981L180.168 293.756L180.43 293.532L180.71 293.307L180.972 293.083L181.253 292.877L181.515 292.671L181.795 292.466L182.076 292.26L182.356 292.073L182.656 291.886L182.936 291.699L183.235 291.512L183.516 291.325L183.815 291.156L184.114 290.988L184.414 290.82L184.713 290.67L185.031 290.52L185.33 290.371L185.629 290.221L185.947 290.072L186.246 289.941L186.564 289.81L186.882 289.698L187.2 289.567L187.518 289.454L187.836 289.342L188.154 289.23L188.472 289.136L188.79 289.043L189.108 288.949L189.426 288.856L189.744 288.781L190.081 288.706L190.398 288.632L190.716 288.575L191.053 288.501L191.371 288.444L191.689 288.407L192.026 288.351L192.344 288.314L192.661 288.276L192.979 288.239L193.316 288.22L193.634 288.183H193.952L194.289 288.164L194.607 288.145H194.925H195.242L195.56 288.164H195.878L196.196 288.183L196.514 288.201L196.832 288.22L197.131 288.257L197.449 288.295L197.767 288.332L198.067 288.37L198.385 288.426L198.684 288.463L198.983 288.519L199.282 288.594L199.582 288.65L199.881 288.725L200.18 288.781L200.479 288.875L200.779 288.949L201.059 289.024L201.34 289.118L201.639 289.211L201.919 289.305L202.2 289.398L202.48 289.511L202.742 289.623L203.023 289.735L203.285 289.847L203.565 289.959L203.827 290.09L204.089 290.203L204.351 290.333L204.594 290.464L204.856 290.595L205.099 290.726L205.361 290.876L205.604 291.025L205.847 291.156L206.071 291.306L206.315 291.456L206.539 291.624L206.763 291.774L206.988 291.923L207.212 292.092L207.437 292.26L207.642 292.428L207.867 292.597L208.073 292.765L208.278 292.933L208.484 293.101L208.671 293.289L208.877 293.457L209.064 293.644L209.251 293.831L209.438 294.018L209.606 294.205L209.793 294.392L209.962 294.579L210.13 294.766L210.298 294.953L210.448 295.14L210.616 295.346L210.766 295.533L210.915 295.72L211.065 295.926L211.215 296.113L211.346 296.318L211.495 296.524L211.626 296.711L211.757 296.917L211.888 297.123L212 297.31L212.131 297.515L212.243 297.721L212.356 297.927L212.468 298.133L212.561 298.32L212.673 298.525L212.767 298.731L212.861 298.937L212.954 299.124L213.048 299.33L213.122 299.535L213.216 299.741L213.291 299.928L213.365 300.134L213.44 300.339L213.496 300.526L213.571 300.732L213.627 300.938L213.683 301.125L213.758 301.331L213.796 301.518L213.852 301.705L213.908 301.91L213.945 302.098L213.983 302.285L214.039 302.472L214.076 302.677L214.095 302.864L214.132 303.051L214.17 303.22L214.188 303.407L214.207 303.594L214.245 303.781L214.263 303.949L214.282 304.136V304.304L214.301 304.491L214.319 304.66V304.828V304.996L214.338 305.165V305.333V305.501V305.67L214.319 305.838V305.988V306.156L214.301 306.306V306.455L214.282 306.624V306.773L214.263 306.923L214.245 307.054L214.226 307.203L214.207 307.353L214.188 307.503L214.17 307.634L214.151 307.764L214.132 307.914L214.095 308.045L214.076 308.176L214.057 308.307L214.02 308.438L214.001 308.569L213.983 308.681L213.945 308.812L213.927 308.924L213.889 309.055L213.87 309.167L213.833 309.279L213.796 309.392L213.777 309.504L213.74 309.616L213.702 309.728L213.683 309.822L213.646 309.934L213.609 310.046L213.59 310.14L213.553 310.233L213.515 310.345L213.496 310.439L213.459 310.532L213.44 310.626L213.403 310.72L213.365 310.794L213.347 310.888L213.309 310.981L213.291 311.056L213.253 311.15L213.235 311.224L213.197 311.318L213.178 311.393L213.16 311.468L213.122 311.542L213.104 311.617L213.085 311.692L213.048 311.767L213.029 311.842L213.01 311.916L212.991 311.991L212.973 312.066L212.954 312.141L212.935 312.197L212.917 312.272L212.898 312.328L212.879 312.403V312.478L212.861 312.534L212.842 312.608V312.665L212.823 312.721V312.796L212.804 312.852V312.908V312.983L212.786 313.039V313.095V313.17V313.226" stroke="#0F172A" stroke-width="1.68325"/>
<g filter="url(#filter11_b_318_12001)">
<rect x="390" y="597" width="84" height="84" rx="15" fill="#0F172A" fill-opacity="0.1"/>
<rect x="389.5" y="596.5" width="85" height="85" rx="15.5" stroke="#0F172A" stroke-opacity="0.2"/>
</g>
<path d="M404.006 606C403.401 606 402.951 606.493 403.004 607.095L408.104 664.299C408.158 664.901 408.679 665.526 409.262 665.688L430.903 671.697C431.486 671.859 432.439 671.859 433.023 671.698L454.729 665.679C455.312 665.517 455.834 664.892 455.887 664.29L460.996 607.095C461.05 606.493 460.599 606 459.994 606H404.006ZM450.135 619.119C450.087 619.657 450.003 620.59 449.95 621.192L449.815 622.693C449.761 623.295 449.684 624.157 449.643 624.607C449.603 625.058 449.565 625.426 449.557 625.426C449.551 625.426 449.05 625.426 448.445 625.426H433.1C432.495 625.426 431.995 625.426 431.988 625.426C431.982 625.426 431.481 625.426 430.876 625.426H422.795C422.19 625.426 421.739 625.919 421.793 626.521L422.264 631.791C422.318 632.393 422.857 632.886 423.462 632.886H430.877C431.481 632.886 431.982 632.886 431.989 632.886C431.995 632.886 432.495 632.886 433.1 632.886H445.845C446.45 632.886 447.386 632.886 447.925 632.886C448.464 632.886 448.865 633.326 448.816 633.863C448.767 634.401 448.684 635.334 448.63 635.936L447.114 652.924C447.06 653.527 446.992 654.296 446.962 654.635C446.932 654.973 446.431 655.382 445.848 655.543L433.06 659.089C432.477 659.251 431.993 659.384 431.984 659.386C431.975 659.388 431.491 659.257 430.907 659.096L418.106 655.544C417.523 655.382 417.002 654.757 416.949 654.154L416.125 644.905C416.071 644.303 416.522 643.81 417.127 643.81H418.295C418.9 643.81 419.89 643.81 420.495 643.81H422.237C422.842 643.81 423.381 644.303 423.435 644.905L423.758 648.526C423.812 649.128 424.333 649.75 424.918 649.908L430.905 651.525C431.489 651.683 431.969 651.812 431.972 651.812C431.974 651.812 432.454 651.682 433.038 651.525L439.037 649.904C439.621 649.746 440.143 649.124 440.197 648.522L440.847 641.268C440.901 640.665 440.451 640.172 439.846 640.172H433.1C432.495 640.172 431.995 640.172 431.989 640.172C431.982 640.172 431.481 640.172 430.877 640.172H416.801C416.196 640.172 415.657 639.679 415.603 639.077L414.007 621.192C413.954 620.589 413.87 619.657 413.822 619.119C413.774 618.582 414.23 618.142 414.835 618.142H430.877C431.481 618.142 431.982 618.142 431.989 618.142C431.995 618.142 432.495 618.142 433.1 618.142H449.122C449.727 618.142 450.183 618.582 450.135 619.119Z" fill="#0F172A"/>
</g>
<defs>
<filter id="filter0_b_318_12001" x="99" y="573" width="154" height="154" filterUnits="userSpaceOnUse" color-interpolation-filters="sRGB">
<feFlood flood-opacity="0" result="BackgroundImageFix"/>
<feGaussianBlur in="BackgroundImageFix" stdDeviation="17"/>
<feComposite in2="SourceAlpha" operator="in" result="effect1_backgroundBlur_318_12001"/>
<feBlend mode="normal" in="SourceGraphic" in2="effect1_backgroundBlur_318_12001" result="shape"/>
</filter>
<filter id="filter1_b_318_12001" x="325.633" y="35.6328" width="153" height="153" filterUnits="userSpaceOnUse" color-interpolation-filters="sRGB">
<feFlood flood-opacity="0" result="BackgroundImageFix"/>
<feGaussianBlur in="BackgroundImageFix" stdDeviation="17"/>
<feComposite in2="SourceAlpha" operator="in" result="effect1_backgroundBlur_318_12001"/>
<feBlend mode="normal" in="SourceGraphic" in2="effect1_backgroundBlur_318_12001" result="shape"/>
</filter>
<filter id="filter2_b_318_12001" x="150.367" y="-7.63232" width="154" height="154" filterUnits="userSpaceOnUse" color-interpolation-filters="sRGB">
<feFlood flood-opacity="0" result="BackgroundImageFix"/>
<feGaussianBlur in="BackgroundImageFix" stdDeviation="17"/>
<feComposite in2="SourceAlpha" operator="in" result="effect1_backgroundBlur_318_12001"/>
<feBlend mode="normal" in="SourceGraphic" in2="effect1_backgroundBlur_318_12001" result="shape"/>
</filter>
<filter id="filter3_b_318_12001" x="211.787" y="55.9166" width="31.0115" height="27.0637" filterUnits="userSpaceOnUse" color-interpolation-filters="sRGB">
<feFlood flood-opacity="0" result="BackgroundImageFix"/>
<feGaussianBlur in="BackgroundImageFix" stdDeviation="1.66889"/>
<feComposite in2="SourceAlpha" operator="in" result="effect1_backgroundBlur_318_12001"/>
<feBlend mode="normal" in="SourceGraphic" in2="effect1_backgroundBlur_318_12001" result="shape"/>
</filter>
<filter id="filter4_b_318_12001" x="453.171" y="320.171" width="154.614" height="154.615" filterUnits="userSpaceOnUse" color-interpolation-filters="sRGB">
<feFlood flood-opacity="0" result="BackgroundImageFix"/>
<feGaussianBlur in="BackgroundImageFix" stdDeviation="17"/>
<feComposite in2="SourceAlpha" operator="in" result="effect1_backgroundBlur_318_12001"/>
<feBlend mode="normal" in="SourceGraphic" in2="effect1_backgroundBlur_318_12001" result="shape"/>
</filter>
<filter id="filter5_b_318_12001" x="235" y="142" width="154" height="154" filterUnits="userSpaceOnUse" color-interpolation-filters="sRGB">
<feFlood flood-opacity="0" result="BackgroundImageFix"/>
<feGaussianBlur in="BackgroundImageFix" stdDeviation="17"/>
<feComposite in2="SourceAlpha" operator="in" result="effect1_backgroundBlur_318_12001"/>
<feBlend mode="normal" in="SourceGraphic" in2="effect1_backgroundBlur_318_12001" result="shape"/>
</filter>
<filter id="filter6_b_318_12001" x="395.161" y="196.161" width="154" height="154" filterUnits="userSpaceOnUse" color-interpolation-filters="sRGB">
<feFlood flood-opacity="0" result="BackgroundImageFix"/>
<feGaussianBlur in="BackgroundImageFix" stdDeviation="17"/>
<feComposite in2="SourceAlpha" operator="in" result="effect1_backgroundBlur_318_12001"/>
<feBlend mode="normal" in="SourceGraphic" in2="effect1_backgroundBlur_318_12001" result="shape"/>
</filter>
<filter id="filter7_b_318_12001" x="280" y="289" width="153" height="153" filterUnits="userSpaceOnUse" color-interpolation-filters="sRGB">
<feFlood flood-opacity="0" result="BackgroundImageFix"/>
<feGaussianBlur in="BackgroundImageFix" stdDeviation="17"/>
<feComposite in2="SourceAlpha" operator="in" result="effect1_backgroundBlur_318_12001"/>
<feBlend mode="normal" in="SourceGraphic" in2="effect1_backgroundBlur_318_12001" result="shape"/>
</filter>
<filter id="filter8_b_318_12001" x="312" y="435" width="154" height="154" filterUnits="userSpaceOnUse" color-interpolation-filters="sRGB">
<feFlood flood-opacity="0" result="BackgroundImageFix"/>
<feGaussianBlur in="BackgroundImageFix" stdDeviation="17"/>
<feComposite in2="SourceAlpha" operator="in" result="effect1_backgroundBlur_318_12001"/>
<feBlend mode="normal" in="SourceGraphic" in2="effect1_backgroundBlur_318_12001" result="shape"/>
</filter>
<filter id="filter9_b_318_12001" x="149" y="409" width="154" height="154" filterUnits="userSpaceOnUse" color-interpolation-filters="sRGB">
<feFlood flood-opacity="0" result="BackgroundImageFix"/>
<feGaussianBlur in="BackgroundImageFix" stdDeviation="17"/>
<feComposite in2="SourceAlpha" operator="in" result="effect1_backgroundBlur_318_12001"/>
<feBlend mode="normal" in="SourceGraphic" in2="effect1_backgroundBlur_318_12001" result="shape"/>
</filter>
<filter id="filter10_b_318_12001" x="122" y="236" width="154" height="154" filterUnits="userSpaceOnUse" color-interpolation-filters="sRGB">
<feFlood flood-opacity="0" result="BackgroundImageFix"/>
<feGaussianBlur in="BackgroundImageFix" stdDeviation="17"/>
<feComposite in2="SourceAlpha" operator="in" result="effect1_backgroundBlur_318_12001"/>
<feBlend mode="normal" in="SourceGraphic" in2="effect1_backgroundBlur_318_12001" result="shape"/>
</filter>
<filter id="filter11_b_318_12001" x="355" y="562" width="154" height="154" filterUnits="userSpaceOnUse" color-interpolation-filters="sRGB">
<feFlood flood-opacity="0" result="BackgroundImageFix"/>
<feGaussianBlur in="BackgroundImageFix" stdDeviation="17"/>
<feComposite in2="SourceAlpha" operator="in" result="effect1_backgroundBlur_318_12001"/>
<feBlend mode="normal" in="SourceGraphic" in2="effect1_backgroundBlur_318_12001" result="shape"/>
</filter>
<radialGradient id="paint0_radial_318_12001" cx="0" cy="0" r="1" gradientUnits="userSpaceOnUse" gradientTransform="translate(354 355) rotate(90) scale(372.936)">
<stop stop-color="white"/>
<stop offset="1" stop-color="white" stop-opacity="0"/>
<stop offset="1" stop-color="white" stop-opacity="0"/>
</radialGradient>
<linearGradient id="paint1_linear_318_12001" x1="197" y1="-87" x2="433" y2="746" gradientUnits="userSpaceOnUse">
<stop offset="0.416946"/>
<stop offset="0.880782" stop-opacity="0.02"/>
</linearGradient>
<linearGradient id="paint2_linear_318_12001" x1="199.753" y1="469.579" x2="226.44" y2="505.823" gradientUnits="userSpaceOnUse">
<stop stop-color="#0F172A" stop-opacity="0"/>
<stop offset="1" stop-color="#0F172A"/>
</linearGradient>
<linearGradient id="paint3_linear_318_12001" x1="228.842" y1="461.176" x2="234.332" y2="498.837" gradientUnits="userSpaceOnUse">
<stop offset="0.0001" stop-color="#0F172A"/>
</linearGradient>
<clipPath id="clip0_318_12001">
<rect width="64" height="64" fill="white" transform="translate(440.222 241.1) rotate(0.109914)"/>
</clipPath>
<clipPath id="clip1_318_12001">
<rect width="58.1641" height="58.1641" fill="white" transform="translate(360 483)"/>
</clipPath>
</defs>
</svg>
