<svg width="664" height="665" viewBox="0 0 664 665" fill="none" xmlns="http://www.w3.org/2000/svg">
<path opacity="0.2" d="M663.459 504.085V333.877H663.999V331.998H663.459V161.791C663.449 120.049 647.205 79.9474 618.163 49.9658V46.8775H663.459V44.9858H619.475L661.709 2.52078L660.422 1.23396L618.201 43.699V2.1476H616.323V44.9858H613.131C583.581 16.7383 544.283 0.962883 503.404 0.937988H160.042C119.18 0.976116 79.9032 16.7505 50.3661 44.9858H47.162V2.1476H45.2961V43.6604L3.0755 1.19535L1.78868 2.48217L44.0092 44.9472H2.67659V46.826H45.2961V49.9658C16.25 79.9451 0.00579511 120.048 0 161.791V504.085C0.00579511 545.827 16.25 585.93 45.2961 615.909V619.049H2.67659V620.928H43.9706L1.75008 663.393L3.0369 664.68L45.2575 622.215V663.728H47.1234V620.889H50.3275C79.8742 649.134 119.167 664.909 160.042 664.937H503.404C544.27 664.902 583.552 649.128 613.093 620.889H616.284V663.728H618.163V622.215L660.383 664.68L661.67 663.393L619.437 620.928H663.999V619.049H618.163V615.909C647.198 585.923 663.441 545.825 663.459 504.085ZM661.58 504.085C661.577 544.662 646.041 583.698 618.163 613.181V451.904H660.911V450.038H618.163V333.877H661.58V504.085ZM449.525 450.038L448.238 448.751C450.374 446.581 452.446 444.35 454.453 442.06V450.038H449.525ZM454.453 451.917V454.993L451.391 451.917H454.453ZM210.073 450.038V443.282C211.746 445.148 213.471 446.963 215.221 448.751L213.934 450.038H210.073ZM212.068 451.917L210.073 453.899V451.904L212.068 451.917ZM213.934 215.837L215.221 217.124C213.471 218.912 211.746 220.74 210.073 222.593V215.837H213.934ZM210.073 213.958V211.977L212.068 213.971L210.073 213.958ZM454.453 215.837V223.815C452.446 221.525 450.374 219.294 448.238 217.124L449.525 215.837H454.453ZM451.391 213.958L454.453 210.883V213.958H451.391ZM454.453 331.985H450.052C449.857 301.112 437.666 271.524 416.055 249.474L446.938 218.462C449.512 221.096 452.026 223.828 454.479 226.659L454.453 331.985ZM456.319 228.885C480.321 257.894 493.511 294.334 493.637 331.985H456.319V228.885ZM414.729 250.761C436.001 272.447 448 301.558 448.187 331.934H333.981L414.729 250.761ZM332.669 330.544V215.837C362.941 216.048 391.925 228.115 413.404 249.449L332.669 330.544ZM330.79 330.544L250.042 249.359C271.545 228.064 300.528 216.032 330.79 215.837V330.544ZM329.503 331.831H215.272C215.466 301.456 227.464 272.348 248.729 250.658L329.503 331.831ZM329.503 333.71L248.755 414.882C227.49 393.193 215.492 364.084 215.298 333.71H329.503ZM330.79 334.997V450.038C300.512 449.826 271.523 437.754 250.042 416.414L330.79 334.997ZM332.669 334.997L413.404 416.169C391.969 437.601 362.979 449.763 332.669 450.038V334.997ZM333.956 333.71H448.148C447.961 364.086 435.962 393.197 414.691 414.882L333.956 333.71ZM445.587 217.124L414.704 248.149C397.752 231.332 376.09 220.063 352.589 215.837H444.275L445.587 217.124ZM332.669 213.958V170.116C373.451 170.316 412.636 185.99 442.306 213.971L332.669 213.958ZM330.79 213.958H221.153C250.817 185.969 290.006 170.294 330.79 170.103V213.958ZM310.857 215.837C287.349 220.064 265.678 231.332 248.717 248.149L217.833 217.124L219.12 215.837H310.857ZM216.546 218.411L247.43 249.423C225.809 271.466 213.615 301.058 213.432 331.934H210.099V225.437C212.171 223.056 214.32 220.727 216.546 218.475V218.411ZM208.208 331.934H169.77C169.914 293.706 183.523 256.751 208.208 227.56V331.934ZM208.208 333.813V438.187C183.523 408.996 169.914 372.041 169.77 333.813H208.208ZM210.073 333.813H213.406C213.587 364.685 225.781 394.274 247.404 416.311L216.52 447.336C214.294 445.084 212.145 442.755 210.086 440.374L210.073 333.813ZM217.872 448.751L248.755 417.726C265.707 434.537 287.362 445.804 310.857 450.038H219.184L217.872 448.751ZM330.79 451.917V495.772C290.006 495.581 250.817 479.906 221.153 451.917H330.79ZM332.669 451.917H442.306C412.636 479.898 373.451 495.572 332.669 495.772V451.917ZM352.589 450.038C376.099 445.817 397.771 434.548 414.729 417.726L445.613 448.751L444.326 450.038H352.589ZM446.913 447.465L416.029 416.439C437.643 394.397 449.835 364.812 450.027 333.941H454.428V439.268C452.026 442.047 449.521 444.779 446.913 447.465ZM456.319 333.941H493.637C493.511 371.592 480.321 408.032 456.319 437.041V333.941ZM495.554 332.063C495.411 293.201 481.511 255.645 456.319 226.054V215.837H555.276C573.903 251.725 583.668 291.551 583.753 331.985L495.554 332.063ZM456.319 214.035V209.068L510.597 154.52C527.98 172.126 542.698 192.176 554.285 214.035H456.319ZM456.319 206.417V112.66C475.677 123.752 493.482 137.355 509.272 153.117L456.319 206.417ZM454.453 208.296L448.753 214.035H445.034C414.881 184.857 374.627 168.446 332.669 168.225V79.5884C375.332 79.6821 417.26 90.7046 454.453 111.605V208.296ZM330.79 168.225C288.842 168.423 248.589 184.806 218.425 213.958H214.706L210.073 209.3V110.987C247.008 90.475 288.542 79.6676 330.79 79.5756V168.225ZM208.208 207.434L154.161 153.117C170.252 137.067 188.431 123.255 208.208 112.055V207.434ZM208.208 210.098V213.958H109.122C120.705 192.096 135.424 172.045 152.81 154.443L208.208 210.098ZM208.208 215.85V224.729C182.35 254.5 168.043 292.566 167.891 331.998H79.7056C79.789 291.56 89.5537 251.729 108.183 215.837L208.208 215.85ZM167.891 333.877C168.043 373.309 182.35 411.376 208.208 441.146V450.038H108.183C89.5557 414.15 79.7911 374.324 79.7056 333.89L167.891 333.877ZM208.208 451.904V455.765L152.874 511.394C135.488 493.791 120.77 473.741 109.187 451.878L208.208 451.904ZM208.208 458.441V553.82C188.431 542.62 170.252 528.808 154.161 512.758L208.208 458.441ZM210.073 456.562L214.706 451.904H218.425C248.587 481.061 288.84 497.449 330.79 497.651V586.313C288.542 586.21 247.009 575.398 210.073 554.888V456.562ZM332.669 497.651C374.617 497.45 414.869 481.067 445.034 451.917H448.753L454.453 457.656V554.271C417.259 575.169 375.332 586.195 332.669 586.3V497.651ZM456.319 459.535L509.272 512.771C493.476 528.526 475.672 542.129 456.319 553.228V459.535ZM456.319 456.884V451.917H554.285C542.698 473.777 527.98 493.827 510.597 511.432L456.319 456.884ZM456.319 450.038V439.898C481.511 410.307 495.411 372.752 495.554 333.89H583.753C583.668 374.324 573.903 414.15 555.276 450.038H456.319ZM585.619 333.89H616.284V450.038H557.386C575.862 414.1 585.539 374.287 585.619 333.877V333.89ZM585.619 332.011C585.541 291.597 575.864 251.78 557.386 215.837H616.284V331.985L585.619 332.011ZM556.395 213.984C544.651 191.619 529.664 171.113 511.923 153.13L615.1 49.4511L615.19 49.5283C615.576 49.9272 615.962 50.3519 616.348 50.8151V213.971L556.395 213.984ZM613.685 48.1514L510.597 151.792C494.435 135.66 476.179 121.771 456.319 110.498V46.8646H612.346L613.685 48.1514ZM454.453 109.456C417.202 88.7297 375.298 77.8021 332.669 77.6968V46.8131H454.453V109.456ZM332.669 44.9858V2.81674H454.453V44.9858H332.669ZM330.79 44.9858H210.073V2.81674H330.79V44.9858ZM330.79 46.8646V77.7483C288.576 77.8471 247.064 88.5603 210.073 108.902V46.8646H330.79ZM208.208 109.919C187.938 121.29 169.32 135.383 152.874 151.805L49.7871 48.1643L51.0739 46.8775H208.208V109.919ZM48.333 49.5283L48.4102 49.4511L151.536 153.117C133.787 171.096 118.796 191.603 107.051 213.971H47.162V50.7637C47.6124 50.3519 47.9341 49.9272 48.333 49.5283ZM106.073 215.837C87.5987 251.772 77.9223 291.58 77.8398 331.985H47.162V215.837H106.073ZM77.8398 333.864C77.9183 374.278 87.5948 414.096 106.073 450.038H47.162V333.877L77.8398 333.864ZM107.051 451.891C118.796 474.259 133.787 494.766 151.536 512.745L48.4102 616.424L48.333 616.347C47.9341 615.948 47.5609 615.523 47.162 615.06V451.904L107.051 451.891ZM49.7742 617.724L152.861 514.083C169.311 530.506 187.927 544.602 208.195 555.982V619.036H51.1125L49.7742 617.724ZM210.073 557.025C247.064 577.366 288.576 588.08 330.79 588.178V619.062H210.073V557.025ZM330.79 620.889V663.058H210.073V620.889H330.79ZM332.669 620.889H454.453V663.058H332.669V620.889ZM332.669 619.011V588.127C375.298 588.022 417.202 577.094 454.453 556.368V618.959L332.669 619.011ZM456.319 555.377C476.179 544.104 494.435 530.216 510.597 514.083L613.685 617.724L612.398 619.011H456.319V555.377ZM615.1 616.347L615.01 616.424L511.897 512.758C529.639 494.775 544.625 474.269 556.37 451.904H616.258V615.112L615.1 616.347ZM661.58 161.791V331.998H618.163V215.837H660.911V213.958H618.163V52.7325C646.032 82.2061 661.567 121.227 661.58 161.791ZM610.39 44.9472H456.319V2.81674H503.404C543.114 2.84607 581.34 17.9129 610.39 44.9858V44.9472ZM160.003 2.77814H208.208V44.9472H53.0685C82.1211 17.8902 120.341 2.83755 160.042 2.81674L160.003 2.77814ZM1.86589 504.085V161.791C1.87391 121.212 17.4138 82.1759 45.2961 52.6939V213.932H2.57364V215.837H45.2961V331.985H2.41922V333.864H45.2961V450.038H2.57364V451.917H45.2961V613.156C17.4199 583.68 1.88049 544.654 1.86589 504.085ZM53.0685 620.928H208.208V663.097H160.042C120.331 663.055 82.1092 647.975 53.0685 620.889V620.928ZM503.456 663.097H456.319V620.889H610.39C581.338 647.96 543.114 663.027 503.404 663.058L503.456 663.097Z" fill="url(#paint0_radial_415_11747)"/>
<mask id="mask0_415_11747" style="mask-type:alpha" maskUnits="userSpaceOnUse" x="-13" y="0" width="592" height="665">
<rect x="-12.7969" width="591.785" height="664.938" fill="url(#paint1_linear_415_11747)"/>
</mask>
<g mask="url(#mask0_415_11747)">
<g filter="url(#filter0_b_415_11747)">
<path d="M82.8643 584.71C82.8643 579.582 82.8643 577.019 83.8779 575.067C84.7321 573.423 86.0729 572.082 87.7173 571.228C89.6687 570.214 92.2324 570.214 97.3597 570.214H147.148C152.276 570.214 154.839 570.214 156.791 571.228C158.435 572.082 159.776 573.423 160.63 575.067C161.644 577.019 161.644 579.582 161.644 584.71V634.499C161.644 639.626 161.644 642.19 160.63 644.141C159.776 645.785 158.435 647.126 156.791 647.98C154.839 648.994 152.276 648.994 147.148 648.994H97.3597C92.2324 648.994 89.6687 648.994 87.7173 647.98C86.0729 647.126 84.7321 645.785 83.8779 644.141C82.8643 642.19 82.8643 639.626 82.8643 634.499V584.71Z" fill="white" fill-opacity="0.1"/>
<path d="M147.148 569.745H97.3597H97.3374C94.7926 569.745 92.8539 569.745 91.3087 569.874C89.7534 570.003 88.5549 570.264 87.5012 570.812C85.7711 571.711 84.3605 573.121 83.4618 574.851C82.9144 575.905 82.6528 577.104 82.5236 578.659C82.3953 580.204 82.3953 582.143 82.3953 584.687V584.71V634.499V634.521C82.3953 637.066 82.3953 639.004 82.5236 640.55C82.6528 642.105 82.9144 643.303 83.4618 644.357C84.3605 646.087 85.7711 647.498 87.5012 648.396C88.5549 648.944 89.7534 649.205 91.3087 649.335C92.8538 649.463 94.7924 649.463 97.3371 649.463H97.3597H147.148H147.171C149.716 649.463 151.654 649.463 153.199 649.335C154.755 649.205 155.953 648.944 157.007 648.396C158.737 647.498 160.148 646.087 161.046 644.357C161.594 643.303 161.855 642.105 161.985 640.55C162.113 639.004 162.113 637.066 162.113 634.521V634.499V584.71V584.687C162.113 582.143 162.113 580.204 161.985 578.659C161.855 577.104 161.594 575.905 161.046 574.851C160.148 573.121 158.737 571.711 157.007 570.812C155.953 570.264 154.755 570.003 153.199 569.874C151.654 569.745 149.716 569.745 147.171 569.745H147.148Z" stroke="white" stroke-opacity="0.2" stroke-width="0.937853"/>
</g>
<g clip-path="url(#clip0_415_11747)">
<path d="M98.4551 582.407H146.051L141.722 631.279L122.201 636.802L102.789 631.277L98.4551 582.407ZM137.189 592.409L107.317 592.402L107.8 598.345L130.748 598.349L130.17 604.505H115.12L115.664 610.337H129.676L128.846 618.321L122.251 620.144L115.551 618.308L115.125 613.525H109.21L109.867 622.263L122.253 626.123L134.431 622.655L137.189 592.411V592.409Z" fill="white"/>
</g>
<g filter="url(#filter1_b_415_11747)">
<path d="M359.185 66.2432H309.479C301.709 66.2432 295.411 72.5415 295.411 80.311V130.017C295.411 137.787 301.709 144.085 309.479 144.085H359.185C366.955 144.085 373.253 137.787 373.253 130.017V80.311C373.253 72.5415 366.955 66.2432 359.185 66.2432Z" fill="white" fill-opacity="0.1"/>
<path d="M359.185 65.7742H309.479C301.451 65.7742 294.942 72.2825 294.942 80.311V130.017C294.942 138.046 301.451 144.554 309.479 144.554H359.185C367.214 144.554 373.722 138.046 373.722 130.017V80.311C373.722 72.2826 367.214 65.7742 359.185 65.7742Z" stroke="white" stroke-opacity="0.2" stroke-width="0.937853"/>
</g>
<path d="M347.7 127.057C349.268 129.617 351.308 131.499 354.916 131.499C357.947 131.499 359.883 129.984 359.883 127.891C359.883 125.383 357.894 124.494 354.558 123.035L352.729 122.251C347.451 120.002 343.944 117.185 343.944 111.229C343.944 105.743 348.124 101.567 354.657 101.567C359.307 101.567 362.651 103.186 365.06 107.424L359.364 111.081C358.11 108.832 356.757 107.946 354.657 107.946C352.514 107.946 351.156 109.305 351.156 111.081C351.156 113.275 352.515 114.164 355.654 115.523L357.482 116.306C363.697 118.971 367.206 121.688 367.206 127.797C367.206 134.383 362.033 137.991 355.085 137.991C348.292 137.991 343.903 134.753 341.756 130.51L347.7 127.057ZM321.861 127.691C323.01 129.73 324.055 131.453 326.568 131.453C328.971 131.453 330.487 130.513 330.487 126.857V101.985H337.802V126.956C337.802 134.53 333.361 137.977 326.879 137.977C321.023 137.977 317.631 134.946 315.906 131.296L321.861 127.691Z" fill="white"/>
<g filter="url(#filter2_b_415_11747)">
<rect x="131.038" y="25.6665" width="78.7796" height="78.7796" rx="15.0056" fill="white" fill-opacity="0.1"/>
<rect x="130.569" y="25.1976" width="79.7175" height="79.7175" rx="15.4746" stroke="white" stroke-opacity="0.2" stroke-width="0.937853"/>
</g>
<path d="M170.251 75.8998C186.823 76.1697 200.337 71.5352 200.434 65.5484C200.532 59.5616 187.176 54.4895 170.604 54.2196C154.031 53.9497 140.518 58.5842 140.42 64.571C140.323 70.5579 153.678 75.6299 170.251 75.8998Z" stroke="white" stroke-width="2.73905"/>
<path d="M160.416 70.3146C168.481 84.0287 179.501 92.7918 185.03 89.8876C190.558 86.9834 188.502 73.5117 180.437 59.7977C172.372 46.0837 161.352 37.3206 155.823 40.2248C150.295 43.1289 152.351 56.6006 160.416 70.3146Z" stroke="white" stroke-width="2.73905"/>
<path d="M160.594 59.4744C152.087 72.9185 149.593 86.3161 155.024 89.3988C160.455 92.4814 171.755 84.0818 180.262 70.6377C188.769 57.1935 191.263 43.7959 185.832 40.7133C180.401 37.6306 169.101 46.0303 160.594 59.4744Z" stroke="white" stroke-width="2.73905"/>
<g filter="url(#filter3_b_415_11747)">
<path fill-rule="evenodd" clip-rule="evenodd" d="M181.769 65.3149C180.993 63.7267 180.128 62.1146 179.176 60.4962C178.225 58.8792 177.234 57.3351 176.218 55.8747C174.377 55.714 172.47 55.6142 170.513 55.5823C168.557 55.5505 166.647 55.5882 164.802 55.6888C163.738 57.1153 162.698 58.6263 161.695 60.2115C160.691 61.798 159.774 63.3811 158.946 64.9432C159.722 66.5311 160.587 68.143 161.539 69.7611C162.491 71.3806 163.484 72.9271 164.502 74.3895C166.342 74.55 168.248 74.6497 170.202 74.6815C172.157 74.7134 174.065 74.6758 175.909 74.5753C176.974 73.1468 178.017 71.6335 179.021 70.0458C180.025 68.4595 180.942 66.8767 181.769 65.3149Z" fill="white" fill-opacity="0.2"/>
</g>
<path d="M170.365 70.3479C173.454 70.3982 175.996 68.0701 176.044 65.1479C176.091 62.2258 173.626 59.8162 170.538 59.7659C167.449 59.7156 164.907 62.0437 164.859 64.9658C164.812 67.8879 167.277 70.2976 170.365 70.3479Z" fill="white"/>
<g filter="url(#filter4_b_415_11747)">
<rect x="415.767" y="332.938" width="78.7797" height="78.7797" rx="14.0678" transform="rotate(0.656233 415.767 332.938)" fill="white" fill-opacity="0.1"/>
<rect x="415.303" y="332.464" width="79.7175" height="79.7175" rx="14.5367" transform="rotate(0.656233 415.303 332.464)" stroke="white" stroke-opacity="0.2" stroke-width="0.937853"/>
</g>
<path d="M441.663 367.843C441.654 368.581 441.727 369.181 441.862 369.622C442.017 370.063 442.211 370.544 442.484 371.066C442.582 371.227 442.62 371.387 442.619 371.527C442.617 371.727 442.494 371.925 442.233 372.122L440.965 372.946C440.784 373.063 440.604 373.121 440.444 373.119C440.245 373.117 440.046 373.015 439.849 372.833C439.573 372.53 439.337 372.208 439.141 371.887C438.945 371.545 438.75 371.163 438.536 370.702C436.958 372.52 434.991 373.416 432.635 373.389C430.959 373.37 429.627 372.876 428.659 371.906C427.692 370.937 427.208 369.654 427.226 368.057C427.246 366.36 427.86 364.99 429.09 363.965C430.319 362.941 431.942 362.441 433.998 362.464C434.677 362.472 435.375 362.54 436.112 362.648C436.85 362.757 437.607 362.925 438.403 363.114L438.42 361.657C438.437 360.14 438.13 359.078 437.518 358.452C436.886 357.826 435.812 357.514 434.275 357.497C433.576 357.489 432.857 357.56 432.116 357.731C431.375 357.903 430.654 358.114 429.952 358.385C429.631 358.521 429.391 358.599 429.251 358.637C429.111 358.675 429.01 358.694 428.931 358.693C428.651 358.69 428.514 358.489 428.519 358.069L428.53 357.091C428.533 356.772 428.576 356.533 428.677 356.394C428.779 356.256 428.96 356.118 429.241 355.982C429.944 355.63 430.786 355.34 431.767 355.112C432.748 354.864 433.787 354.756 434.885 354.768C437.26 354.796 438.991 355.355 440.096 356.445C441.182 357.536 441.722 359.179 441.697 361.375L441.623 367.842L441.663 367.843ZM433.524 370.784C434.182 370.792 434.862 370.68 435.584 370.448C436.305 370.217 436.949 369.785 437.495 369.193C437.819 368.817 438.063 368.4 438.188 367.923C438.313 367.445 438.4 366.867 438.408 366.188L438.417 365.35C437.84 365.204 437.223 365.077 436.585 364.99C435.947 364.902 435.328 364.855 434.71 364.848C433.372 364.833 432.391 365.081 431.726 365.613C431.061 366.144 430.733 366.899 430.722 367.897C430.711 368.835 430.943 369.537 431.436 370.022C431.91 370.526 432.605 370.774 433.524 370.784ZM449.528 373.124C449.169 373.119 448.93 373.057 448.772 372.915C448.614 372.794 448.477 372.513 448.362 372.132L443.847 356.648C443.732 356.247 443.675 355.987 443.677 355.847C443.68 355.528 443.842 355.35 444.162 355.354L446.118 355.376C446.497 355.381 446.756 355.443 446.894 355.585C447.052 355.706 447.169 355.987 447.284 356.368L450.487 369.621L453.752 356.442C453.856 356.044 453.979 355.786 454.14 355.668C454.301 355.55 454.582 355.473 454.941 355.477L456.538 355.496C456.917 355.5 457.176 355.563 457.334 355.704C457.492 355.826 457.629 356.107 457.704 356.487L460.705 369.898L464.312 356.563C464.436 356.165 464.579 355.907 464.72 355.789C464.881 355.671 465.141 355.594 465.501 355.598L467.357 355.62C467.676 355.623 467.854 355.785 467.85 356.124C467.849 356.224 467.828 356.324 467.807 356.443C467.785 356.563 467.744 356.722 467.661 356.941L462.674 372.316C462.549 372.714 462.407 372.972 462.246 373.09C462.085 373.207 461.824 373.284 461.485 373.28L459.768 373.261C459.389 373.256 459.13 373.194 458.972 373.052C458.814 372.911 458.677 372.649 458.602 372.249L455.655 359.339L452.434 372.159C452.33 372.557 452.207 372.815 452.046 372.953C451.884 373.091 451.604 373.147 451.245 373.143L449.528 373.124ZM475.173 373.956C474.135 373.944 473.098 373.813 472.103 373.562C471.107 373.311 470.332 373.042 469.816 372.737C469.499 372.554 469.282 372.352 469.204 372.171C469.126 371.99 469.088 371.79 469.09 371.611L469.102 370.593C469.107 370.174 469.269 369.976 469.568 369.979C469.688 369.981 469.808 370.002 469.927 370.043C470.046 370.084 470.225 370.166 470.424 370.248C471.099 370.556 471.835 370.804 472.611 370.972C473.408 371.141 474.186 371.23 474.984 371.239C476.242 371.253 477.222 371.045 477.906 370.614C478.59 370.182 478.956 369.548 478.966 368.729C478.972 368.17 478.798 367.709 478.443 367.326C478.088 366.942 477.413 366.595 476.439 366.265L473.554 365.333C472.102 364.857 471.032 364.166 470.384 363.261C469.735 362.375 469.407 361.393 469.419 360.355C469.429 359.516 469.617 358.78 469.983 358.145C470.35 357.51 470.835 356.957 471.439 356.525C472.043 356.073 472.726 355.741 473.527 355.511C474.328 355.28 475.168 355.19 476.046 355.2C476.485 355.205 476.944 355.23 477.383 355.295C477.841 355.36 478.259 355.445 478.678 355.53C479.076 355.634 479.454 355.738 479.812 355.862C480.17 355.986 480.448 356.109 480.646 356.231C480.924 356.394 481.122 356.556 481.239 356.737C481.357 356.898 481.415 357.118 481.411 357.398L481.401 358.336C481.396 358.755 481.234 358.973 480.934 358.969C480.774 358.967 480.516 358.885 480.178 358.721C479.047 358.189 477.772 357.915 476.355 357.899C475.217 357.886 474.317 358.055 473.693 358.427C473.07 358.799 472.744 359.375 472.735 360.193C472.728 360.752 472.923 361.233 473.317 361.617C473.712 362.001 474.447 362.389 475.501 362.74L478.325 363.671C479.757 364.147 480.788 364.797 481.397 365.623C482.006 366.448 482.295 367.39 482.283 368.428C482.273 369.286 482.085 370.063 481.738 370.737C481.371 371.412 480.885 372.005 480.26 372.477C479.636 372.969 478.893 373.32 478.032 373.57C477.13 373.839 476.191 373.968 475.173 373.956Z" fill="white"/>
<path d="M478.835 383.701C472.212 388.476 462.641 390.942 454.437 390.848C442.939 390.716 432.627 386.346 424.883 379.19C424.271 378.624 424.839 377.871 425.572 378.319C433.98 383.327 444.385 386.42 455.185 386.544C462.471 386.628 470.493 385.202 477.894 382.173C478.998 381.686 479.922 382.914 478.835 383.701ZM481.605 380.618C480.779 379.53 476.062 380.035 473.923 380.27C473.283 380.343 473.19 379.783 473.774 379.37C477.557 376.778 483.716 377.608 484.424 378.494C485.133 379.401 484.144 385.558 480.597 388.472C480.053 388.925 479.536 388.68 479.783 388.084C480.604 386.117 482.431 381.685 481.605 380.618Z" fill="white"/>
<g filter="url(#filter5_b_415_11747)">
<rect x="210.412" y="166" width="78.7797" height="78.7797" rx="14.0678" fill="white" fill-opacity="0.1"/>
<rect x="209.943" y="165.531" width="79.7175" height="79.7175" rx="14.5367" stroke="white" stroke-opacity="0.2" stroke-width="0.937853"/>
</g>
<path d="M229.67 214.575L235.584 176.53C235.627 176.248 235.758 175.987 235.958 175.783C236.158 175.58 236.417 175.445 236.698 175.397C236.979 175.349 237.268 175.392 237.524 175.518C237.78 175.644 237.99 175.848 238.123 176.1L244.483 188.032L229.67 214.575ZM271.674 223.807L266.042 188.795C266 188.55 265.892 188.32 265.729 188.132C265.567 187.944 265.355 187.804 265.118 187.728C264.881 187.652 264.628 187.642 264.386 187.7C264.144 187.758 263.922 187.882 263.746 188.057L228.231 223.807L247.882 234.881C248.488 235.222 249.171 235.401 249.866 235.401C250.562 235.401 251.245 235.222 251.851 234.881L271.674 223.807ZM255.705 193.254L251.153 184.546C251.038 184.327 250.866 184.143 250.654 184.015C250.443 183.887 250.2 183.82 249.953 183.82C249.705 183.82 249.463 183.887 249.251 184.015C249.04 184.143 248.867 184.327 248.752 184.546L228.769 220.355L255.705 193.254Z" fill="white"/>
<g filter="url(#filter6_b_415_11747)">
<rect x="360.62" y="216.795" width="78.7797" height="78.7797" rx="14.0678" fill="white" fill-opacity="0.1"/>
<rect x="360.151" y="216.326" width="79.7175" height="79.7175" rx="14.5367" stroke="white" stroke-opacity="0.2" stroke-width="0.937853"/>
</g>
<g clip-path="url(#clip1_415_11747)">
<path d="M369.959 276.345C370.064 277.671 370.529 279.005 371.746 280.795C373.193 282.921 375.681 284.092 377.503 282.224C378.731 280.964 392.041 257.803 398.45 249.027C398.626 248.776 398.86 248.571 399.132 248.43C399.404 248.289 399.706 248.216 400.012 248.216C400.318 248.217 400.62 248.291 400.892 248.433C401.163 248.576 401.396 248.781 401.571 249.033C407.947 257.833 421.167 281.045 422.39 282.31C424.205 284.185 426.698 283.024 428.152 280.903C429.582 278.818 429.98 277.356 429.983 275.79C429.985 274.725 409.401 236.241 407.326 233.035C405.332 229.955 404.723 229.284 401.339 229.167L398.758 229.162C395.374 229.266 394.763 229.933 392.753 233.007C390.712 236.137 370.791 273.03 369.961 275.56L369.959 276.345Z" fill="white"/>
</g>
<g filter="url(#filter7_b_415_11747)">
<path d="M322.855 303.864H260.217C256.019 303.864 252.615 307.268 252.615 311.466V374.104C252.615 378.303 256.019 381.706 260.217 381.706H322.855C327.054 381.706 330.457 378.303 330.457 374.104V311.466C330.457 307.268 327.054 303.864 322.855 303.864Z" fill="white" fill-opacity="0.1"/>
<path d="M322.855 303.395H260.217C255.76 303.395 252.146 307.009 252.146 311.466V374.104C252.146 378.562 255.76 382.175 260.217 382.175H322.855C327.313 382.175 330.926 378.562 330.926 374.104V311.466C330.926 307.009 327.313 303.395 322.855 303.395Z" stroke="white" stroke-opacity="0.2" stroke-width="0.937853"/>
</g>
<path fill-rule="evenodd" clip-rule="evenodd" d="M300.517 365.852V373.454C301.748 374.093 303.253 374.564 304.926 374.883C306.598 375.202 308.422 375.354 310.247 375.354C312.071 375.354 313.744 375.187 315.416 374.838C317.088 374.488 318.457 373.91 319.673 373.165C320.904 372.359 321.954 371.341 322.562 369.972C323.17 368.604 323.641 367.084 323.641 365.107C323.641 363.724 323.428 362.523 323.018 361.458C322.607 360.394 322.014 359.482 321.193 358.722C320.418 357.916 319.521 357.201 318.457 356.593C317.392 355.985 316.176 355.347 314.808 354.769C313.804 354.358 312.983 353.963 312.071 353.568C311.281 353.173 310.597 352.777 310.095 352.382C309.532 351.971 309.107 351.546 308.803 351.105C308.498 350.649 308.346 350.147 308.346 349.585C308.346 349.068 308.482 348.596 308.757 348.171C309.032 347.745 309.411 347.395 309.897 347.091C310.384 346.787 310.992 346.559 311.722 346.392C312.436 346.225 313.227 346.149 314.154 346.149C314.793 346.149 315.462 346.196 316.131 346.291C316.83 346.387 317.545 346.535 318.259 346.732C318.974 346.93 319.673 347.173 320.388 347.477C321.057 347.781 321.68 348.131 322.212 348.526V341.381C321.057 340.94 319.779 340.605 318.411 340.393C317.043 340.18 315.522 340.073 313.698 340.073C311.874 340.073 310.201 340.271 308.529 340.651C306.856 341.031 305.488 341.639 304.272 342.475C303.04 343.296 302.143 344.3 301.383 345.668C300.669 346.945 300.319 348.405 300.319 350.229C300.319 352.51 300.973 354.486 302.295 356.006C303.603 357.679 305.64 358.895 308.225 360.111C309.274 360.537 310.201 360.963 311.113 361.373C312.026 361.784 312.786 362.21 313.394 362.65C314.048 363.091 314.565 363.578 314.914 364.095C315.294 364.612 315.492 365.22 315.492 365.919C315.492 366.406 315.373 366.862 315.142 367.287C314.911 367.713 314.549 368.078 314.063 368.382C313.576 368.686 312.983 368.929 312.239 369.112C311.524 369.279 310.718 369.37 309.654 369.37C307.982 369.37 306.309 369.081 304.789 368.504C303.116 367.926 301.596 367.059 300.228 365.919L300.517 365.852ZM287.746 347.152H297.476V340.919H270.262V347.152H279.992V374.974H287.746V347.152Z" fill="white"/>
<g filter="url(#filter8_b_415_11747)">
<rect x="282.627" y="440.791" width="78.7797" height="78.7797" rx="14.0678" fill="white" fill-opacity="0.1"/>
<rect x="282.158" y="440.322" width="79.7175" height="79.7175" rx="14.5367" stroke="white" stroke-opacity="0.2" stroke-width="0.937853"/>
</g>
<g clip-path="url(#clip2_415_11747)">
<path d="M322.093 453.657C307.025 453.657 294.818 465.874 294.818 480.932C294.818 492.989 302.633 503.208 313.462 506.814C314.831 507.071 315.326 506.227 315.326 505.498C315.326 504.85 315.31 503.137 315.3 500.863C307.709 502.506 306.11 497.196 306.11 497.196C304.867 494.052 303.074 493.209 303.074 493.209C300.606 491.523 303.27 491.559 303.27 491.559C306.004 491.744 307.443 494.363 307.443 494.363C309.876 498.536 313.825 497.329 315.389 496.627C315.627 494.869 316.338 493.66 317.112 492.987C311.057 492.303 304.69 489.96 304.69 479.508C304.69 476.523 305.747 474.093 307.494 472.183C307.193 471.5 306.269 468.721 307.735 464.964C307.735 464.964 310.017 464.236 315.235 467.761C317.419 467.156 319.737 466.855 322.054 466.839C324.372 466.855 326.689 467.158 328.872 467.761C334.06 464.236 336.341 464.964 336.341 464.964C337.805 468.721 336.881 471.498 336.615 472.183C338.345 474.093 339.402 476.525 339.402 479.508C339.402 489.983 333.027 492.293 326.965 492.96C327.913 493.776 328.801 495.455 328.801 498.004C328.801 501.652 328.767 504.591 328.767 505.479C328.767 506.188 329.244 507.04 330.649 506.766C341.559 503.198 349.364 492.97 349.364 480.93C349.364 465.873 337.157 453.655 322.09 453.655L322.093 453.657Z" fill="white"/>
</g>
<g filter="url(#filter9_b_415_11747)">
<rect x="129.756" y="416.407" width="78.7797" height="78.7797" rx="14.0678" fill="white" fill-opacity="0.1"/>
<rect x="129.287" y="415.938" width="79.7175" height="79.7175" rx="14.5367" stroke="white" stroke-opacity="0.2" stroke-width="0.937853"/>
</g>
<path d="M194.178 438.911L170.971 480.409C170.492 481.266 169.261 481.271 168.774 480.418L145.107 438.915C144.577 437.986 145.372 436.86 146.425 437.049L169.657 441.201C169.805 441.228 169.957 441.227 170.105 441.2L192.851 437.054C193.9 436.863 194.698 437.98 194.178 438.911V438.911Z" fill="url(#paint2_linear_415_11747)"/>
<path d="M180.723 431.602L163.549 434.967C163.412 434.994 163.288 435.066 163.196 435.171C163.104 435.276 163.049 435.409 163.041 435.549L161.985 453.391C161.979 453.489 161.996 453.587 162.034 453.677C162.073 453.767 162.132 453.847 162.207 453.91C162.282 453.973 162.37 454.018 162.466 454.041C162.561 454.064 162.66 454.065 162.756 454.043L167.537 452.939C167.985 452.836 168.389 453.23 168.297 453.68L166.876 460.636C166.781 461.105 167.22 461.505 167.677 461.366L170.631 460.469C171.089 460.33 171.529 460.731 171.432 461.2L169.174 472.126C169.033 472.81 169.942 473.183 170.321 472.597L170.574 472.205L184.569 444.277C184.803 443.81 184.399 443.277 183.885 443.376L178.963 444.326C178.501 444.415 178.108 443.984 178.238 443.532L181.45 432.396C181.581 431.942 181.186 431.511 180.723 431.602H180.723Z" fill="url(#paint3_linear_415_11747)"/>
<g filter="url(#filter10_b_415_11747)">
<rect x="104.435" y="254.158" width="78.7797" height="78.7797" rx="14.0678" fill="white" fill-opacity="0.1"/>
<rect x="103.966" y="253.689" width="79.7175" height="79.7175" rx="14.5367" stroke="white" stroke-opacity="0.2" stroke-width="0.937853"/>
</g>
<path d="M156.753 293.795V293.847V293.917V293.97V294.023L156.771 294.093V294.145V294.198L156.788 294.268V294.321L156.806 294.373L156.823 294.444V294.496L156.841 294.566L156.858 294.619L156.876 294.689V294.759L156.893 294.812L156.911 294.882L156.929 294.952L156.946 295.005L156.981 295.075L156.999 295.145L157.016 295.215L157.034 295.285L157.051 295.356L157.086 295.426L157.104 295.513L157.121 295.584L157.157 295.654L157.174 295.724L157.209 295.812L157.227 295.882L157.262 295.97L157.279 296.057L157.314 296.145L157.35 296.215L157.367 296.303L157.402 296.391L157.437 296.478L157.455 296.583L157.49 296.671L157.507 296.759L157.542 296.864L157.578 296.952L157.595 297.057L157.63 297.162L157.665 297.25L157.683 297.355L157.718 297.46L157.753 297.566L157.77 297.689L157.806 297.794L157.823 297.899L157.858 298.022L157.876 298.127L157.911 298.25L157.928 298.373L157.946 298.495L157.981 298.618L157.999 298.741L158.016 298.864L158.034 299.004L158.069 299.127L158.086 299.267L158.104 299.39L158.121 299.53V299.671L158.139 299.811L158.156 299.951L158.174 300.092V300.232L158.191 300.372V300.53V300.67L158.209 300.828V300.986V301.126V301.284L158.191 301.442V301.6V301.758L158.174 301.933V302.091L158.156 302.249L158.139 302.424L158.121 302.6L158.104 302.758L158.086 302.933L158.069 303.109L158.034 303.284L157.999 303.442L157.981 303.617L157.946 303.81L157.911 303.986L157.876 304.161L157.823 304.336L157.788 304.512L157.735 304.705L157.683 304.88L157.63 305.073L157.578 305.248L157.525 305.441L157.455 305.617L157.402 305.81L157.332 306.003L157.262 306.178L157.192 306.371L157.121 306.564L157.034 306.739L156.964 306.932L156.876 307.125L156.788 307.318L156.701 307.494L156.595 307.687L156.508 307.88L156.402 308.072L156.297 308.265L156.192 308.441L156.087 308.634L155.964 308.827L155.859 309.02L155.736 309.195L155.613 309.388L155.49 309.581L155.35 309.756L155.227 309.949L155.087 310.125L154.946 310.318L154.806 310.493L154.648 310.686L154.508 310.861L154.35 311.037L154.192 311.212L154.034 311.388L153.877 311.581L153.701 311.738L153.543 311.914L153.368 312.089L153.192 312.265L152.999 312.423L152.824 312.598L152.631 312.756L152.438 312.931L152.245 313.089L152.052 313.247L151.859 313.405L151.649 313.563L151.438 313.703L151.245 313.861L151.017 314.001L150.807 314.159L150.596 314.299L150.368 314.44L150.14 314.58L149.912 314.72L149.684 314.843L149.456 314.983L149.211 315.106L148.983 315.229L148.737 315.352L148.492 315.475L148.246 315.58L148 315.703L147.755 315.808L147.492 315.913L147.229 316.018L146.983 316.106L146.72 316.211L146.457 316.299L146.176 316.387L145.913 316.474L145.65 316.545L145.369 316.632L145.089 316.702L144.826 316.773L144.545 316.843L144.264 316.895L143.984 316.965L143.703 317.018L143.405 317.071L143.124 317.106L142.826 317.158L142.545 317.194L142.247 317.229L141.967 317.264L141.668 317.281L141.37 317.299L141.072 317.316L140.774 317.334H140.476L140.177 317.351H139.879L139.581 317.334H139.283L138.967 317.316L138.669 317.299L138.371 317.281L138.055 317.246L137.757 317.211L137.459 317.176L137.143 317.141L136.845 317.088L136.547 317.036L136.231 316.983L135.933 316.93L135.634 316.86L135.336 316.79L135.02 316.72L134.722 316.65L134.424 316.562L134.126 316.474L133.828 316.387L133.53 316.281L133.231 316.194L132.933 316.088L132.635 315.966L132.337 315.86L132.039 315.738L131.758 315.615L131.46 315.492L131.179 315.352L130.881 315.211L130.6 315.071L130.32 314.931L130.039 314.773L129.758 314.615L129.478 314.457L129.197 314.299L128.916 314.124L128.653 313.949L128.373 313.773L128.11 313.598L127.846 313.405L127.583 313.229L127.32 313.036L127.075 312.826L126.812 312.633L126.566 312.423L126.32 312.212L126.075 312.002L125.829 311.791L125.584 311.563L125.356 311.335L125.11 311.107L124.882 310.879L124.654 310.651L124.444 310.405L124.216 310.16L124.005 309.914L123.795 309.669L123.584 309.423L123.374 309.16L123.181 308.914L122.97 308.651L122.777 308.388L122.584 308.108L122.409 307.844L122.233 307.564L122.041 307.301L121.865 307.02L121.707 306.739L121.532 306.459L121.374 306.161L121.216 305.88L121.076 305.582L120.918 305.301L120.778 305.003L120.637 304.705L120.497 304.407L120.374 304.108L120.251 303.81L120.129 303.494L120.006 303.196L119.901 302.88L119.795 302.582L119.69 302.267L119.585 301.951L119.497 301.635L119.409 301.319L119.322 301.004L119.252 300.688L119.164 300.372L119.111 300.056L119.041 299.741L118.971 299.425L118.918 299.109L118.866 298.776L118.831 298.46L118.796 298.145L118.76 297.811L118.725 297.496L118.69 297.18L118.673 296.847L118.655 296.531V296.215L118.638 295.882V295.566V295.25L118.655 294.917V294.601L118.673 294.286L118.708 293.97L118.725 293.654L118.76 293.338L118.796 293.023L118.831 292.707L118.883 292.391L118.936 292.076L118.989 291.76L119.041 291.462L119.111 291.146L119.181 290.848L119.252 290.532L119.322 290.234L119.409 289.936L119.497 289.637L119.585 289.339L119.673 289.041L119.778 288.743L119.866 288.445L119.971 288.164L120.094 287.883L120.199 287.585L120.322 287.305L120.444 287.024L120.567 286.743L120.69 286.48L120.83 286.199L120.971 285.936L121.111 285.656L121.251 285.393L121.409 285.13L121.549 284.884L121.707 284.621L121.865 284.375L122.023 284.112L122.181 283.867L122.356 283.621L122.532 283.393L122.707 283.147L122.882 282.919L123.058 282.691L123.233 282.463L123.426 282.235L123.619 282.007L123.795 281.797L123.988 281.586L124.198 281.376L124.391 281.165L124.584 280.955L124.794 280.762L124.987 280.569L125.198 280.376L125.408 280.183L125.619 279.99L125.829 279.815L126.04 279.639L126.268 279.464L126.478 279.289L126.706 279.131L126.917 278.973L127.145 278.815L127.373 278.657L127.601 278.499L127.811 278.359L128.039 278.219L128.267 278.078L128.513 277.938L128.741 277.815L128.969 277.675L129.197 277.552L129.425 277.447L129.671 277.324L129.899 277.219L130.127 277.096L130.372 276.991L130.6 276.903L130.846 276.798L131.074 276.71L131.319 276.622L131.547 276.535L131.793 276.447L132.021 276.377L132.249 276.307L132.495 276.237L132.723 276.166L132.968 276.096L133.196 276.044L133.424 275.991L133.67 275.938L133.898 275.886L134.126 275.833L134.371 275.798L134.6 275.763L134.828 275.728L135.056 275.693L135.284 275.658L135.512 275.64L135.74 275.623L135.968 275.605L136.196 275.588L136.406 275.57H136.634L136.862 275.552H137.073H137.301L137.511 275.57H137.722H137.932L138.143 275.588L138.353 275.605L138.564 275.623L138.774 275.64L138.985 275.658L139.178 275.693L139.388 275.71L139.581 275.745L139.792 275.78L139.984 275.816L140.177 275.851L140.37 275.886L140.563 275.938L140.739 275.973L140.932 276.026L141.107 276.061L141.3 276.114L141.475 276.166L141.651 276.219L141.826 276.272L142.002 276.342L142.177 276.394L142.335 276.447L142.51 276.517L142.668 276.57L142.826 276.64L142.984 276.71L143.142 276.78L143.3 276.85L143.457 276.921L143.615 276.991L143.756 277.061L143.896 277.131L144.054 277.201L144.194 277.271L144.334 277.359L144.457 277.429L144.598 277.499L144.738 277.587L144.861 277.657L144.983 277.745L145.124 277.815L145.247 277.903L145.352 277.991L145.475 278.061L145.597 278.148L145.703 278.219L145.825 278.306L145.931 278.394L146.036 278.464L146.141 278.552L146.246 278.64L146.352 278.71L146.457 278.797L146.545 278.885L146.65 278.955L146.738 279.043L146.843 279.131L146.93 279.201L147.018 279.289L147.106 279.376L147.194 279.446L147.264 279.534L147.351 279.604L147.439 279.692L147.509 279.762L147.579 279.832L147.667 279.92L147.737 279.99L147.807 280.06L147.878 280.148L147.948 280.218L148.018 280.288L148.088 280.359L148.141 280.429L148.211 280.499L148.264 280.569L148.334 280.639L148.386 280.709L148.456 280.762L148.509 280.832L148.562 280.902L148.614 280.955L148.685 281.025L148.737 281.095L148.79 281.148L148.842 281.2L148.895 281.271L148.948 281.323L149 281.376L149.035 281.428L149.088 281.481L149.141 281.534L149.193 281.586L149.246 281.639L149.281 281.692L149.334 281.744L149.386 281.779L149.439 281.832L149.474 281.867L149.526 281.92L149.579 281.955L149.614 282.007L149.667 282.042L149.719 282.077L149.754 282.113L149.807 282.148L149.86 282.183L149.895 282.218L149.947 282.253L150 282.288L150.053 282.323L150.088 282.358L150.14 282.376L150.193 282.411L150.246 282.446L150.298 282.463L150.351 282.498L150.403 282.516L150.456 282.551L150.509 282.569L150.561 282.586L150.614 282.621L150.667 282.639L150.737 282.656L150.789 282.674L150.842 282.691L150.912 282.726L150.965 282.744L151.035 282.762L151.088 282.779L151.158 282.797L151.228 282.814L151.298 282.832L151.351 282.849L151.421 282.867L151.491 282.884L151.561 282.902H151.631L151.719 282.919L151.789 282.937L151.859 282.955L151.947 282.972L152.017 282.99L152.105 283.007L152.175 283.025L152.263 283.042L152.35 283.06L152.438 283.077L152.526 283.095L152.614 283.112L152.701 283.13L152.789 283.147L152.877 283.165L152.982 283.183L153.07 283.218L153.175 283.235L153.263 283.253L153.368 283.288L153.456 283.305L153.561 283.323L153.666 283.358L153.771 283.393L153.877 283.411L153.982 283.446L154.105 283.481L154.21 283.498L154.315 283.533L154.438 283.568L154.543 283.604L154.666 283.656L154.771 283.691L154.894 283.726L155.017 283.779L155.139 283.814L155.245 283.867L155.367 283.902L155.49 283.954L155.613 284.007L155.753 284.06L155.876 284.112L155.999 284.165L156.122 284.235L156.262 284.288L156.385 284.358L156.508 284.41L156.648 284.481L156.771 284.551L156.911 284.621L157.051 284.691L157.174 284.761L157.314 284.849L157.437 284.919L157.578 285.007L157.718 285.094L157.858 285.182L157.981 285.27L158.121 285.358L158.262 285.463L158.402 285.551L158.542 285.656L158.665 285.761L158.805 285.866L158.946 285.971L159.086 286.077L159.226 286.182L159.349 286.305L159.489 286.428L159.63 286.55L159.77 286.673L159.893 286.796L160.033 286.919L160.174 287.059L160.296 287.199L160.437 287.322L160.559 287.462L160.7 287.62L160.823 287.761L160.963 287.901L161.086 288.059L161.208 288.217L161.331 288.375L161.454 288.532L161.577 288.69L161.7 288.866L161.822 289.024L161.945 289.199L162.068 289.374L162.191 289.55L162.296 289.725L162.419 289.918L162.524 290.093L162.629 290.286L162.734 290.479L162.84 290.672L162.945 290.865L163.05 291.058L163.155 291.269L163.243 291.479L163.348 291.672L163.436 291.883L163.524 292.093L163.611 292.321L163.699 292.532L163.787 292.742L163.857 292.97L163.945 293.198L164.015 293.426L164.085 293.654L164.155 293.882L164.225 294.11L164.296 294.338L164.348 294.584L164.401 294.829L164.453 295.057L164.506 295.303L164.559 295.549L164.611 295.794L164.646 296.04L164.681 296.303L164.717 296.548L164.752 296.794L164.787 297.057L164.804 297.32L164.822 297.566L164.839 297.829L164.857 298.092L164.874 298.355V298.618V298.881V299.144V299.425L164.857 299.688L164.839 299.951L164.822 300.232L164.804 300.495L164.787 300.776L164.752 301.039L164.717 301.319L164.681 301.582L164.646 301.863L164.594 302.144L164.541 302.407L164.488 302.688L164.436 302.968L164.366 303.231L164.296 303.512L164.225 303.793L164.155 304.056L164.085 304.336L163.997 304.617L163.91 304.88L163.822 305.161L163.717 305.424L163.611 305.705L163.506 305.968L163.401 306.248L163.296 306.511L163.173 306.792L163.05 307.055L162.927 307.318L162.787 307.581L162.647 307.844L162.524 308.108L162.366 308.371L162.226 308.634L162.068 308.897L161.91 309.16L161.752 309.406L161.594 309.669L161.419 309.914L161.244 310.16L161.068 310.423L160.893 310.668L160.7 310.896L160.524 311.142L160.331 311.388L160.121 311.616L159.928 311.861L159.717 312.089L159.507 312.317L159.297 312.545L159.086 312.773L158.858 313.001L158.63 313.212L158.419 313.422L158.174 313.633L157.946 313.843L157.7 314.054L157.472 314.264L157.227 314.457L156.981 314.65L156.718 314.843L156.472 315.036L156.209 315.229L155.946 315.404L155.683 315.58L155.42 315.755L155.139 315.931L154.876 316.106L154.596 316.264L154.315 316.422L154.034 316.58L153.754 316.737L153.473 316.878L153.175 317.018L152.894 317.158L152.596 317.299L152.298 317.422L152 317.562L151.701 317.667L151.403 317.79L151.088 317.913L150.789 318.018L150.474 318.123L150.175 318.228L149.86 318.316L149.544 318.404L149.228 318.492L148.913 318.579L148.597 318.649L148.281 318.72L147.965 318.79L147.632 318.86L147.316 318.912L147.001 318.965L146.667 319.018L146.352 319.053L146.018 319.088L145.685 319.123L145.369 319.158L145.036 319.176L144.72 319.193L144.387 319.211L144.054 319.228H143.721H143.405H143.072L142.738 319.211L142.423 319.193L142.089 319.176L141.756 319.158L141.44 319.123L141.107 319.088L140.791 319.053L140.458 319L140.142 318.948L139.809 318.895L139.493 318.842L139.178 318.772L138.844 318.702L138.529 318.632L138.213 318.562L137.897 318.474L137.581 318.386L137.266 318.299L136.967 318.193L136.652 318.106L136.354 318L136.038 317.878L135.74 317.772L135.441 317.65L135.126 317.527L134.845 317.404L134.547 317.264L134.249 317.141L133.951 317.001L133.67 316.843L133.389 316.702L133.091 316.545L132.81 316.387L132.547 316.229L132.267 316.071L131.986 315.896L131.723 315.72L131.46 315.545L131.197 315.369L130.934 315.194L130.67 315.001L130.425 314.808L130.179 314.615L129.916 314.422L129.688 314.212L129.443 314.019L129.197 313.808L128.969 313.598L128.741 313.387L128.513 313.159L128.285 312.949L128.074 312.721L127.846 312.493L127.636 312.282L127.425 312.037L127.233 311.809L127.022 311.581L126.829 311.335L126.636 311.089L126.461 310.861L126.268 310.616L126.092 310.37L125.917 310.107L125.742 309.862L125.566 309.616L125.408 309.353L125.25 309.107L125.093 308.844L124.935 308.581L124.794 308.318L124.654 308.055L124.514 307.792L124.373 307.529L124.251 307.266L124.128 307.002L124.005 306.722L123.882 306.459L123.777 306.196L123.654 305.915L123.567 305.652L123.461 305.371L123.356 305.108L123.268 304.827L123.181 304.547L123.093 304.284L123.023 304.003L122.953 303.722L122.882 303.459L122.812 303.179L122.76 302.898L122.69 302.635L122.637 302.354L122.584 302.074L122.549 301.811L122.514 301.53L122.462 301.267L122.444 300.986L122.409 300.723L122.391 300.442L122.356 300.179V299.899L122.339 299.636L122.321 299.372V299.092V298.829V298.566L122.339 298.302V298.039L122.356 297.776L122.374 297.513L122.391 297.268L122.426 297.004L122.444 296.759L122.479 296.496L122.514 296.25L122.549 295.987L122.602 295.742L122.637 295.496L122.69 295.25L122.742 295.005L122.795 294.777L122.865 294.531L122.918 294.303L122.988 294.058L123.058 293.83L123.128 293.602L123.198 293.374L123.268 293.146L123.356 292.917L123.426 292.707L123.514 292.479L123.602 292.269L123.689 292.058L123.777 291.848L123.865 291.637L123.97 291.427L124.058 291.234L124.163 291.023L124.268 290.83L124.373 290.637L124.479 290.444L124.584 290.251L124.689 290.058L124.812 289.883L124.917 289.69L125.04 289.515L125.163 289.339L125.268 289.164L125.391 288.988L125.514 288.831L125.636 288.655L125.759 288.497L125.882 288.339L126.005 288.182L126.145 288.024L126.268 287.883L126.391 287.726L126.531 287.585L126.654 287.445L126.794 287.305L126.917 287.164L127.057 287.024L127.197 286.901L127.32 286.761L127.461 286.638L127.601 286.515L127.724 286.392L127.864 286.287L128.004 286.164L128.145 286.059L128.285 285.954L128.408 285.831L128.548 285.726L128.688 285.638L128.829 285.533L128.969 285.445L129.092 285.34L129.232 285.252L129.372 285.165L129.513 285.077L129.636 284.989L129.776 284.902L129.916 284.831L130.039 284.761L130.179 284.673L130.32 284.603L130.442 284.533L130.583 284.463L130.706 284.393L130.846 284.34L130.969 284.27L131.091 284.217L131.232 284.165L131.355 284.095L131.477 284.042L131.6 283.989L131.723 283.954L131.846 283.902L131.968 283.849L132.091 283.814L132.214 283.761L132.319 283.726L132.442 283.674L132.565 283.639L132.67 283.604L132.793 283.568L132.898 283.533L133.003 283.498L133.126 283.463L133.231 283.446L133.337 283.411L133.442 283.375L133.547 283.358L133.652 283.323L133.758 283.305L133.845 283.27L133.951 283.253L134.056 283.235L134.143 283.2L134.249 283.183L134.336 283.165L134.424 283.147L134.512 283.13L134.6 283.112L134.687 283.095L134.775 283.077L134.863 283.06L134.95 283.042L135.038 283.025L135.108 283.007L135.196 282.99L135.266 282.972L135.354 282.955L135.424 282.937L135.494 282.919L135.564 282.902L135.634 282.884L135.722 282.867L135.775 282.849H135.845L135.915 282.832L135.985 282.814L136.055 282.797L136.108 282.779L136.178 282.762L136.231 282.726L136.301 282.709L136.354 282.691L136.424 282.674L136.476 282.656L136.529 282.639L136.582 282.604L136.652 282.586L136.704 282.569L136.757 282.534L136.81 282.516L136.862 282.498L136.915 282.463L136.967 282.428L137.003 282.411L137.055 282.376L137.108 282.341L137.16 282.323L137.213 282.288L137.248 282.253L137.301 282.218L137.353 282.183L137.406 282.148L137.441 282.113L137.494 282.077L137.546 282.025L137.581 281.99L137.634 281.955L137.687 281.902L137.722 281.867L137.774 281.814L137.827 281.779L137.862 281.727L137.915 281.674L137.967 281.621L138.02 281.586L138.055 281.534L138.108 281.481L138.16 281.428L138.213 281.358L138.265 281.306L138.318 281.253L138.371 281.2L138.423 281.13L138.476 281.078L138.529 281.008L138.581 280.955L138.634 280.885L138.704 280.815L138.757 280.762L138.809 280.692L138.879 280.622L138.932 280.551L139.002 280.481L139.072 280.411L139.125 280.341L139.195 280.271L139.265 280.201L139.335 280.13L139.406 280.043L139.476 279.973L139.546 279.902L139.634 279.815L139.704 279.745L139.774 279.674L139.862 279.587L139.949 279.517L140.02 279.429L140.107 279.359L140.195 279.271L140.283 279.183L140.37 279.113L140.476 279.025L140.563 278.955L140.669 278.868L140.756 278.78L140.861 278.71L140.967 278.622L141.072 278.534L141.177 278.464L141.282 278.376L141.388 278.289L141.51 278.219L141.616 278.131L141.738 278.043L141.861 277.973L141.984 277.885L142.107 277.798L142.23 277.727L142.352 277.64L142.493 277.57L142.616 277.499L142.756 277.412L142.896 277.342L143.036 277.254L143.177 277.184L143.317 277.114L143.475 277.043L143.615 276.973L143.773 276.903L143.931 276.833L144.071 276.763L144.229 276.693L144.405 276.622L144.563 276.57L144.72 276.5L144.896 276.447L145.054 276.377L145.229 276.324L145.404 276.272L145.58 276.219L145.755 276.166L145.931 276.114L146.124 276.061L146.299 276.008L146.492 275.973L146.685 275.921L146.878 275.886L147.053 275.851L147.264 275.798L147.457 275.763L147.65 275.745L147.843 275.71L148.053 275.675L148.264 275.658L148.456 275.64L148.667 275.623L148.877 275.605L149.088 275.588L149.298 275.57H149.509L149.737 275.552H149.947H150.158L150.386 275.57H150.614H150.824L151.052 275.588L151.281 275.605L151.509 275.623L151.737 275.64L151.965 275.675L152.193 275.693L152.421 275.728L152.649 275.763L152.877 275.798L153.105 275.851L153.35 275.886L153.578 275.938L153.806 275.991L154.052 276.061L154.28 276.114L154.508 276.184L154.754 276.237L154.982 276.307L155.227 276.394L155.455 276.465L155.701 276.552L155.929 276.64L156.174 276.728L156.402 276.815L156.648 276.921L156.876 277.026L157.104 277.131L157.35 277.236L157.578 277.342L157.806 277.464L158.051 277.587L158.279 277.71L158.507 277.833L158.735 277.973L158.963 278.096L159.191 278.236L159.419 278.394L159.647 278.534L159.875 278.692L160.103 278.85L160.314 279.008L160.542 279.166L160.752 279.324L160.98 279.499L161.191 279.674L161.401 279.85L161.612 280.043L161.822 280.218L162.033 280.411L162.243 280.604L162.454 280.797L162.647 281.008L162.84 281.2L163.05 281.411L163.243 281.621L163.436 281.832L163.629 282.06L163.804 282.27L163.997 282.498L164.173 282.726L164.348 282.955L164.524 283.2L164.699 283.428L164.874 283.674L165.032 283.919L165.208 284.165L165.366 284.428L165.523 284.673L165.681 284.937L165.822 285.182L165.979 285.445L166.12 285.726L166.26 285.989L166.383 286.252L166.523 286.533L166.646 286.813L166.786 287.077L166.892 287.357L167.014 287.655L167.137 287.936L167.242 288.217L167.348 288.515L167.453 288.813L167.541 289.094L167.628 289.392L167.716 289.69L167.804 289.988L167.891 290.304L167.961 290.602L168.032 290.9L168.102 291.216L168.172 291.514L168.225 291.83L168.277 292.146L168.33 292.461L168.365 292.76L168.4 293.075L168.435 293.391L168.47 293.707L168.505 294.04L168.523 294.356L168.54 294.672V294.987L168.558 295.303V295.636V295.952L168.54 296.268V296.601L168.523 296.917L168.488 297.232L168.47 297.566L168.435 297.881L168.4 298.197L168.365 298.53L168.312 298.846L168.26 299.162L168.207 299.495L168.137 299.811L168.084 300.127L168.014 300.442L167.926 300.758L167.856 301.074L167.769 301.39L167.681 301.705L167.593 302.021L167.488 302.337L167.383 302.635L167.277 302.951L167.155 303.249L167.049 303.565L166.927 303.863L166.804 304.161L166.664 304.477L166.523 304.775L166.383 305.056L166.243 305.354L166.102 305.652L165.944 305.933L165.786 306.231L165.629 306.511L165.453 306.792L165.295 307.073L165.12 307.353L164.927 307.634L164.752 307.897L164.559 308.178L164.366 308.441L164.173 308.704L163.98 308.967L163.787 309.213L163.576 309.476L163.366 309.721L163.155 309.967L162.927 310.212L162.717 310.458L162.489 310.704L162.261 310.932L162.033 311.16L161.805 311.388L161.559 311.616L161.314 311.826L161.068 312.054L160.823 312.265L160.577 312.475L160.331 312.668L160.068 312.879L159.823 313.072L159.56 313.264L159.297 313.457L159.033 313.633L158.753 313.808L158.49 313.984L158.209 314.159L157.946 314.334L157.665 314.492L157.385 314.65L157.104 314.808L156.823 314.948L156.543 315.106L156.244 315.247L155.964 315.369L155.683 315.51L155.385 315.632L155.087 315.755L154.806 315.878L154.508 316.001L154.21 316.106L153.912 316.211L153.613 316.299L153.315 316.404L153.017 316.492L152.719 316.58L152.403 316.667L152.105 316.737L151.807 316.808L151.509 316.878L151.193 316.948L150.895 317.001L150.596 317.053L150.281 317.106L149.983 317.141L149.684 317.194L149.369 317.229L149.07 317.264L148.772 317.281L148.456 317.299L148.158 317.316L147.86 317.334H147.562L147.264 317.351H146.966L146.65 317.334H146.352L146.071 317.316L145.773 317.299L145.475 317.281L145.176 317.246L144.878 317.229L144.598 317.194L144.299 317.141L144.019 317.106L143.721 317.053L143.44 317.001L143.159 316.948L142.879 316.895L142.598 316.825L142.317 316.755L142.037 316.685L141.774 316.615L141.493 316.545L141.23 316.457L140.949 316.369L140.686 316.281L140.423 316.194L140.16 316.088L139.914 315.983L139.651 315.896L139.406 315.79L139.143 315.667L138.897 315.562L138.651 315.439L138.406 315.317L138.16 315.194L137.932 315.071L137.687 314.948L137.459 314.826L137.231 314.685L137.003 314.545L136.775 314.405L136.564 314.264L136.336 314.124L136.126 313.984L135.915 313.826L135.705 313.685L135.494 313.528L135.301 313.37L135.108 313.212L134.898 313.054L134.705 312.896L134.529 312.721L134.336 312.563L134.161 312.405L133.968 312.23L133.793 312.054L133.617 311.879L133.459 311.703L133.284 311.528L133.126 311.353L132.968 311.177L132.81 311.002L132.653 310.826L132.512 310.651L132.354 310.458L132.214 310.283L132.074 310.09L131.951 309.914L131.811 309.721L131.688 309.546L131.565 309.353L131.442 309.16L131.319 308.967L131.197 308.792L131.091 308.599L130.986 308.406L130.863 308.213L130.776 308.037L130.67 307.844L130.565 307.651L130.478 307.459L130.39 307.266L130.302 307.09L130.214 306.897L130.144 306.704L130.057 306.511L129.986 306.336L129.916 306.143L129.846 305.95L129.776 305.775L129.723 305.582L129.653 305.406L129.6 305.213L129.548 305.038L129.495 304.845L129.443 304.67L129.408 304.477L129.355 304.301L129.32 304.126L129.285 303.95L129.25 303.775L129.215 303.582L129.18 303.407L129.162 303.249L129.127 303.073L129.109 302.898L129.092 302.723L129.074 302.565L129.057 302.389L129.039 302.231L129.022 302.056V301.898L129.004 301.74V301.565L128.987 301.407V301.249V301.109V300.951V300.793L129.004 300.653V300.495V300.355L129.022 300.197L129.039 300.056V299.916L129.057 299.776L129.074 299.636L129.092 299.495L129.109 299.372L129.127 299.232L129.144 299.092L129.162 298.969L129.18 298.846L129.197 298.723L129.232 298.601L129.25 298.478L129.267 298.355L129.302 298.232L129.32 298.109L129.355 298.004L129.372 297.881L129.408 297.776L129.425 297.653L129.46 297.548L129.478 297.443L129.513 297.338L129.548 297.232L129.565 297.127L129.6 297.04L129.636 296.934L129.653 296.847L129.688 296.741L129.723 296.654L129.741 296.566L129.776 296.461L129.793 296.373L129.829 296.285L129.864 296.198L129.881 296.127L129.916 296.04L129.934 295.952L129.969 295.882L129.986 295.794L130.021 295.724L130.039 295.636L130.074 295.566L130.092 295.496L130.127 295.408L130.144 295.338L130.162 295.268L130.179 295.198L130.214 295.128L130.232 295.075L130.249 295.005L130.267 294.935L130.285 294.864L130.302 294.794L130.32 294.742L130.337 294.672V294.619L130.355 294.549L130.372 294.496L130.39 294.426V294.373L130.407 294.303V294.251L130.425 294.198V294.128V294.075L130.442 294.023V293.952V293.9V293.847V293.777V293.724V293.672V293.602L130.425 293.549V293.496V293.426L130.407 293.374V293.321V293.251L130.39 293.198L130.372 293.128V293.075L130.355 293.005L130.337 292.953L130.32 292.882L130.302 292.83L130.285 292.76L130.267 292.689L130.249 292.637L130.232 292.567L130.214 292.497L130.197 292.426L130.179 292.356L130.162 292.286L130.127 292.216L130.109 292.146L130.092 292.076L130.057 291.988L130.039 291.918L130.004 291.848L129.986 291.76L129.951 291.69L129.934 291.602L129.899 291.514L129.881 291.427L129.846 291.356L129.811 291.269L129.793 291.181L129.758 291.093L129.723 290.988L129.706 290.9L129.671 290.813L129.653 290.707L129.618 290.62L129.583 290.514L129.565 290.409L129.53 290.304L129.495 290.199L129.478 290.093L129.443 289.988L129.425 289.883L129.39 289.778L129.355 289.655L129.337 289.55L129.302 289.427L129.285 289.304L129.267 289.199L129.232 289.076L129.215 288.953L129.197 288.813L129.18 288.69L129.144 288.567L129.127 288.427L129.109 288.304L129.092 288.164L129.074 288.041L129.057 287.901V287.761L129.039 287.62L129.022 287.48V287.322L129.004 287.182V287.024V286.884L128.987 286.726V286.585V286.428V286.27L129.004 286.112V285.954V285.796L129.022 285.621V285.463L129.039 285.305L129.057 285.13L129.074 284.972L129.092 284.796L129.109 284.621L129.144 284.445L129.162 284.27L129.197 284.095L129.232 283.919L129.267 283.744L129.302 283.568L129.337 283.393L129.372 283.218L129.425 283.025L129.478 282.849L129.513 282.674L129.565 282.481L129.618 282.306L129.688 282.113L129.741 281.937L129.811 281.744L129.881 281.551L129.951 281.376L130.021 281.183L130.092 280.99L130.179 280.797L130.249 280.622L130.337 280.429L130.425 280.236L130.513 280.043L130.618 279.867L130.706 279.674L130.811 279.481L130.916 279.289L131.021 279.096L131.127 278.92L131.249 278.727L131.372 278.534L131.477 278.341L131.6 278.166L131.74 277.973L131.863 277.798L132.004 277.605L132.144 277.412L132.284 277.236L132.425 277.061L132.565 276.868L132.723 276.693L132.881 276.517L133.038 276.342L133.196 276.149L133.354 275.973L133.53 275.798L133.687 275.64L133.863 275.465L134.056 275.289L134.231 275.131L134.407 274.956L134.6 274.798L134.792 274.623L134.985 274.465L135.178 274.307L135.389 274.149L135.582 274.009L135.792 273.851L136.003 273.693L136.213 273.553L136.424 273.412L136.652 273.255L136.88 273.114L137.09 272.992L137.318 272.851L137.546 272.711L137.792 272.588L138.02 272.465L138.265 272.343L138.511 272.22L138.757 272.097L139.002 271.992L139.248 271.869L139.493 271.764L139.756 271.658L140.02 271.553L140.265 271.466L140.528 271.36L140.791 271.273L141.072 271.185L141.335 271.097L141.598 271.027L141.879 270.939L142.159 270.869L142.44 270.799L142.703 270.729L142.984 270.676L143.282 270.624L143.563 270.571L143.843 270.518L144.124 270.466L144.422 270.431L144.72 270.396L145.001 270.36L145.299 270.325L145.597 270.308L145.896 270.273H146.176L146.474 270.255L146.773 270.238H147.088H147.387L147.685 270.255H147.983L148.281 270.273L148.579 270.29L148.895 270.325L149.193 270.343L149.491 270.378L149.807 270.413L150.105 270.466L150.403 270.501L150.719 270.553L151.017 270.606L151.316 270.676L151.631 270.729L151.93 270.799L152.228 270.887L152.526 270.957L152.842 271.045L153.14 271.132L153.438 271.22L153.736 271.325L154.034 271.43L154.333 271.536L154.631 271.641L154.911 271.764L155.21 271.886L155.508 272.009L155.788 272.132L156.087 272.272L156.367 272.413L156.648 272.553L156.946 272.693L157.227 272.851L157.507 273.009L157.77 273.167L158.051 273.325L158.332 273.5L158.595 273.676L158.876 273.851L159.139 274.026L159.402 274.219L159.665 274.412L159.928 274.605L160.174 274.798L160.437 274.991L160.682 275.202L160.928 275.412L161.173 275.623L161.419 275.851L161.664 276.061L161.892 276.289L162.121 276.517L162.349 276.745L162.577 276.991L162.805 277.236L163.015 277.464L163.243 277.71L163.454 277.973L163.664 278.219L163.857 278.482L164.068 278.727L164.26 278.99L164.453 279.253L164.646 279.534L164.822 279.797L165.015 280.078L165.19 280.341L165.366 280.622L165.523 280.902L165.681 281.2L165.857 281.481L166.015 281.762L166.155 282.06L166.313 282.358L166.453 282.639L166.593 282.937L166.716 283.235L166.856 283.551L166.979 283.849L167.102 284.147L167.207 284.463L167.313 284.761L167.418 285.077L167.523 285.393L167.628 285.691L167.716 286.007L167.804 286.322L167.891 286.638L167.961 286.954L168.032 287.269L168.102 287.585L168.172 287.918L168.225 288.234L168.277 288.55L168.33 288.866L168.382 289.199L168.418 289.515L168.453 289.83L168.47 290.164L168.505 290.479L168.523 290.795L168.54 291.128L168.558 291.444V291.76V292.093V292.409L168.54 292.725L168.523 293.058L168.505 293.374L168.488 293.689L168.453 294.005L168.435 294.321L168.4 294.636L168.347 294.952L168.312 295.268L168.26 295.566L168.207 295.882L168.137 296.198L168.067 296.496L168.014 296.811L167.926 297.11L167.856 297.408L167.769 297.724L167.681 298.022L167.593 298.32L167.505 298.618L167.4 298.899L167.295 299.197L167.19 299.478L167.084 299.776L166.962 300.056L166.856 300.337L166.734 300.618L166.593 300.898L166.471 301.179L166.33 301.442L166.207 301.705L166.05 301.986L165.909 302.249L165.769 302.512L165.611 302.758L165.453 303.021L165.295 303.266L165.137 303.529L164.98 303.775L164.804 304.003L164.629 304.249L164.453 304.494L164.278 304.722L164.103 304.95L163.927 305.178L163.734 305.406L163.541 305.617L163.348 305.845L163.155 306.055L162.962 306.266L162.77 306.476L162.559 306.669L162.366 306.862L162.156 307.073L161.945 307.248L161.735 307.441L161.524 307.634L161.314 307.809L161.103 307.985L160.893 308.16L160.665 308.318L160.454 308.493L160.226 308.651L159.998 308.809L159.788 308.967L159.56 309.107L159.332 309.265L159.104 309.406L158.876 309.546L158.648 309.669L158.419 309.809L158.174 309.932L157.946 310.055L157.718 310.177L157.49 310.283L157.244 310.405L157.016 310.511L156.771 310.616L156.543 310.704L156.315 310.809L156.069 310.896L155.841 310.984L155.595 311.072L155.367 311.16L155.122 311.23L154.894 311.3L154.648 311.37L154.42 311.44L154.192 311.493L153.947 311.563L153.719 311.616L153.473 311.668L153.245 311.721L153.017 311.756L152.789 311.791L152.543 311.844L152.315 311.879L152.087 311.896L151.859 311.931L151.631 311.949L151.403 311.966L151.193 311.984L150.965 312.002L150.737 312.019H150.509L150.298 312.037H150.07H149.86L149.649 312.019H149.421L149.211 312.002H149L148.79 311.984L148.579 311.966L148.386 311.949L148.176 311.914L147.965 311.896L147.772 311.861L147.562 311.844L147.369 311.809L147.176 311.774L146.983 311.738L146.79 311.686L146.597 311.651L146.422 311.598L146.229 311.563L146.053 311.51L145.861 311.458L145.685 311.405L145.51 311.353L145.334 311.3L145.159 311.247L144.983 311.177L144.826 311.125L144.65 311.054L144.492 311.002L144.334 310.932L144.177 310.861L144.019 310.809L143.861 310.739L143.703 310.668L143.563 310.598L143.405 310.511L143.265 310.44L143.124 310.37L142.984 310.3L142.844 310.212L142.703 310.142L142.563 310.072L142.44 309.984L142.3 309.914L142.177 309.827L142.054 309.756L141.931 309.669L141.809 309.598L141.686 309.511L141.581 309.423L141.458 309.353L141.353 309.265L141.247 309.178L141.125 309.107L141.019 309.02L140.914 308.932L140.826 308.862L140.721 308.774L140.616 308.686L140.528 308.616L140.441 308.529L140.335 308.441L140.248 308.371L140.16 308.283L140.072 308.213L139.984 308.125L139.914 308.037L139.827 307.967L139.756 307.897L139.669 307.809L139.599 307.739L139.528 307.651L139.441 307.581L139.371 307.511L139.3 307.441L139.23 307.353L139.178 307.283L139.107 307.213L139.037 307.143L138.967 307.073L138.914 307.002L138.844 306.932L138.792 306.88L138.739 306.81L138.669 306.739L138.616 306.669L138.564 306.617L138.511 306.546L138.458 306.494L138.406 306.424L138.353 306.371L138.301 306.318L138.248 306.248L138.195 306.196L138.143 306.143L138.09 306.09L138.037 306.038L138.002 305.985L137.95 305.933L137.897 305.897L137.845 305.845L137.809 305.792L137.757 305.757L137.704 305.705L137.669 305.669L137.616 305.617L137.564 305.582L137.529 305.547L137.476 305.494L137.424 305.459L137.371 305.424L137.336 305.389L137.283 305.354L137.231 305.319L137.196 305.284L137.143 305.266L137.09 305.231L137.038 305.196L136.985 305.178L136.932 305.143L136.88 305.108L136.827 305.091L136.775 305.056L136.722 305.038L136.669 305.02L136.617 304.985L136.564 304.968L136.511 304.95L136.459 304.933L136.389 304.898L136.336 304.88L136.266 304.863L136.213 304.845L136.143 304.827L136.09 304.81L136.02 304.792L135.95 304.775L135.898 304.757L135.827 304.74L135.757 304.722L135.687 304.705L135.617 304.687L135.547 304.67L135.459 304.652H135.389L135.319 304.635L135.231 304.617L135.161 304.599L135.073 304.582L135.003 304.564L134.915 304.547L134.828 304.529L134.74 304.512L134.652 304.494L134.564 304.477L134.477 304.459L134.389 304.442L134.301 304.407L134.196 304.389L134.108 304.371L134.003 304.354L133.915 304.319L133.81 304.301L133.705 304.284L133.617 304.249L133.512 304.231L133.407 304.196L133.302 304.161L133.179 304.143L133.074 304.108L132.968 304.073L132.863 304.038L132.74 304.003L132.635 303.968L132.512 303.933L132.389 303.898L132.284 303.845L132.161 303.81L132.039 303.758L131.916 303.722L131.793 303.67L131.67 303.617L131.547 303.565L131.425 303.512L131.302 303.459L131.179 303.407L131.039 303.354L130.916 303.284L130.793 303.231L130.653 303.161L130.53 303.091L130.39 303.021L130.267 302.951L130.127 302.88L129.986 302.81L129.864 302.723L129.723 302.652L129.583 302.565L129.46 302.477L129.32 302.389L129.18 302.302L129.039 302.214L128.899 302.109L128.776 302.021L128.636 301.916L128.495 301.811L128.355 301.705L128.215 301.6L128.092 301.495L127.952 301.372L127.811 301.267L127.671 301.144L127.548 301.021L127.408 300.898L127.268 300.776L127.145 300.635L127.005 300.513L126.864 300.372L126.741 300.232L126.601 300.092L126.478 299.951L126.338 299.793L126.215 299.653L126.092 299.495L125.952 299.337L125.829 299.179L125.707 299.022L125.584 298.864L125.461 298.688L125.338 298.53L125.215 298.355L125.11 298.18L124.987 298.004L124.882 297.829L124.759 297.636L124.654 297.443L124.549 297.268L124.444 297.075L124.321 296.882L124.233 296.689L124.128 296.478L124.023 296.285L123.935 296.075L123.83 295.864L123.742 295.654L123.654 295.443L123.567 295.233L123.479 295.022L123.391 294.794L123.321 294.566L123.233 294.356L123.163 294.128L123.093 293.9L123.023 293.672L122.953 293.426L122.9 293.198L122.83 292.953L122.777 292.725L122.725 292.479L122.672 292.233L122.619 291.988L122.584 291.742L122.532 291.497L122.497 291.234L122.462 290.988L122.444 290.742L122.409 290.479L122.391 290.216L122.374 289.971L122.356 289.708L122.339 289.444L122.321 289.181V288.918V288.655V288.375V288.111L122.339 287.848L122.356 287.585L122.374 287.305L122.391 287.041L122.426 286.761L122.444 286.498L122.479 286.217L122.514 285.936L122.567 285.673L122.619 285.393L122.654 285.13L122.725 284.849L122.777 284.568L122.847 284.305L122.9 284.024L122.97 283.744L123.058 283.481L123.128 283.2L123.216 282.919L123.303 282.656L123.409 282.376L123.496 282.095L123.602 281.832L123.707 281.551L123.812 281.288L123.935 281.025L124.058 280.744L124.18 280.481L124.303 280.218L124.426 279.955L124.566 279.692L124.707 279.429L124.847 279.166L125.005 278.903L125.163 278.64L125.321 278.376L125.478 278.131L125.636 277.868L125.812 277.622L125.987 277.377L126.163 277.131L126.338 276.886L126.531 276.64L126.724 276.394L126.917 276.149L127.11 275.921L127.32 275.675L127.513 275.447L127.724 275.219L127.934 274.991L128.162 274.781L128.373 274.553L128.601 274.342L128.829 274.114L129.057 273.904L129.302 273.693L129.53 273.5L129.776 273.29L130.021 273.097L130.267 272.886L130.53 272.711L130.776 272.518L131.039 272.325L131.302 272.15L131.565 271.974L131.828 271.799L132.109 271.623L132.372 271.448L132.653 271.29L132.933 271.132L133.214 270.974L133.494 270.834L133.793 270.676L134.073 270.536L134.371 270.396L134.67 270.273L134.95 270.132L135.249 270.01L135.564 269.887L135.862 269.764L136.161 269.659L136.476 269.554L136.775 269.448L137.09 269.343L137.406 269.255L137.722 269.168L138.037 269.08L138.353 268.992L138.669 268.922L138.985 268.852L139.3 268.782L139.616 268.729L139.949 268.659L140.265 268.606L140.598 268.571L140.914 268.519L141.247 268.484L141.563 268.449L141.896 268.431L142.23 268.396L142.545 268.378H142.879L143.212 268.361H143.528H143.861H144.194L144.51 268.378L144.843 268.396L145.176 268.413L145.492 268.449L145.825 268.466L146.159 268.501L146.474 268.554L146.808 268.589L147.123 268.641L147.439 268.694L147.772 268.764L148.088 268.817L148.404 268.887L148.72 268.975L149.035 269.045L149.351 269.133L149.667 269.22L149.983 269.308L150.298 269.413L150.614 269.519L150.912 269.624L151.21 269.729L151.526 269.852L151.824 269.957L152.122 270.08L152.421 270.22L152.719 270.343L152.999 270.483L153.298 270.624L153.578 270.764L153.877 270.922L154.157 271.08L154.438 271.237L154.718 271.395L154.982 271.553L155.262 271.729L155.525 271.904L155.788 272.079L156.052 272.255L156.315 272.448L156.578 272.623L156.823 272.816L157.069 273.009L157.314 273.22L157.56 273.412L157.806 273.623L158.034 273.833L158.279 274.044L158.507 274.254L158.735 274.465L158.946 274.693L159.174 274.903L159.384 275.131L159.595 275.359L159.805 275.588L159.998 275.833L160.209 276.061L160.402 276.307L160.595 276.535L160.787 276.78L160.963 277.026L161.138 277.271L161.314 277.517L161.489 277.78L161.664 278.026L161.822 278.289L161.98 278.534L162.138 278.797L162.278 279.061L162.436 279.324L162.577 279.587L162.717 279.85L162.84 280.113L162.98 280.376L163.103 280.639L163.226 280.92L163.331 281.183L163.454 281.446L163.559 281.727L163.664 281.99L163.752 282.27L163.857 282.551L163.945 282.814L164.032 283.095L164.103 283.358L164.19 283.639L164.26 283.919L164.331 284.182L164.401 284.463L164.453 284.744L164.506 285.007L164.559 285.287L164.611 285.568L164.664 285.831L164.699 286.112L164.734 286.392L164.769 286.656L164.787 286.936L164.822 287.199L164.839 287.48L164.857 287.743V288.006L164.874 288.287V288.55V288.813V289.076L164.857 289.339V289.602L164.839 289.865L164.822 290.129L164.787 290.374L164.769 290.637L164.734 290.883L164.699 291.146L164.664 291.391L164.629 291.637L164.594 291.9L164.541 292.146L164.488 292.374L164.436 292.619L164.383 292.865L164.331 293.11L164.26 293.338L164.19 293.566L164.138 293.812L164.068 294.04L163.98 294.268L163.91 294.479L163.839 294.707L163.752 294.935L163.664 295.145L163.576 295.356L163.489 295.584L163.401 295.794L163.296 295.987L163.208 296.198L163.103 296.408L163.015 296.601L162.91 296.794L162.805 297.004L162.699 297.197L162.594 297.373L162.471 297.566L162.366 297.741L162.243 297.934L162.138 298.109L162.015 298.285L161.892 298.46L161.787 298.636L161.664 298.794L161.542 298.969L161.401 299.127L161.279 299.285L161.156 299.443L161.033 299.6L160.91 299.741L160.77 299.899L160.647 300.039L160.507 300.179L160.384 300.32L160.244 300.46L160.103 300.583L159.981 300.723L159.84 300.846L159.7 300.969L159.577 301.091L159.437 301.214L159.297 301.337L159.156 301.442L159.033 301.565L158.893 301.67L158.753 301.775L158.612 301.881L158.472 301.968L158.349 302.074L158.209 302.179L158.069 302.267L157.928 302.354L157.788 302.442L157.665 302.53L157.525 302.617L157.385 302.688L157.262 302.775L157.121 302.845L156.981 302.933L156.858 303.003L156.718 303.073L156.595 303.144L156.455 303.196L156.332 303.266L156.209 303.319L156.069 303.389L155.946 303.442L155.823 303.494L155.701 303.547L155.578 303.6L155.455 303.652L155.332 303.705L155.21 303.74L155.087 303.793L154.964 303.828L154.841 303.88L154.736 303.915L154.613 303.95L154.49 303.986L154.385 304.021L154.28 304.056L154.157 304.091L154.052 304.126L153.947 304.161L153.841 304.178L153.736 304.214L153.631 304.249L153.526 304.266L153.42 304.301L153.315 304.319L153.228 304.336L153.122 304.371L153.035 304.389L152.929 304.407L152.842 304.424L152.754 304.442L152.666 304.459L152.579 304.477L152.491 304.512L152.403 304.529L152.315 304.547H152.228L152.14 304.564L152.07 304.582L151.982 304.599L151.912 304.617L151.824 304.635L151.754 304.652L151.684 304.67L151.614 304.687L151.544 304.705L151.473 304.722L151.403 304.74L151.333 304.757L151.263 304.775L151.193 304.792L151.14 304.81L151.07 304.827L151 304.845L150.947 304.863L150.877 304.88L150.824 304.898L150.772 304.915L150.702 304.933L150.649 304.968L150.596 304.985L150.544 305.003L150.491 305.038L150.439 305.056L150.386 305.073L150.333 305.108L150.281 305.126L150.228 305.161L150.175 305.196L150.123 305.213L150.07 305.248L150.035 305.284L149.983 305.319L149.93 305.336L149.877 305.371L149.842 305.406L149.79 305.441L149.737 305.494L149.684 305.529L149.649 305.564L149.597 305.599L149.544 305.652L149.509 305.687L149.456 305.74L149.404 305.775L149.369 305.827L149.316 305.88L149.263 305.915L149.228 305.968L149.176 306.02L149.123 306.073L149.07 306.125L149.018 306.178L148.965 306.231L148.93 306.283L148.877 306.354L148.825 306.406L148.772 306.459L148.702 306.529L148.649 306.582L148.597 306.652L148.544 306.722L148.492 306.774L148.421 306.845L148.369 306.915L148.299 306.985L148.246 307.055L148.176 307.125L148.123 307.195L148.053 307.266L147.983 307.336L147.913 307.406L147.843 307.476L147.772 307.546L147.702 307.634L147.632 307.704L147.562 307.774L147.474 307.862L147.404 307.932L147.316 308.02L147.229 308.09L147.159 308.178L147.071 308.248L146.983 308.336L146.895 308.423L146.79 308.493L146.702 308.581L146.615 308.651L146.51 308.739L146.422 308.827L146.317 308.897L146.211 308.985L146.106 309.072L146.001 309.142L145.896 309.23L145.773 309.318L145.668 309.388L145.545 309.476L145.422 309.563L145.317 309.634L145.194 309.721L145.071 309.791L144.931 309.879L144.808 309.949L144.685 310.037L144.545 310.107L144.405 310.195L144.264 310.265L144.124 310.335L143.984 310.423L143.843 310.493L143.703 310.563L143.545 310.633L143.387 310.704L143.247 310.774L143.089 310.844L142.931 310.914L142.773 310.967L142.598 311.037L142.44 311.107L142.265 311.16L142.107 311.212L141.931 311.282L141.756 311.335L141.581 311.388L141.405 311.44L141.212 311.493L141.037 311.545L140.861 311.581L140.669 311.633L140.476 311.668L140.283 311.721L140.09 311.756L139.897 311.791L139.704 311.826L139.511 311.861L139.3 311.879L139.107 311.914L138.897 311.931L138.686 311.949L138.476 311.984H138.283L138.073 312.002L137.845 312.019H137.634L137.424 312.037H137.213H136.985L136.775 312.019H136.547L136.318 312.002H136.09L135.88 311.984L135.652 311.966L135.424 311.931L135.196 311.914L134.968 311.879L134.74 311.844L134.494 311.809L134.266 311.774L134.038 311.738L133.81 311.686L133.565 311.633L133.337 311.581L133.109 311.528L132.863 311.458L132.635 311.405L132.389 311.335L132.161 311.265L131.916 311.177L131.688 311.107L131.46 311.019L131.214 310.932L130.986 310.844L130.741 310.756L130.513 310.651L130.267 310.546L130.039 310.44L129.811 310.335L129.565 310.212L129.337 310.107L129.109 309.984L128.864 309.862L128.636 309.721L128.408 309.598L128.18 309.458L127.952 309.318L127.724 309.178L127.496 309.02L127.268 308.879L127.057 308.721L126.829 308.564L126.619 308.388L126.391 308.23L126.18 308.055L125.952 307.88L125.742 307.704L125.531 307.511L125.321 307.336L125.11 307.143L124.917 306.95L124.707 306.739L124.514 306.546L124.303 306.336L124.11 306.125L123.917 305.915L123.724 305.705L123.531 305.494L123.356 305.266L123.163 305.038L122.988 304.81L122.812 304.582L122.637 304.336L122.462 304.108L122.286 303.863L122.128 303.617L121.953 303.372L121.795 303.126L121.637 302.863L121.497 302.6L121.339 302.354L121.199 302.091L121.058 301.811L120.918 301.547L120.778 301.284L120.637 301.004L120.515 300.723L120.392 300.442L120.269 300.162L120.164 299.881L120.041 299.6L119.936 299.302L119.83 299.022L119.725 298.723L119.638 298.425L119.55 298.127L119.462 297.829L119.374 297.531L119.287 297.232L119.217 296.934L119.146 296.619L119.076 296.32L119.024 296.005L118.971 295.689L118.918 295.391L118.866 295.075L118.813 294.759L118.778 294.444L118.743 294.128L118.725 293.812L118.69 293.496L118.673 293.181L118.655 292.847V292.532L118.638 292.216V291.9V291.567L118.655 291.251L118.673 290.935L118.69 290.602L118.708 290.286L118.743 289.971L118.76 289.637L118.813 289.322L118.848 289.006L118.901 288.673L118.953 288.357L119.006 288.041L119.059 287.726L119.129 287.392L119.199 287.077L119.287 286.761L119.357 286.445L119.445 286.129L119.532 285.814L119.638 285.515L119.725 285.2L119.83 284.884L119.936 284.586L120.058 284.27L120.181 283.972L120.304 283.656L120.427 283.358L120.55 283.06L120.69 282.762L120.83 282.463L120.988 282.165L121.128 281.885L121.286 281.586L121.444 281.306L121.602 281.025L121.777 280.744L121.935 280.464L122.111 280.183L122.304 279.902L122.479 279.639L122.672 279.359L122.865 279.096L123.058 278.833L123.251 278.569L123.461 278.324L123.672 278.061L123.882 277.815L124.093 277.57L124.303 277.324L124.531 277.078L124.759 276.85L124.987 276.605L125.215 276.377L125.443 276.149L125.689 275.938L125.917 275.71L126.163 275.5L126.408 275.289L126.671 275.079L126.917 274.868L127.18 274.675L127.425 274.482L127.689 274.29L127.952 274.097L128.215 273.921L128.495 273.746L128.759 273.57L129.039 273.395L129.302 273.22L129.583 273.062L129.864 272.904L130.144 272.746L130.425 272.606L130.723 272.465L131.004 272.325L131.284 272.185L131.583 272.044L131.863 271.922L132.161 271.799L132.46 271.694L132.758 271.571L133.056 271.466L133.354 271.36L133.652 271.255L133.951 271.167L134.249 271.08L134.547 270.992L134.845 270.904L135.143 270.834L135.459 270.764L135.757 270.694L136.055 270.641L136.371 270.571L136.669 270.518L136.967 270.483L137.283 270.431L137.581 270.396L137.88 270.36L138.178 270.325L138.494 270.308L138.792 270.273H139.09L139.406 270.255L139.704 270.238H140.002H140.3L140.598 270.255H140.897L141.195 270.273L141.493 270.29L141.791 270.308L142.072 270.343L142.37 270.378L142.668 270.413L142.949 270.448L143.247 270.501L143.528 270.536L143.808 270.588L144.089 270.659L144.37 270.711L144.65 270.781L144.931 270.834L145.212 270.922L145.492 270.992L145.755 271.062L146.018 271.15L146.299 271.237L146.562 271.325L146.825 271.413L147.088 271.518L147.334 271.623L147.597 271.729L147.843 271.834L148.106 271.939L148.351 272.062L148.597 272.167L148.842 272.29L149.07 272.413L149.316 272.535L149.544 272.658L149.79 272.799L150.018 272.939L150.246 273.062L150.456 273.202L150.684 273.342L150.895 273.5L151.105 273.641L151.316 273.781L151.526 273.939L151.737 274.097L151.93 274.254L152.14 274.412L152.333 274.57L152.526 274.728L152.719 274.886L152.894 275.061L153.087 275.219L153.263 275.395L153.438 275.57L153.613 275.745L153.771 275.921L153.947 276.096L154.105 276.272L154.262 276.447L154.42 276.622L154.561 276.798L154.718 276.991L154.859 277.166L154.999 277.342L155.139 277.535L155.28 277.71L155.403 277.903L155.543 278.096L155.666 278.271L155.788 278.464L155.911 278.657L156.016 278.833L156.139 279.025L156.244 279.218L156.35 279.411L156.455 279.604L156.543 279.78L156.648 279.973L156.736 280.166L156.823 280.359L156.911 280.534L156.999 280.727L157.069 280.92L157.157 281.113L157.227 281.288L157.297 281.481L157.367 281.674L157.42 281.849L157.49 282.042L157.542 282.235L157.595 282.411L157.665 282.604L157.7 282.779L157.753 282.955L157.806 283.147L157.841 283.323L157.876 283.498L157.928 283.674L157.963 283.867L157.981 284.042L158.016 284.217L158.051 284.375L158.069 284.551L158.086 284.726L158.121 284.902L158.139 285.059L158.156 285.235V285.393L158.174 285.568L158.191 285.726V285.884V286.042L158.209 286.199V286.357V286.515V286.673L158.191 286.831V286.971V287.129L158.174 287.269V287.41L158.156 287.568V287.708L158.139 287.848L158.121 287.971L158.104 288.111L158.086 288.252L158.069 288.392L158.051 288.515L158.034 288.638L158.016 288.778L157.981 288.901L157.963 289.024L157.946 289.146L157.911 289.269L157.893 289.392L157.876 289.497L157.841 289.62L157.823 289.725L157.788 289.848L157.77 289.953L157.735 290.058L157.7 290.164L157.683 290.269L157.648 290.374L157.613 290.479L157.595 290.567L157.56 290.672L157.525 290.778L157.507 290.865L157.472 290.953L157.437 291.058L157.42 291.146L157.385 291.234L157.367 291.321L157.332 291.409L157.297 291.479L157.279 291.567L157.244 291.655L157.227 291.725L157.192 291.812L157.174 291.883L157.139 291.97L157.121 292.04L157.104 292.111L157.069 292.181L157.051 292.251L157.034 292.321L156.999 292.391L156.981 292.461L156.964 292.532L156.946 292.602L156.929 292.672L156.911 292.742L156.893 292.795L156.876 292.865L156.858 292.917L156.841 292.988V293.058L156.823 293.11L156.806 293.181V293.233L156.788 293.286V293.356L156.771 293.409V293.461V293.531L156.753 293.584V293.637V293.707V293.759" stroke="white" stroke-width="1.57864"/>
<g filter="url(#filter11_b_415_11747)">
<rect x="322.955" y="559.898" width="78.7797" height="78.7797" rx="14.0678" fill="white" fill-opacity="0.1"/>
<rect x="322.486" y="559.43" width="79.7175" height="79.7175" rx="14.5367" stroke="white" stroke-opacity="0.2" stroke-width="0.937853"/>
</g>
<path d="M336.09 568.339C335.523 568.339 335.1 568.801 335.151 569.366L339.933 623.014C339.984 623.579 340.472 624.166 341.019 624.318L361.315 629.953C361.862 630.105 362.756 630.105 363.303 629.953L383.661 624.309C384.208 624.157 384.697 623.571 384.747 623.006L389.538 569.366C389.589 568.801 389.165 568.339 388.598 568.339H336.09ZM379.352 580.643C379.307 581.147 379.229 582.022 379.178 582.587L379.052 583.994C379.002 584.559 378.929 585.367 378.891 585.79C378.853 586.212 378.817 586.558 378.811 586.558C378.804 586.558 378.335 586.558 377.767 586.558H363.376C362.808 586.558 362.339 586.558 362.333 586.558C362.327 586.558 361.858 586.558 361.29 586.558H353.711C353.144 586.558 352.721 587.02 352.771 587.585L353.213 592.527C353.264 593.092 353.769 593.554 354.337 593.554H361.291C361.858 593.554 362.327 593.554 362.333 593.554C362.34 593.554 362.809 593.554 363.376 593.554H375.329C375.896 593.554 376.774 593.554 377.28 593.554C377.785 593.554 378.161 593.967 378.116 594.471C378.07 594.975 377.991 595.85 377.941 596.415L376.519 612.347C376.468 612.912 376.404 613.634 376.376 613.951C376.348 614.268 375.878 614.652 375.331 614.803L363.338 618.129C362.792 618.28 362.337 618.406 362.329 618.407C362.32 618.409 361.866 618.287 361.319 618.135L349.314 614.804C348.767 614.652 348.279 614.065 348.228 613.5L347.455 604.826C347.405 604.261 347.828 603.799 348.396 603.799H349.491C350.059 603.799 350.987 603.799 351.554 603.799H353.188C353.755 603.799 354.261 604.261 354.311 604.826L354.614 608.222C354.665 608.787 355.154 609.37 355.702 609.518L361.318 611.035C361.865 611.183 362.315 611.304 362.318 611.304C362.32 611.304 362.77 611.182 363.318 611.034L368.944 609.514C369.491 609.366 369.981 608.783 370.032 608.218L370.642 601.415C370.692 600.85 370.27 600.388 369.702 600.388H363.376C362.809 600.388 362.34 600.388 362.333 600.388C362.327 600.388 361.858 600.388 361.291 600.388H348.09C347.522 600.388 347.017 599.925 346.967 599.36L345.47 582.587C345.419 582.022 345.341 581.147 345.296 580.643C345.251 580.139 345.679 579.726 346.246 579.726H361.291C361.858 579.726 362.327 579.726 362.333 579.726C362.34 579.726 362.809 579.726 363.376 579.726H378.402C378.97 579.726 379.397 580.139 379.352 580.643Z" fill="white"/>
</g>
<defs>
<filter id="filter0_b_415_11747" x="50.0398" y="537.389" width="144.429" height="144.429" filterUnits="userSpaceOnUse" color-interpolation-filters="sRGB">
<feFlood flood-opacity="0" result="BackgroundImageFix"/>
<feGaussianBlur in="BackgroundImageFix" stdDeviation="15.9435"/>
<feComposite in2="SourceAlpha" operator="in" result="effect1_backgroundBlur_415_11747"/>
<feBlend mode="normal" in="SourceGraphic" in2="effect1_backgroundBlur_415_11747" result="shape"/>
</filter>
<filter id="filter1_b_415_11747" x="262.587" y="33.4182" width="143.491" height="143.492" filterUnits="userSpaceOnUse" color-interpolation-filters="sRGB">
<feFlood flood-opacity="0" result="BackgroundImageFix"/>
<feGaussianBlur in="BackgroundImageFix" stdDeviation="15.9435"/>
<feComposite in2="SourceAlpha" operator="in" result="effect1_backgroundBlur_415_11747"/>
<feBlend mode="normal" in="SourceGraphic" in2="effect1_backgroundBlur_415_11747" result="shape"/>
</filter>
<filter id="filter2_b_415_11747" x="98.2136" y="-7.15849" width="144.429" height="144.429" filterUnits="userSpaceOnUse" color-interpolation-filters="sRGB">
<feFlood flood-opacity="0" result="BackgroundImageFix"/>
<feGaussianBlur in="BackgroundImageFix" stdDeviation="15.9435"/>
<feComposite in2="SourceAlpha" operator="in" result="effect1_backgroundBlur_415_11747"/>
<feBlend mode="normal" in="SourceGraphic" in2="effect1_backgroundBlur_415_11747" result="shape"/>
</filter>
<filter id="filter3_b_415_11747" x="155.816" y="52.4409" width="29.0839" height="25.3818" filterUnits="userSpaceOnUse" color-interpolation-filters="sRGB">
<feFlood flood-opacity="0" result="BackgroundImageFix"/>
<feGaussianBlur in="BackgroundImageFix" stdDeviation="1.56517"/>
<feComposite in2="SourceAlpha" operator="in" result="effect1_backgroundBlur_415_11747"/>
<feBlend mode="normal" in="SourceGraphic" in2="effect1_backgroundBlur_415_11747" result="shape"/>
</filter>
<filter id="filter4_b_415_11747" x="382.2" y="300.273" width="145.005" height="145.006" filterUnits="userSpaceOnUse" color-interpolation-filters="sRGB">
<feFlood flood-opacity="0" result="BackgroundImageFix"/>
<feGaussianBlur in="BackgroundImageFix" stdDeviation="15.9435"/>
<feComposite in2="SourceAlpha" operator="in" result="effect1_backgroundBlur_415_11747"/>
<feBlend mode="normal" in="SourceGraphic" in2="effect1_backgroundBlur_415_11747" result="shape"/>
</filter>
<filter id="filter5_b_415_11747" x="177.588" y="133.175" width="144.429" height="144.429" filterUnits="userSpaceOnUse" color-interpolation-filters="sRGB">
<feFlood flood-opacity="0" result="BackgroundImageFix"/>
<feGaussianBlur in="BackgroundImageFix" stdDeviation="15.9435"/>
<feComposite in2="SourceAlpha" operator="in" result="effect1_backgroundBlur_415_11747"/>
<feBlend mode="normal" in="SourceGraphic" in2="effect1_backgroundBlur_415_11747" result="shape"/>
</filter>
<filter id="filter6_b_415_11747" x="327.796" y="183.97" width="144.429" height="144.429" filterUnits="userSpaceOnUse" color-interpolation-filters="sRGB">
<feFlood flood-opacity="0" result="BackgroundImageFix"/>
<feGaussianBlur in="BackgroundImageFix" stdDeviation="15.9435"/>
<feComposite in2="SourceAlpha" operator="in" result="effect1_backgroundBlur_415_11747"/>
<feBlend mode="normal" in="SourceGraphic" in2="effect1_backgroundBlur_415_11747" result="shape"/>
</filter>
<filter id="filter7_b_415_11747" x="219.791" y="271.039" width="143.491" height="143.492" filterUnits="userSpaceOnUse" color-interpolation-filters="sRGB">
<feFlood flood-opacity="0" result="BackgroundImageFix"/>
<feGaussianBlur in="BackgroundImageFix" stdDeviation="15.9435"/>
<feComposite in2="SourceAlpha" operator="in" result="effect1_backgroundBlur_415_11747"/>
<feBlend mode="normal" in="SourceGraphic" in2="effect1_backgroundBlur_415_11747" result="shape"/>
</filter>
<filter id="filter8_b_415_11747" x="249.802" y="407.966" width="144.429" height="144.429" filterUnits="userSpaceOnUse" color-interpolation-filters="sRGB">
<feFlood flood-opacity="0" result="BackgroundImageFix"/>
<feGaussianBlur in="BackgroundImageFix" stdDeviation="15.9435"/>
<feComposite in2="SourceAlpha" operator="in" result="effect1_backgroundBlur_415_11747"/>
<feBlend mode="normal" in="SourceGraphic" in2="effect1_backgroundBlur_415_11747" result="shape"/>
</filter>
<filter id="filter9_b_415_11747" x="96.9314" y="383.582" width="144.429" height="144.429" filterUnits="userSpaceOnUse" color-interpolation-filters="sRGB">
<feFlood flood-opacity="0" result="BackgroundImageFix"/>
<feGaussianBlur in="BackgroundImageFix" stdDeviation="15.9435"/>
<feComposite in2="SourceAlpha" operator="in" result="effect1_backgroundBlur_415_11747"/>
<feBlend mode="normal" in="SourceGraphic" in2="effect1_backgroundBlur_415_11747" result="shape"/>
</filter>
<filter id="filter10_b_415_11747" x="71.6101" y="221.333" width="144.429" height="144.429" filterUnits="userSpaceOnUse" color-interpolation-filters="sRGB">
<feFlood flood-opacity="0" result="BackgroundImageFix"/>
<feGaussianBlur in="BackgroundImageFix" stdDeviation="15.9435"/>
<feComposite in2="SourceAlpha" operator="in" result="effect1_backgroundBlur_415_11747"/>
<feBlend mode="normal" in="SourceGraphic" in2="effect1_backgroundBlur_415_11747" result="shape"/>
</filter>
<filter id="filter11_b_415_11747" x="290.131" y="527.073" width="144.429" height="144.429" filterUnits="userSpaceOnUse" color-interpolation-filters="sRGB">
<feFlood flood-opacity="0" result="BackgroundImageFix"/>
<feGaussianBlur in="BackgroundImageFix" stdDeviation="15.9435"/>
<feComposite in2="SourceAlpha" operator="in" result="effect1_backgroundBlur_415_11747"/>
<feBlend mode="normal" in="SourceGraphic" in2="effect1_backgroundBlur_415_11747" result="shape"/>
</filter>
<radialGradient id="paint0_radial_415_11747" cx="0" cy="0" r="1" gradientUnits="userSpaceOnUse" gradientTransform="translate(332 332.938) rotate(90) scale(349.759)">
<stop stop-color="white"/>
<stop offset="1" stop-color="white" stop-opacity="0"/>
</radialGradient>
<linearGradient id="paint1_linear_415_11747" x1="141.949" y1="-81.5932" x2="363.282" y2="699.638" gradientUnits="userSpaceOnUse">
<stop offset="0.416946"/>
<stop offset="0.880782" stop-opacity="0.02"/>
</linearGradient>
<linearGradient id="paint2_linear_415_11747" x1="144.529" y1="440.397" x2="169.558" y2="474.388" gradientUnits="userSpaceOnUse">
<stop stop-color="white" stop-opacity="0"/>
<stop offset="1" stop-color="white"/>
</linearGradient>
<linearGradient id="paint3_linear_415_11747" x1="171.81" y1="432.516" x2="176.958" y2="467.836" gradientUnits="userSpaceOnUse">
<stop offset="0.0001" stop-color="white"/>
</linearGradient>
<clipPath id="clip0_415_11747">
<rect width="54.3955" height="54.3955" fill="white" transform="translate(95.0557 582.407)"/>
</clipPath>
<clipPath id="clip1_415_11747">
<rect width="60.0226" height="60.0226" fill="white" transform="translate(370.055 226.116) rotate(0.109914)"/>
</clipPath>
<clipPath id="clip2_415_11747">
<rect width="54.5493" height="54.5493" fill="white" transform="translate(294.818 452.982)"/>
</clipPath>
</defs>
</svg>
